<?xml version="1.0" encoding="utf-8" standalone="no"?>
<!DOCTYPE svg PUBLIC "-//W3C//DTD SVG 1.1//EN"
  "http://www.w3.org/Graphics/SVG/1.1/DTD/svg11.dtd">
<!-- Created with matplotlib (http://matplotlib.org/) -->
<svg height="492pt" version="1.1" viewBox="0 0 742 492" width="742pt" xmlns="http://www.w3.org/2000/svg" xmlns:xlink="http://www.w3.org/1999/xlink">
 <defs>
  <style type="text/css">
*{stroke-linecap:butt;stroke-linejoin:round;stroke-miterlimit:100000;}
  </style>
 </defs>
 <g id="figure_1">
  <g id="patch_1">
   <path d="M 0 492.51 
L 742.885 492.51 
L 742.885 0 
L 0 0 
z
" style="fill:#ffffff;"/>
  </g>
  <g id="axes_1">
   <g id="patch_2">
    <path d="M 120.09 376.22 
L 678.09 376.22 
L 678.09 41.42 
L 120.09 41.42 
z
" style="fill:#ffffff;"/>
   </g>
   <g id="patch_3">
    <path clip-path="url(#p6358e1a612)" d="M 124.211883 376.22 
L 153.45594 376.22 
L 153.45594 376.011791 
L 124.211883 376.011791 
z
" style="fill:#8000ff;opacity:0.5;stroke:#000000;stroke-linejoin:miter;"/>
   </g>
   <g id="patch_4">
    <path clip-path="url(#p6358e1a612)" d="M 153.45594 376.22 
L 182.699996 376.22 
L 182.699996 375.199298 
L 153.45594 375.199298 
z
" style="fill:#8000ff;opacity:0.5;stroke:#000000;stroke-linejoin:miter;"/>
   </g>
   <g id="patch_5">
    <path clip-path="url(#p6358e1a612)" d="M 182.699996 376.22 
L 211.944052 376.22 
L 211.944052 372.339417 
L 182.699996 372.339417 
z
" style="fill:#8000ff;opacity:0.5;stroke:#000000;stroke-linejoin:miter;"/>
   </g>
   <g id="patch_6">
    <path clip-path="url(#p6358e1a612)" d="M 211.944052 376.22 
L 241.188108 376.22 
L 241.188108 365.052105 
L 211.944052 365.052105 
z
" style="fill:#8000ff;opacity:0.5;stroke:#000000;stroke-linejoin:miter;"/>
   </g>
   <g id="patch_7">
    <path clip-path="url(#p6358e1a612)" d="M 241.188108 376.22 
L 270.432164 376.22 
L 270.432164 350.410471 
L 241.188108 350.410471 
z
" style="fill:#8000ff;opacity:0.5;stroke:#000000;stroke-linejoin:miter;"/>
   </g>
   <g id="patch_8">
    <path clip-path="url(#p6358e1a612)" d="M 270.432164 376.22 
L 299.676221 376.22 
L 299.676221 324.94676 
L 270.432164 324.94676 
z
" style="fill:#8000ff;opacity:0.5;stroke:#000000;stroke-linejoin:miter;"/>
   </g>
   <g id="patch_9">
    <path clip-path="url(#p6358e1a612)" d="M 299.676221 376.22 
L 328.920277 376.22 
L 328.920277 292.375228 
L 299.676221 292.375228 
z
" style="fill:#8000ff;opacity:0.5;stroke:#000000;stroke-linejoin:miter;"/>
   </g>
   <g id="patch_10">
    <path clip-path="url(#p6358e1a612)" d="M 328.920277 376.22 
L 358.164333 376.22 
L 358.164333 254.171286 
L 328.920277 254.171286 
z
" style="fill:#8000ff;opacity:0.5;stroke:#000000;stroke-linejoin:miter;"/>
   </g>
   <g id="patch_11">
    <path clip-path="url(#p6358e1a612)" d="M 358.164333 376.22 
L 387.408389 376.22 
L 387.408389 225.515038 
L 358.164333 225.515038 
z
" style="fill:#8000ff;opacity:0.5;stroke:#000000;stroke-linejoin:miter;"/>
   </g>
   <g id="patch_12">
    <path clip-path="url(#p6358e1a612)" d="M 387.408389 376.22 
L 416.652445 376.22 
L 416.652445 213.175669 
L 387.408389 213.175669 
z
" style="fill:#8000ff;opacity:0.5;stroke:#000000;stroke-linejoin:miter;"/>
   </g>
   <g id="patch_13">
    <path clip-path="url(#p6358e1a612)" d="M 416.652445 376.22 
L 445.896502 376.22 
L 445.896502 224.328008 
L 416.652445 224.328008 
z
" style="fill:#8000ff;opacity:0.5;stroke:#000000;stroke-linejoin:miter;"/>
   </g>
   <g id="patch_14">
    <path clip-path="url(#p6358e1a612)" d="M 445.896502 376.22 
L 475.140558 376.22 
L 475.140558 252.710234 
L 445.896502 252.710234 
z
" style="fill:#8000ff;opacity:0.5;stroke:#000000;stroke-linejoin:miter;"/>
   </g>
   <g id="patch_15">
    <path clip-path="url(#p6358e1a612)" d="M 475.140558 376.22 
L 504.384614 376.22 
L 504.384614 287.935831 
L 475.140558 287.935831 
z
" style="fill:#8000ff;opacity:0.5;stroke:#000000;stroke-linejoin:miter;"/>
   </g>
   <g id="patch_16">
    <path clip-path="url(#p6358e1a612)" d="M 504.384614 376.22 
L 533.62867 376.22 
L 533.62867 319.481875 
L 504.384614 319.481875 
z
" style="fill:#8000ff;opacity:0.5;stroke:#000000;stroke-linejoin:miter;"/>
   </g>
   <g id="patch_17">
    <path clip-path="url(#p6358e1a612)" d="M 533.62867 376.22 
L 562.872726 376.22 
L 562.872726 342.571525 
L 533.62867 342.571525 
z
" style="fill:#8000ff;opacity:0.5;stroke:#000000;stroke-linejoin:miter;"/>
   </g>
   <g id="patch_18">
    <path clip-path="url(#p6358e1a612)" d="M 562.872726 376.22 
L 592.116783 376.22 
L 592.116783 358.207536 
L 562.872726 358.207536 
z
" style="fill:#8000ff;opacity:0.5;stroke:#000000;stroke-linejoin:miter;"/>
   </g>
   <g id="patch_19">
    <path clip-path="url(#p6358e1a612)" d="M 592.116783 376.22 
L 621.360839 376.22 
L 621.360839 366.995388 
L 592.116783 366.995388 
z
" style="fill:#8000ff;opacity:0.5;stroke:#000000;stroke-linejoin:miter;"/>
   </g>
   <g id="patch_20">
    <path clip-path="url(#p6358e1a612)" d="M 621.360839 376.22 
L 650.604895 376.22 
L 650.604895 371.96488 
L 621.360839 371.96488 
z
" style="fill:#8000ff;opacity:0.5;stroke:#000000;stroke-linejoin:miter;"/>
   </g>
   <g id="patch_21">
    <path clip-path="url(#p6358e1a612)" d="M 650.604895 376.22 
L 679.848951 376.22 
L 679.848951 374.46578 
L 650.604895 374.46578 
z
" style="fill:#8000ff;opacity:0.5;stroke:#000000;stroke-linejoin:miter;"/>
   </g>
   <g id="patch_22">
    <path clip-path="url(#p6358e1a612)" d="M 679.848951 376.22 
L 709.093007 376.22 
L 709.093007 375.460157 
L 679.848951 375.460157 
z
" style="fill:#8000ff;opacity:0.5;stroke:#000000;stroke-linejoin:miter;"/>
   </g>
   <g id="patch_23">
    <path clip-path="url(#p6358e1a612)" d="M 709.093007 376.22 
L 738.337064 376.22 
L 738.337064 375.96991 
L 709.093007 375.96991 
z
" style="fill:#8000ff;opacity:0.5;stroke:#000000;stroke-linejoin:miter;"/>
   </g>
   <g id="patch_24">
    <path clip-path="url(#p6358e1a612)" d="M 738.337064 376.22 
L 767.58112 376.22 
L 767.58112 376.145811 
L 738.337064 376.145811 
z
" style="fill:#8000ff;opacity:0.5;stroke:#000000;stroke-linejoin:miter;"/>
   </g>
   <g id="patch_25">
    <path clip-path="url(#p6358e1a612)" d="M 767.58112 376.22 
L 796.825176 376.22 
L 796.825176 376.206837 
L 767.58112 376.206837 
z
" style="fill:#8000ff;opacity:0.5;stroke:#000000;stroke-linejoin:miter;"/>
   </g>
   <g id="patch_26">
    <path clip-path="url(#p6358e1a612)" d="M 796.825176 376.22 
L 826.069232 376.22 
L 826.069232 376.218803 
L 796.825176 376.218803 
z
" style="fill:#8000ff;opacity:0.5;stroke:#000000;stroke-linejoin:miter;"/>
   </g>
   <g id="patch_27">
    <path clip-path="url(#p6358e1a612)" d="M 826.069232 376.22 
L 855.313288 376.22 
L 855.313288 376.217607 
L 826.069232 376.217607 
z
" style="fill:#8000ff;opacity:0.5;stroke:#000000;stroke-linejoin:miter;"/>
   </g>
   <g id="patch_28">
    <path clip-path="url(#p6358e1a612)" d="M 120.09 376.22 
L 144.58798 376.22 
L 144.58798 373.468445 
L 120.09 373.468445 
z
" style="fill:#2981f6;opacity:0.5;stroke:#000000;stroke-linejoin:miter;"/>
   </g>
   <g id="patch_29">
    <path clip-path="url(#p6358e1a612)" d="M 144.58798 376.22 
L 169.08596 376.22 
L 169.08596 367.497355 
L 144.58798 367.497355 
z
" style="fill:#2981f6;opacity:0.5;stroke:#000000;stroke-linejoin:miter;"/>
   </g>
   <g id="patch_30">
    <path clip-path="url(#p6358e1a612)" d="M 169.08596 376.22 
L 193.583941 376.22 
L 193.583941 354.923352 
L 169.08596 354.923352 
z
" style="fill:#2981f6;opacity:0.5;stroke:#000000;stroke-linejoin:miter;"/>
   </g>
   <g id="patch_31">
    <path clip-path="url(#p6358e1a612)" d="M 193.583941 376.22 
L 218.081921 376.22 
L 218.081921 325.506186 
L 193.583941 325.506186 
z
" style="fill:#2981f6;opacity:0.5;stroke:#000000;stroke-linejoin:miter;"/>
   </g>
   <g id="patch_32">
    <path clip-path="url(#p6358e1a612)" d="M 218.081921 376.22 
L 242.579901 376.22 
L 242.579901 294.60316 
L 218.081921 294.60316 
z
" style="fill:#2981f6;opacity:0.5;stroke:#000000;stroke-linejoin:miter;"/>
   </g>
   <g id="patch_33">
    <path clip-path="url(#p6358e1a612)" d="M 242.579901 376.22 
L 267.077881 376.22 
L 267.077881 254.300608 
L 242.579901 254.300608 
z
" style="fill:#2981f6;opacity:0.5;stroke:#000000;stroke-linejoin:miter;"/>
   </g>
   <g id="patch_34">
    <path clip-path="url(#p6358e1a612)" d="M 267.077881 376.22 
L 291.575862 376.22 
L 291.575862 217.73882 
L 267.077881 217.73882 
z
" style="fill:#2981f6;opacity:0.5;stroke:#000000;stroke-linejoin:miter;"/>
   </g>
   <g id="patch_35">
    <path clip-path="url(#p6358e1a612)" d="M 291.575862 376.22 
L 316.073842 376.22 
L 316.073842 205.730078 
L 291.575862 205.730078 
z
" style="fill:#2981f6;opacity:0.5;stroke:#000000;stroke-linejoin:miter;"/>
   </g>
   <g id="patch_36">
    <path clip-path="url(#p6358e1a612)" d="M 316.073842 376.22 
L 340.571822 376.22 
L 340.571822 200.373404 
L 316.073842 200.373404 
z
" style="fill:#2981f6;opacity:0.5;stroke:#000000;stroke-linejoin:miter;"/>
   </g>
   <g id="patch_37">
    <path clip-path="url(#p6358e1a612)" d="M 340.571822 376.22 
L 365.069802 376.22 
L 365.069802 220.763789 
L 340.571822 220.763789 
z
" style="fill:#2981f6;opacity:0.5;stroke:#000000;stroke-linejoin:miter;"/>
   </g>
   <g id="patch_38">
    <path clip-path="url(#p6358e1a612)" d="M 365.069802 376.22 
L 389.567782 376.22 
L 389.567782 255.167957 
L 365.069802 255.167957 
z
" style="fill:#2981f6;opacity:0.5;stroke:#000000;stroke-linejoin:miter;"/>
   </g>
   <g id="patch_39">
    <path clip-path="url(#p6358e1a612)" d="M 389.567782 376.22 
L 414.065763 376.22 
L 414.065763 282.648692 
L 389.567782 282.648692 
z
" style="fill:#2981f6;opacity:0.5;stroke:#000000;stroke-linejoin:miter;"/>
   </g>
   <g id="patch_40">
    <path clip-path="url(#p6358e1a612)" d="M 414.065763 376.22 
L 438.563743 376.22 
L 438.563743 313.811821 
L 414.065763 313.811821 
z
" style="fill:#2981f6;opacity:0.5;stroke:#000000;stroke-linejoin:miter;"/>
   </g>
   <g id="patch_41">
    <path clip-path="url(#p6358e1a612)" d="M 438.563743 376.22 
L 463.061723 376.22 
L 463.061723 336.942497 
L 438.563743 336.942497 
z
" style="fill:#2981f6;opacity:0.5;stroke:#000000;stroke-linejoin:miter;"/>
   </g>
   <g id="patch_42">
    <path clip-path="url(#p6358e1a612)" d="M 463.061723 376.22 
L 487.559703 376.22 
L 487.559703 351.505157 
L 463.061723 351.505157 
z
" style="fill:#2981f6;opacity:0.5;stroke:#000000;stroke-linejoin:miter;"/>
   </g>
   <g id="patch_43">
    <path clip-path="url(#p6358e1a612)" d="M 487.559703 376.22 
L 512.057683 376.22 
L 512.057683 362.828825 
L 487.559703 362.828825 
z
" style="fill:#2981f6;opacity:0.5;stroke:#000000;stroke-linejoin:miter;"/>
   </g>
   <g id="patch_44">
    <path clip-path="url(#p6358e1a612)" d="M 512.057683 376.22 
L 536.555664 376.22 
L 536.555664 369.280183 
L 512.057683 369.280183 
z
" style="fill:#2981f6;opacity:0.5;stroke:#000000;stroke-linejoin:miter;"/>
   </g>
   <g id="patch_45">
    <path clip-path="url(#p6358e1a612)" d="M 536.555664 376.22 
L 561.053644 376.22 
L 561.053644 372.619528 
L 536.555664 372.619528 
z
" style="fill:#2981f6;opacity:0.5;stroke:#000000;stroke-linejoin:miter;"/>
   </g>
   <g id="patch_46">
    <path clip-path="url(#p6358e1a612)" d="M 561.053644 376.22 
L 585.551624 376.22 
L 585.551624 374.701371 
L 561.053644 374.701371 
z
" style="fill:#2981f6;opacity:0.5;stroke:#000000;stroke-linejoin:miter;"/>
   </g>
   <g id="patch_47">
    <path clip-path="url(#p6358e1a612)" d="M 585.551624 376.22 
L 610.049604 376.22 
L 610.049604 375.586129 
L 585.551624 375.586129 
z
" style="fill:#2981f6;opacity:0.5;stroke:#000000;stroke-linejoin:miter;"/>
   </g>
   <g id="patch_48">
    <path clip-path="url(#p6358e1a612)" d="M 610.049604 376.22 
L 634.547585 376.22 
L 634.547585 375.951705 
L 610.049604 375.951705 
z
" style="fill:#2981f6;opacity:0.5;stroke:#000000;stroke-linejoin:miter;"/>
   </g>
   <g id="patch_49">
    <path clip-path="url(#p6358e1a612)" d="M 634.547585 376.22 
L 659.045565 376.22 
L 659.045565 376.131934 
L 634.547585 376.131934 
z
" style="fill:#2981f6;opacity:0.5;stroke:#000000;stroke-linejoin:miter;"/>
   </g>
   <g id="patch_50">
    <path clip-path="url(#p6358e1a612)" d="M 659.045565 376.22 
L 683.543545 376.22 
L 683.543545 376.183135 
L 659.045565 376.183135 
z
" style="fill:#2981f6;opacity:0.5;stroke:#000000;stroke-linejoin:miter;"/>
   </g>
   <g id="patch_51">
    <path clip-path="url(#p6358e1a612)" d="M 683.543545 376.22 
L 708.041525 376.22 
L 708.041525 376.212832 
L 683.543545 376.212832 
z
" style="fill:#2981f6;opacity:0.5;stroke:#000000;stroke-linejoin:miter;"/>
   </g>
   <g id="patch_52">
    <path clip-path="url(#p6358e1a612)" d="M 708.041525 376.22 
L 732.539505 376.22 
L 732.539505 376.217952 
L 708.041525 376.217952 
z
" style="fill:#2981f6;opacity:0.5;stroke:#000000;stroke-linejoin:miter;"/>
   </g>
   <g id="patch_53">
    <path clip-path="url(#p6358e1a612)" d="M 120.09 376.22 
L 138.353036 376.22 
L 138.353036 251.886741 
L 120.09 251.886741 
z
" style="fill:#2adddd;opacity:0.5;stroke:#000000;stroke-linejoin:miter;"/>
   </g>
   <g id="patch_54">
    <path clip-path="url(#p6358e1a612)" d="M 138.353036 376.22 
L 156.616072 376.22 
L 156.616072 274.037364 
L 138.353036 274.037364 
z
" style="fill:#2adddd;opacity:0.5;stroke:#000000;stroke-linejoin:miter;"/>
   </g>
   <g id="patch_55">
    <path clip-path="url(#p6358e1a612)" d="M 156.616072 376.22 
L 174.879108 376.22 
L 174.879108 254.123999 
L 156.616072 254.123999 
z
" style="fill:#2adddd;opacity:0.5;stroke:#000000;stroke-linejoin:miter;"/>
   </g>
   <g id="patch_56">
    <path clip-path="url(#p6358e1a612)" d="M 174.879108 376.22 
L 193.142144 376.22 
L 193.142144 204.2725 
L 174.879108 204.2725 
z
" style="fill:#2adddd;opacity:0.5;stroke:#000000;stroke-linejoin:miter;"/>
   </g>
   <g id="patch_57">
    <path clip-path="url(#p6358e1a612)" d="M 193.142144 376.22 
L 211.40518 376.22 
L 211.40518 132.176421 
L 193.142144 132.176421 
z
" style="fill:#2adddd;opacity:0.5;stroke:#000000;stroke-linejoin:miter;"/>
   </g>
   <g id="patch_58">
    <path clip-path="url(#p6358e1a612)" d="M 211.40518 376.22 
L 229.668217 376.22 
L 229.668217 194.811473 
L 211.40518 194.811473 
z
" style="fill:#2adddd;opacity:0.5;stroke:#000000;stroke-linejoin:miter;"/>
   </g>
   <g id="patch_59">
    <path clip-path="url(#p6358e1a612)" d="M 229.668217 376.22 
L 247.931253 376.22 
L 247.931253 206.037251 
L 229.668217 206.037251 
z
" style="fill:#2adddd;opacity:0.5;stroke:#000000;stroke-linejoin:miter;"/>
   </g>
   <g id="patch_60">
    <path clip-path="url(#p6358e1a612)" d="M 247.931253 376.22 
L 266.194289 376.22 
L 266.194289 205.318279 
L 247.931253 205.318279 
z
" style="fill:#2adddd;opacity:0.5;stroke:#000000;stroke-linejoin:miter;"/>
   </g>
   <g id="patch_61">
    <path clip-path="url(#p6358e1a612)" d="M 266.194289 376.22 
L 284.457325 376.22 
L 284.457325 224.03608 
L 266.194289 224.03608 
z
" style="fill:#2adddd;opacity:0.5;stroke:#000000;stroke-linejoin:miter;"/>
   </g>
   <g id="patch_62">
    <path clip-path="url(#p6358e1a612)" d="M 284.457325 376.22 
L 302.720361 376.22 
L 302.720361 276.235133 
L 284.457325 276.235133 
z
" style="fill:#2adddd;opacity:0.5;stroke:#000000;stroke-linejoin:miter;"/>
   </g>
   <g id="patch_63">
    <path clip-path="url(#p6358e1a612)" d="M 302.720361 376.22 
L 320.983397 376.22 
L 320.983397 300.504547 
L 302.720361 300.504547 
z
" style="fill:#2adddd;opacity:0.5;stroke:#000000;stroke-linejoin:miter;"/>
   </g>
   <g id="patch_64">
    <path clip-path="url(#p6358e1a612)" d="M 320.983397 376.22 
L 339.246433 376.22 
L 339.246433 318.406696 
L 320.983397 318.406696 
z
" style="fill:#2adddd;opacity:0.5;stroke:#000000;stroke-linejoin:miter;"/>
   </g>
   <g id="patch_65">
    <path clip-path="url(#p6358e1a612)" d="M 339.246433 376.22 
L 357.509469 376.22 
L 357.509469 337.794449 
L 339.246433 337.794449 
z
" style="fill:#2adddd;opacity:0.5;stroke:#000000;stroke-linejoin:miter;"/>
   </g>
   <g id="patch_66">
    <path clip-path="url(#p6358e1a612)" d="M 357.509469 376.22 
L 375.772505 376.22 
L 375.772505 354.626308 
L 357.509469 354.626308 
z
" style="fill:#2adddd;opacity:0.5;stroke:#000000;stroke-linejoin:miter;"/>
   </g>
   <g id="patch_67">
    <path clip-path="url(#p6358e1a612)" d="M 375.772505 376.22 
L 394.035541 376.22 
L 394.035541 362.618071 
L 375.772505 362.618071 
z
" style="fill:#2adddd;opacity:0.5;stroke:#000000;stroke-linejoin:miter;"/>
   </g>
   <g id="patch_68">
    <path clip-path="url(#p6358e1a612)" d="M 394.035541 376.22 
L 412.298577 376.22 
L 412.298577 367.759815 
L 394.035541 367.759815 
z
" style="fill:#2adddd;opacity:0.5;stroke:#000000;stroke-linejoin:miter;"/>
   </g>
   <g id="patch_69">
    <path clip-path="url(#p6358e1a612)" d="M 412.298577 376.22 
L 430.561614 376.22 
L 430.561614 371.470423 
L 412.298577 371.470423 
z
" style="fill:#2adddd;opacity:0.5;stroke:#000000;stroke-linejoin:miter;"/>
   </g>
   <g id="patch_70">
    <path clip-path="url(#p6358e1a612)" d="M 430.561614 376.22 
L 448.82465 376.22 
L 448.82465 374.2224 
L 430.561614 374.2224 
z
" style="fill:#2adddd;opacity:0.5;stroke:#000000;stroke-linejoin:miter;"/>
   </g>
   <g id="patch_71">
    <path clip-path="url(#p6358e1a612)" d="M 448.82465 376.22 
L 467.087686 376.22 
L 467.087686 375.103414 
L 448.82465 375.103414 
z
" style="fill:#2adddd;opacity:0.5;stroke:#000000;stroke-linejoin:miter;"/>
   </g>
   <g id="patch_72">
    <path clip-path="url(#p6358e1a612)" d="M 467.087686 376.22 
L 485.350722 376.22 
L 485.350722 375.64809 
L 467.087686 375.64809 
z
" style="fill:#2adddd;opacity:0.5;stroke:#000000;stroke-linejoin:miter;"/>
   </g>
   <g id="patch_73">
    <path clip-path="url(#p6358e1a612)" d="M 485.350722 376.22 
L 503.613758 376.22 
L 503.613758 375.998044 
L 485.350722 375.998044 
z
" style="fill:#2adddd;opacity:0.5;stroke:#000000;stroke-linejoin:miter;"/>
   </g>
   <g id="patch_74">
    <path clip-path="url(#p6358e1a612)" d="M 503.613758 376.22 
L 521.876794 376.22 
L 521.876794 376.128767 
L 503.613758 376.128767 
z
" style="fill:#2adddd;opacity:0.5;stroke:#000000;stroke-linejoin:miter;"/>
   </g>
   <g id="patch_75">
    <path clip-path="url(#p6358e1a612)" d="M 521.876794 376.22 
L 540.13983 376.22 
L 540.13983 376.187319 
L 521.876794 376.187319 
z
" style="fill:#2adddd;opacity:0.5;stroke:#000000;stroke-linejoin:miter;"/>
   </g>
   <g id="patch_76">
    <path clip-path="url(#p6358e1a612)" d="M 540.13983 376.22 
L 558.402866 376.22 
L 558.402866 376.205021 
L 540.13983 376.205021 
z
" style="fill:#2adddd;opacity:0.5;stroke:#000000;stroke-linejoin:miter;"/>
   </g>
   <g id="patch_77">
    <path clip-path="url(#p6358e1a612)" d="M 558.402866 376.22 
L 576.665902 376.22 
L 576.665902 376.215915 
L 558.402866 376.215915 
z
" style="fill:#2adddd;opacity:0.5;stroke:#000000;stroke-linejoin:miter;"/>
   </g>
   <g id="patch_78">
    <path clip-path="url(#p6358e1a612)" d="M 120.09 376.22 
L 147.055215 376.22 
L 147.055215 359.28537 
L 120.09 359.28537 
z
" style="fill:#80ffb4;opacity:0.5;stroke:#000000;stroke-linejoin:miter;"/>
   </g>
   <g id="patch_79">
    <path clip-path="url(#p6358e1a612)" d="M 147.055215 376.22 
L 174.020431 376.22 
L 174.020431 342.000376 
L 147.055215 342.000376 
z
" style="fill:#80ffb4;opacity:0.5;stroke:#000000;stroke-linejoin:miter;"/>
   </g>
   <g id="patch_80">
    <path clip-path="url(#p6358e1a612)" d="M 174.020431 376.22 
L 200.985646 376.22 
L 200.985646 301.747035 
L 174.020431 301.747035 
z
" style="fill:#80ffb4;opacity:0.5;stroke:#000000;stroke-linejoin:miter;"/>
   </g>
   <g id="patch_81">
    <path clip-path="url(#p6358e1a612)" d="M 200.985646 376.22 
L 227.950861 376.22 
L 227.950861 255.800141 
L 200.985646 255.800141 
z
" style="fill:#80ffb4;opacity:0.5;stroke:#000000;stroke-linejoin:miter;"/>
   </g>
   <g id="patch_82">
    <path clip-path="url(#p6358e1a612)" d="M 227.950861 376.22 
L 254.916076 376.22 
L 254.916076 224.629438 
L 227.950861 224.629438 
z
" style="fill:#80ffb4;opacity:0.5;stroke:#000000;stroke-linejoin:miter;"/>
   </g>
   <g id="patch_83">
    <path clip-path="url(#p6358e1a612)" d="M 254.916076 376.22 
L 281.881292 376.22 
L 281.881292 192.212058 
L 254.916076 192.212058 
z
" style="fill:#80ffb4;opacity:0.5;stroke:#000000;stroke-linejoin:miter;"/>
   </g>
   <g id="patch_84">
    <path clip-path="url(#p6358e1a612)" d="M 281.881292 376.22 
L 308.846507 376.22 
L 308.846507 209.663198 
L 281.881292 209.663198 
z
" style="fill:#80ffb4;opacity:0.5;stroke:#000000;stroke-linejoin:miter;"/>
   </g>
   <g id="patch_85">
    <path clip-path="url(#p6358e1a612)" d="M 308.846507 376.22 
L 335.811722 376.22 
L 335.811722 226.778548 
L 308.846507 226.778548 
z
" style="fill:#80ffb4;opacity:0.5;stroke:#000000;stroke-linejoin:miter;"/>
   </g>
   <g id="patch_86">
    <path clip-path="url(#p6358e1a612)" d="M 335.811722 376.22 
L 362.776938 376.22 
L 362.776938 258.446814 
L 335.811722 258.446814 
z
" style="fill:#80ffb4;opacity:0.5;stroke:#000000;stroke-linejoin:miter;"/>
   </g>
   <g id="patch_87">
    <path clip-path="url(#p6358e1a612)" d="M 362.776938 376.22 
L 389.742153 376.22 
L 389.742153 298.249812 
L 362.776938 298.249812 
z
" style="fill:#80ffb4;opacity:0.5;stroke:#000000;stroke-linejoin:miter;"/>
   </g>
   <g id="patch_88">
    <path clip-path="url(#p6358e1a612)" d="M 389.742153 376.22 
L 416.707368 376.22 
L 416.707368 325.737033 
L 389.742153 325.737033 
z
" style="fill:#80ffb4;opacity:0.5;stroke:#000000;stroke-linejoin:miter;"/>
   </g>
   <g id="patch_89">
    <path clip-path="url(#p6358e1a612)" d="M 416.707368 376.22 
L 443.672584 376.22 
L 443.672584 349.857615 
L 416.707368 349.857615 
z
" style="fill:#80ffb4;opacity:0.5;stroke:#000000;stroke-linejoin:miter;"/>
   </g>
   <g id="patch_90">
    <path clip-path="url(#p6358e1a612)" d="M 443.672584 376.22 
L 470.637799 376.22 
L 470.637799 363.083696 
L 443.672584 363.083696 
z
" style="fill:#80ffb4;opacity:0.5;stroke:#000000;stroke-linejoin:miter;"/>
   </g>
   <g id="patch_91">
    <path clip-path="url(#p6358e1a612)" d="M 470.637799 376.22 
L 497.603014 376.22 
L 497.603014 369.956886 
L 470.637799 369.956886 
z
" style="fill:#80ffb4;opacity:0.5;stroke:#000000;stroke-linejoin:miter;"/>
   </g>
   <g id="patch_92">
    <path clip-path="url(#p6358e1a612)" d="M 497.603014 376.22 
L 524.568229 376.22 
L 524.568229 373.571286 
L 497.603014 373.571286 
z
" style="fill:#80ffb4;opacity:0.5;stroke:#000000;stroke-linejoin:miter;"/>
   </g>
   <g id="patch_93">
    <path clip-path="url(#p6358e1a612)" d="M 524.568229 376.22 
L 551.533445 376.22 
L 551.533445 374.957292 
L 524.568229 374.957292 
z
" style="fill:#80ffb4;opacity:0.5;stroke:#000000;stroke-linejoin:miter;"/>
   </g>
   <g id="patch_94">
    <path clip-path="url(#p6358e1a612)" d="M 551.533445 376.22 
L 578.49866 376.22 
L 578.49866 375.672593 
L 551.533445 375.672593 
z
" style="fill:#80ffb4;opacity:0.5;stroke:#000000;stroke-linejoin:miter;"/>
   </g>
   <g id="patch_95">
    <path clip-path="url(#p6358e1a612)" d="M 578.49866 376.22 
L 605.463875 376.22 
L 605.463875 375.976028 
L 578.49866 375.976028 
z
" style="fill:#80ffb4;opacity:0.5;stroke:#000000;stroke-linejoin:miter;"/>
   </g>
   <g id="patch_96">
    <path clip-path="url(#p6358e1a612)" d="M 605.463875 376.22 
L 632.429091 376.22 
L 632.429091 376.113025 
L 605.463875 376.113025 
z
" style="fill:#80ffb4;opacity:0.5;stroke:#000000;stroke-linejoin:miter;"/>
   </g>
   <g id="patch_97">
    <path clip-path="url(#p6358e1a612)" d="M 632.429091 376.22 
L 659.394306 376.22 
L 659.394306 376.184439 
L 632.429091 376.184439 
z
" style="fill:#80ffb4;opacity:0.5;stroke:#000000;stroke-linejoin:miter;"/>
   </g>
   <g id="patch_98">
    <path clip-path="url(#p6358e1a612)" d="M 659.394306 376.22 
L 686.359521 376.22 
L 686.359521 376.202219 
L 659.394306 376.202219 
z
" style="fill:#80ffb4;opacity:0.5;stroke:#000000;stroke-linejoin:miter;"/>
   </g>
   <g id="patch_99">
    <path clip-path="url(#p6358e1a612)" d="M 686.359521 376.22 
L 713.324737 376.22 
L 713.324737 376.215336 
L 686.359521 376.215336 
z
" style="fill:#80ffb4;opacity:0.5;stroke:#000000;stroke-linejoin:miter;"/>
   </g>
   <g id="patch_100">
    <path clip-path="url(#p6358e1a612)" d="M 713.324737 376.22 
L 740.289952 376.22 
L 740.289952 376.217377 
L 713.324737 376.217377 
z
" style="fill:#80ffb4;opacity:0.5;stroke:#000000;stroke-linejoin:miter;"/>
   </g>
   <g id="patch_101">
    <path clip-path="url(#p6358e1a612)" d="M 740.289952 376.22 
L 767.255167 376.22 
L 767.255167 376.218543 
L 740.289952 376.218543 
z
" style="fill:#80ffb4;opacity:0.5;stroke:#000000;stroke-linejoin:miter;"/>
   </g>
   <g id="patch_102">
    <path clip-path="url(#p6358e1a612)" d="M 767.255167 376.22 
L 794.220382 376.22 
L 794.220382 376.219417 
L 767.255167 376.219417 
z
" style="fill:#80ffb4;opacity:0.5;stroke:#000000;stroke-linejoin:miter;"/>
   </g>
   <g id="patch_103">
    <path clip-path="url(#p6358e1a612)" d="M 120.09 376.22 
L 139.710398 376.22 
L 139.710398 202.548068 
L 120.09 202.548068 
z
" style="fill:#d4dd80;opacity:0.5;stroke:#000000;stroke-linejoin:miter;"/>
   </g>
   <g id="patch_104">
    <path clip-path="url(#p6358e1a612)" d="M 139.710398 376.22 
L 159.330796 376.22 
L 159.330796 243.898448 
L 139.710398 243.898448 
z
" style="fill:#d4dd80;opacity:0.5;stroke:#000000;stroke-linejoin:miter;"/>
   </g>
   <g id="patch_105">
    <path clip-path="url(#p6358e1a612)" d="M 159.330796 376.22 
L 178.951194 376.22 
L 178.951194 225.18323 
L 159.330796 225.18323 
z
" style="fill:#d4dd80;opacity:0.5;stroke:#000000;stroke-linejoin:miter;"/>
   </g>
   <g id="patch_106">
    <path clip-path="url(#p6358e1a612)" d="M 178.951194 376.22 
L 198.571592 376.22 
L 198.571592 150.261212 
L 178.951194 150.261212 
z
" style="fill:#d4dd80;opacity:0.5;stroke:#000000;stroke-linejoin:miter;"/>
   </g>
   <g id="patch_107">
    <path clip-path="url(#p6358e1a612)" d="M 198.571592 376.22 
L 218.19199 376.22 
L 218.19199 156.999662 
L 198.571592 156.999662 
z
" style="fill:#d4dd80;opacity:0.5;stroke:#000000;stroke-linejoin:miter;"/>
   </g>
   <g id="patch_108">
    <path clip-path="url(#p6358e1a612)" d="M 218.19199 376.22 
L 237.812388 376.22 
L 237.812388 207.282572 
L 218.19199 207.282572 
z
" style="fill:#d4dd80;opacity:0.5;stroke:#000000;stroke-linejoin:miter;"/>
   </g>
   <g id="patch_109">
    <path clip-path="url(#p6358e1a612)" d="M 237.812388 376.22 
L 257.432786 376.22 
L 257.432786 222.928843 
L 237.812388 222.928843 
z
" style="fill:#d4dd80;opacity:0.5;stroke:#000000;stroke-linejoin:miter;"/>
   </g>
   <g id="patch_110">
    <path clip-path="url(#p6358e1a612)" d="M 257.432786 376.22 
L 277.053184 376.22 
L 277.053184 231.599625 
L 257.432786 231.599625 
z
" style="fill:#d4dd80;opacity:0.5;stroke:#000000;stroke-linejoin:miter;"/>
   </g>
   <g id="patch_111">
    <path clip-path="url(#p6358e1a612)" d="M 277.053184 376.22 
L 296.673582 376.22 
L 296.673582 283.579083 
L 277.053184 283.579083 
z
" style="fill:#d4dd80;opacity:0.5;stroke:#000000;stroke-linejoin:miter;"/>
   </g>
   <g id="patch_112">
    <path clip-path="url(#p6358e1a612)" d="M 296.673582 376.22 
L 316.29398 376.22 
L 316.29398 311.646885 
L 296.673582 311.646885 
z
" style="fill:#d4dd80;opacity:0.5;stroke:#000000;stroke-linejoin:miter;"/>
   </g>
   <g id="patch_113">
    <path clip-path="url(#p6358e1a612)" d="M 316.29398 376.22 
L 335.914378 376.22 
L 335.914378 328.975046 
L 316.29398 328.975046 
z
" style="fill:#d4dd80;opacity:0.5;stroke:#000000;stroke-linejoin:miter;"/>
   </g>
   <g id="patch_114">
    <path clip-path="url(#p6358e1a612)" d="M 335.914378 376.22 
L 355.534776 376.22 
L 355.534776 345.200095 
L 335.914378 345.200095 
z
" style="fill:#d4dd80;opacity:0.5;stroke:#000000;stroke-linejoin:miter;"/>
   </g>
   <g id="patch_115">
    <path clip-path="url(#p6358e1a612)" d="M 355.534776 376.22 
L 375.155174 376.22 
L 375.155174 359.982806 
L 355.534776 359.982806 
z
" style="fill:#d4dd80;opacity:0.5;stroke:#000000;stroke-linejoin:miter;"/>
   </g>
   <g id="patch_116">
    <path clip-path="url(#p6358e1a612)" d="M 375.155174 376.22 
L 394.775572 376.22 
L 394.775572 366.552062 
L 375.155174 366.552062 
z
" style="fill:#d4dd80;opacity:0.5;stroke:#000000;stroke-linejoin:miter;"/>
   </g>
   <g id="patch_117">
    <path clip-path="url(#p6358e1a612)" d="M 394.775572 376.22 
L 414.39597 376.22 
L 414.39597 370.564979 
L 394.775572 370.564979 
z
" style="fill:#d4dd80;opacity:0.5;stroke:#000000;stroke-linejoin:miter;"/>
   </g>
   <g id="patch_118">
    <path clip-path="url(#p6358e1a612)" d="M 414.39597 376.22 
L 434.016368 376.22 
L 434.016368 373.29135 
L 414.39597 373.29135 
z
" style="fill:#d4dd80;opacity:0.5;stroke:#000000;stroke-linejoin:miter;"/>
   </g>
   <g id="patch_119">
    <path clip-path="url(#p6358e1a612)" d="M 434.016368 376.22 
L 453.636766 376.22 
L 453.636766 374.857652 
L 434.016368 374.857652 
z
" style="fill:#d4dd80;opacity:0.5;stroke:#000000;stroke-linejoin:miter;"/>
   </g>
   <g id="patch_120">
    <path clip-path="url(#p6358e1a612)" d="M 453.636766 376.22 
L 473.257164 376.22 
L 473.257164 375.524796 
L 453.636766 375.524796 
z
" style="fill:#d4dd80;opacity:0.5;stroke:#000000;stroke-linejoin:miter;"/>
   </g>
   <g id="patch_121">
    <path clip-path="url(#p6358e1a612)" d="M 473.257164 376.22 
L 492.877562 376.22 
L 492.877562 375.872817 
L 473.257164 375.872817 
z
" style="fill:#d4dd80;opacity:0.5;stroke:#000000;stroke-linejoin:miter;"/>
   </g>
   <g id="patch_122">
    <path clip-path="url(#p6358e1a612)" d="M 492.877562 376.22 
L 512.49796 376.22 
L 512.49796 376.082634 
L 492.877562 376.082634 
z
" style="fill:#d4dd80;opacity:0.5;stroke:#000000;stroke-linejoin:miter;"/>
   </g>
   <g id="patch_123">
    <path clip-path="url(#p6358e1a612)" d="M 512.49796 376.22 
L 532.118358 376.22 
L 532.118358 376.1643 
L 512.49796 376.1643 
z
" style="fill:#d4dd80;opacity:0.5;stroke:#000000;stroke-linejoin:miter;"/>
   </g>
   <g id="patch_124">
    <path clip-path="url(#p6358e1a612)" d="M 532.118358 376.22 
L 551.738756 376.22 
L 551.738756 376.197385 
L 532.118358 376.197385 
z
" style="fill:#d4dd80;opacity:0.5;stroke:#000000;stroke-linejoin:miter;"/>
   </g>
   <g id="patch_125">
    <path clip-path="url(#p6358e1a612)" d="M 551.738756 376.22 
L 571.359154 376.22 
L 571.359154 376.209111 
L 551.738756 376.209111 
z
" style="fill:#d4dd80;opacity:0.5;stroke:#000000;stroke-linejoin:miter;"/>
   </g>
   <g id="patch_126">
    <path clip-path="url(#p6358e1a612)" d="M 571.359154 376.22 
L 590.979552 376.22 
L 590.979552 376.217068 
L 571.359154 376.217068 
z
" style="fill:#d4dd80;opacity:0.5;stroke:#000000;stroke-linejoin:miter;"/>
   </g>
   <g id="patch_127">
    <path clip-path="url(#p6358e1a612)" d="M 590.979552 376.22 
L 610.59995 376.22 
L 610.59995 376.217906 
L 590.979552 376.217906 
z
" style="fill:#d4dd80;opacity:0.5;stroke:#000000;stroke-linejoin:miter;"/>
   </g>
   <g id="patch_128">
    <path clip-path="url(#p6358e1a612)" d="M 120.09 376.22 
L 149.739096 376.22 
L 149.739096 373.567159 
L 120.09 373.567159 
z
" style="fill:#ff7e41;opacity:0.5;stroke:#000000;stroke-linejoin:miter;"/>
   </g>
   <g id="patch_129">
    <path clip-path="url(#p6358e1a612)" d="M 149.739096 376.22 
L 179.388193 376.22 
L 179.388193 366.490654 
L 149.739096 366.490654 
z
" style="fill:#ff7e41;opacity:0.5;stroke:#000000;stroke-linejoin:miter;"/>
   </g>
   <g id="patch_130">
    <path clip-path="url(#p6358e1a612)" d="M 179.388193 376.22 
L 209.037289 376.22 
L 209.037289 349.240136 
L 179.388193 349.240136 
z
" style="fill:#ff7e41;opacity:0.5;stroke:#000000;stroke-linejoin:miter;"/>
   </g>
   <g id="patch_131">
    <path clip-path="url(#p6358e1a612)" d="M 209.037289 376.22 
L 238.686386 376.22 
L 238.686386 318.830966 
L 209.037289 318.830966 
z
" style="fill:#ff7e41;opacity:0.5;stroke:#000000;stroke-linejoin:miter;"/>
   </g>
   <g id="patch_132">
    <path clip-path="url(#p6358e1a612)" d="M 238.686386 376.22 
L 268.335482 376.22 
L 268.335482 281.075146 
L 238.686386 281.075146 
z
" style="fill:#ff7e41;opacity:0.5;stroke:#000000;stroke-linejoin:miter;"/>
   </g>
   <g id="patch_133">
    <path clip-path="url(#p6358e1a612)" d="M 268.335482 376.22 
L 297.984579 376.22 
L 297.984579 240.326324 
L 268.335482 240.326324 
z
" style="fill:#ff7e41;opacity:0.5;stroke:#000000;stroke-linejoin:miter;"/>
   </g>
   <g id="patch_134">
    <path clip-path="url(#p6358e1a612)" d="M 297.984579 376.22 
L 327.633675 376.22 
L 327.633675 218.708574 
L 297.984579 218.708574 
z
" style="fill:#ff7e41;opacity:0.5;stroke:#000000;stroke-linejoin:miter;"/>
   </g>
   <g id="patch_135">
    <path clip-path="url(#p6358e1a612)" d="M 327.633675 376.22 
L 357.282772 376.22 
L 357.282772 213.856442 
L 327.633675 213.856442 
z
" style="fill:#ff7e41;opacity:0.5;stroke:#000000;stroke-linejoin:miter;"/>
   </g>
   <g id="patch_136">
    <path clip-path="url(#p6358e1a612)" d="M 357.282772 376.22 
L 386.931868 376.22 
L 386.931868 235.955434 
L 357.282772 235.955434 
z
" style="fill:#ff7e41;opacity:0.5;stroke:#000000;stroke-linejoin:miter;"/>
   </g>
   <g id="patch_137">
    <path clip-path="url(#p6358e1a612)" d="M 386.931868 376.22 
L 416.580965 376.22 
L 416.580965 264.293853 
L 386.931868 264.293853 
z
" style="fill:#ff7e41;opacity:0.5;stroke:#000000;stroke-linejoin:miter;"/>
   </g>
   <g id="patch_138">
    <path clip-path="url(#p6358e1a612)" d="M 416.580965 376.22 
L 446.230061 376.22 
L 446.230061 297.967214 
L 416.580965 297.967214 
z
" style="fill:#ff7e41;opacity:0.5;stroke:#000000;stroke-linejoin:miter;"/>
   </g>
   <g id="patch_139">
    <path clip-path="url(#p6358e1a612)" d="M 446.230061 376.22 
L 475.879158 376.22 
L 475.879158 325.659796 
L 446.230061 325.659796 
z
" style="fill:#ff7e41;opacity:0.5;stroke:#000000;stroke-linejoin:miter;"/>
   </g>
   <g id="patch_140">
    <path clip-path="url(#p6358e1a612)" d="M 475.879158 376.22 
L 505.528254 376.22 
L 505.528254 346.637981 
L 475.879158 346.637981 
z
" style="fill:#ff7e41;opacity:0.5;stroke:#000000;stroke-linejoin:miter;"/>
   </g>
   <g id="patch_141">
    <path clip-path="url(#p6358e1a612)" d="M 505.528254 376.22 
L 535.17735 376.22 
L 535.17735 360.968649 
L 505.528254 360.968649 
z
" style="fill:#ff7e41;opacity:0.5;stroke:#000000;stroke-linejoin:miter;"/>
   </g>
   <g id="patch_142">
    <path clip-path="url(#p6358e1a612)" d="M 535.17735 376.22 
L 564.826447 376.22 
L 564.826447 368.666955 
L 535.17735 368.666955 
z
" style="fill:#ff7e41;opacity:0.5;stroke:#000000;stroke-linejoin:miter;"/>
   </g>
   <g id="patch_143">
    <path clip-path="url(#p6358e1a612)" d="M 564.826447 376.22 
L 594.475543 376.22 
L 594.475543 373.062926 
L 564.826447 373.062926 
z
" style="fill:#ff7e41;opacity:0.5;stroke:#000000;stroke-linejoin:miter;"/>
   </g>
   <g id="patch_144">
    <path clip-path="url(#p6358e1a612)" d="M 594.475543 376.22 
L 624.12464 376.22 
L 624.12464 374.853607 
L 594.475543 374.853607 
z
" style="fill:#ff7e41;opacity:0.5;stroke:#000000;stroke-linejoin:miter;"/>
   </g>
   <g id="patch_145">
    <path clip-path="url(#p6358e1a612)" d="M 624.12464 376.22 
L 653.773736 376.22 
L 653.773736 375.692254 
L 624.12464 375.692254 
z
" style="fill:#ff7e41;opacity:0.5;stroke:#000000;stroke-linejoin:miter;"/>
   </g>
   <g id="patch_146">
    <path clip-path="url(#p6358e1a612)" d="M 653.773736 376.22 
L 683.422833 376.22 
L 683.422833 376.036595 
L 653.773736 376.036595 
z
" style="fill:#ff7e41;opacity:0.5;stroke:#000000;stroke-linejoin:miter;"/>
   </g>
   <g id="patch_147">
    <path clip-path="url(#p6358e1a612)" d="M 683.422833 376.22 
L 713.071929 376.22 
L 713.071929 376.161478 
L 683.422833 376.161478 
z
" style="fill:#ff7e41;opacity:0.5;stroke:#000000;stroke-linejoin:miter;"/>
   </g>
   <g id="patch_148">
    <path clip-path="url(#p6358e1a612)" d="M 713.071929 376.22 
L 742.721026 376.22 
L 742.721026 376.200144 
L 713.071929 376.200144 
z
" style="fill:#ff7e41;opacity:0.5;stroke:#000000;stroke-linejoin:miter;"/>
   </g>
   <g id="patch_149">
    <path clip-path="url(#p6358e1a612)" d="M 742.721026 376.22 
L 772.370122 376.22 
L 772.370122 376.213207 
L 742.721026 376.213207 
z
" style="fill:#ff7e41;opacity:0.5;stroke:#000000;stroke-linejoin:miter;"/>
   </g>
   <g id="patch_150">
    <path clip-path="url(#p6358e1a612)" d="M 772.370122 376.22 
L 802.019219 376.22 
L 802.019219 376.219477 
L 772.370122 376.219477 
z
" style="fill:#ff7e41;opacity:0.5;stroke:#000000;stroke-linejoin:miter;"/>
   </g>
   <g id="patch_151">
    <path clip-path="url(#p6358e1a612)" d="M 802.019219 376.22 
L 831.668315 376.22 
L 831.668315 376.219477 
L 802.019219 376.219477 
z
" style="fill:#ff7e41;opacity:0.5;stroke:#000000;stroke-linejoin:miter;"/>
   </g>
   <g id="patch_152">
    <path clip-path="url(#p6358e1a612)" d="M 831.668315 376.22 
L 861.317411 376.22 
L 861.317411 376.219477 
L 831.668315 376.219477 
z
" style="fill:#ff7e41;opacity:0.5;stroke:#000000;stroke-linejoin:miter;"/>
   </g>
   <g id="line2d_1">
    <path clip-path="url(#p6358e1a612)" d="M 407.53969 376.22 
L 407.53969 329.72 
L 407.53969 283.22 
L 407.53969 236.72 
L 407.53969 190.22 
L 407.53969 143.72 
L 407.53969 97.22 
L 407.53969 50.72 
L 407.53969 4.22 
L 407.53969 -1 
" style="fill:none;stroke:#8000ff;stroke-linecap:square;stroke-width:2.0;"/>
   </g>
   <g id="line2d_2">
    <path clip-path="url(#p6358e1a612)" d="M 325.259001 376.22 
L 325.259001 329.72 
L 325.259001 283.22 
L 325.259001 236.72 
L 325.259001 190.22 
L 325.259001 143.72 
L 325.259001 97.22 
L 325.259001 50.72 
L 325.259001 4.22 
L 325.259001 -1 
" style="fill:none;stroke:#2981f6;stroke-linecap:square;stroke-width:2.0;"/>
   </g>
   <g id="line2d_3">
    <path clip-path="url(#p6358e1a612)" d="M 229.201988 376.22 
L 229.201988 329.72 
L 229.201988 283.22 
L 229.201988 236.72 
L 229.201988 190.22 
L 229.201988 143.72 
L 229.201988 97.22 
L 229.201988 50.72 
L 229.201988 4.22 
L 229.201988 -1 
" style="fill:none;stroke:#2adddd;stroke-linecap:square;stroke-width:2.0;"/>
   </g>
   <g id="line2d_4">
    <path clip-path="url(#p6358e1a612)" d="M 288.57386 376.22 
L 288.57386 329.72 
L 288.57386 283.22 
L 288.57386 236.72 
L 288.57386 190.22 
L 288.57386 143.72 
L 288.57386 97.22 
L 288.57386 50.72 
L 288.57386 4.22 
L 288.57386 -1 
" style="fill:none;stroke:#80ffb4;stroke-linecap:square;stroke-width:2.0;"/>
   </g>
   <g id="line2d_5">
    <path clip-path="url(#p6358e1a612)" d="M 218.004764 376.22 
L 218.004764 329.72 
L 218.004764 283.22 
L 218.004764 236.72 
L 218.004764 190.22 
L 218.004764 143.72 
L 218.004764 97.22 
L 218.004764 50.72 
L 218.004764 4.22 
L 218.004764 -1 
" style="fill:none;stroke:#d4dd80;stroke-linecap:square;stroke-width:2.0;"/>
   </g>
   <g id="line2d_6">
    <path clip-path="url(#p6358e1a612)" d="M 341.999234 376.22 
L 341.999234 329.72 
L 341.999234 283.22 
L 341.999234 236.72 
L 341.999234 190.22 
L 341.999234 143.72 
L 341.999234 97.22 
L 341.999234 50.72 
L 341.999234 4.22 
L 341.999234 -1 
" style="fill:none;stroke:#ff7e41;stroke-linecap:square;stroke-width:2.0;"/>
   </g>
   <g id="patch_153">
    <path d="M 120.09 41.42 
L 678.09 41.42 
" style="fill:none;stroke:#000000;stroke-linecap:square;stroke-linejoin:miter;stroke-width:3.0;"/>
   </g>
   <g id="patch_154">
    <path d="M 678.09 376.22 
L 678.09 41.42 
" style="fill:none;stroke:#000000;stroke-linecap:square;stroke-linejoin:miter;stroke-width:3.0;"/>
   </g>
   <g id="patch_155">
    <path d="M 120.09 376.22 
L 678.09 376.22 
" style="fill:none;stroke:#000000;stroke-linecap:square;stroke-linejoin:miter;stroke-width:3.0;"/>
   </g>
   <g id="patch_156">
    <path d="M 120.09 376.22 
L 120.09 41.42 
" style="fill:none;stroke:#000000;stroke-linecap:square;stroke-linejoin:miter;stroke-width:3.0;"/>
   </g>
   <g id="matplotlib.axis_1">
    <g id="xtick_1">
     <g id="line2d_7">
      <defs>
       <path d="M 0 0 
L 0 -4 
" id="m509f06a644" style="stroke:#000000;stroke-width:0.5;"/>
      </defs>
      <g>
       <use style="stroke:#000000;stroke-width:0.5;" x="120.09" xlink:href="#m509f06a644" y="376.2199999999999"/>
      </g>
     </g>
     <g id="line2d_8">
      <defs>
       <path d="M 0 0 
L 0 4 
" id="m931de295b3" style="stroke:#000000;stroke-width:0.5;"/>
      </defs>
      <g>
       <use style="stroke:#000000;stroke-width:0.5;" x="120.09" xlink:href="#m931de295b3" y="41.419999999999845"/>
      </g>
     </g>
     <g id="text_1">
      <!-- 0 -->
      <defs>
       <path d="M 31.78125 66.40625 
Q 24.171875 66.40625 20.328125 58.90625 
Q 16.5 51.421875 16.5 36.375 
Q 16.5 21.390625 20.328125 13.890625 
Q 24.171875 6.390625 31.78125 6.390625 
Q 39.453125 6.390625 43.28125 13.890625 
Q 47.125 21.390625 47.125 36.375 
Q 47.125 51.421875 43.28125 58.90625 
Q 39.453125 66.40625 31.78125 66.40625 
M 31.78125 74.21875 
Q 44.046875 74.21875 50.515625 64.515625 
Q 56.984375 54.828125 56.984375 36.375 
Q 56.984375 17.96875 50.515625 8.265625 
Q 44.046875 -1.421875 31.78125 -1.421875 
Q 19.53125 -1.421875 13.0625 8.265625 
Q 6.59375 17.96875 6.59375 36.375 
Q 6.59375 54.828125 13.0625 64.515625 
Q 19.53125 74.21875 31.78125 74.21875 
" id="BitstreamVeraSans-Roman-30"/>
      </defs>
      <g transform="translate(109.91 405.53499999999985)scale(0.32 -0.32)">
       <use xlink:href="#BitstreamVeraSans-Roman-30"/>
      </g>
     </g>
    </g>
    <g id="xtick_2">
     <g id="line2d_9">
      <g>
       <use style="stroke:#000000;stroke-width:0.5;" x="197.0555172413793" xlink:href="#m509f06a644" y="376.2199999999999"/>
      </g>
     </g>
     <g id="line2d_10">
      <g>
       <use style="stroke:#000000;stroke-width:0.5;" x="197.0555172413793" xlink:href="#m931de295b3" y="41.419999999999845"/>
      </g>
     </g>
     <g id="text_2">
      <!-- 1 -->
      <defs>
       <path d="M 12.40625 8.296875 
L 28.515625 8.296875 
L 28.515625 63.921875 
L 10.984375 60.40625 
L 10.984375 69.390625 
L 28.421875 72.90625 
L 38.28125 72.90625 
L 38.28125 8.296875 
L 54.390625 8.296875 
L 54.390625 0 
L 12.40625 0 
z
" id="BitstreamVeraSans-Roman-31"/>
      </defs>
      <g transform="translate(186.8755172413793 405.53499999999985)scale(0.32 -0.32)">
       <use xlink:href="#BitstreamVeraSans-Roman-31"/>
      </g>
     </g>
    </g>
    <g id="xtick_3">
     <g id="line2d_11">
      <g>
       <use style="stroke:#000000;stroke-width:0.5;" x="274.02103448275864" xlink:href="#m509f06a644" y="376.2199999999999"/>
      </g>
     </g>
     <g id="line2d_12">
      <g>
       <use style="stroke:#000000;stroke-width:0.5;" x="274.02103448275864" xlink:href="#m931de295b3" y="41.419999999999845"/>
      </g>
     </g>
     <g id="text_3">
      <!-- 2 -->
      <defs>
       <path d="M 19.1875 8.296875 
L 53.609375 8.296875 
L 53.609375 0 
L 7.328125 0 
L 7.328125 8.296875 
Q 12.9375 14.109375 22.625 23.890625 
Q 32.328125 33.6875 34.8125 36.53125 
Q 39.546875 41.84375 41.421875 45.53125 
Q 43.3125 49.21875 43.3125 52.78125 
Q 43.3125 58.59375 39.234375 62.25 
Q 35.15625 65.921875 28.609375 65.921875 
Q 23.96875 65.921875 18.8125 64.3125 
Q 13.671875 62.703125 7.8125 59.421875 
L 7.8125 69.390625 
Q 13.765625 71.78125 18.9375 73 
Q 24.125 74.21875 28.421875 74.21875 
Q 39.75 74.21875 46.484375 68.546875 
Q 53.21875 62.890625 53.21875 53.421875 
Q 53.21875 48.921875 51.53125 44.890625 
Q 49.859375 40.875 45.40625 35.40625 
Q 44.1875 33.984375 37.640625 27.21875 
Q 31.109375 20.453125 19.1875 8.296875 
" id="BitstreamVeraSans-Roman-32"/>
      </defs>
      <g transform="translate(263.84103448275863 405.53499999999985)scale(0.32 -0.32)">
       <use xlink:href="#BitstreamVeraSans-Roman-32"/>
      </g>
     </g>
    </g>
    <g id="xtick_4">
     <g id="line2d_13">
      <g>
       <use style="stroke:#000000;stroke-width:0.5;" x="350.98655172413794" xlink:href="#m509f06a644" y="376.2199999999999"/>
      </g>
     </g>
     <g id="line2d_14">
      <g>
       <use style="stroke:#000000;stroke-width:0.5;" x="350.98655172413794" xlink:href="#m931de295b3" y="41.419999999999845"/>
      </g>
     </g>
     <g id="text_4">
      <!-- 3 -->
      <defs>
       <path d="M 40.578125 39.3125 
Q 47.65625 37.796875 51.625 33 
Q 55.609375 28.21875 55.609375 21.1875 
Q 55.609375 10.40625 48.1875 4.484375 
Q 40.765625 -1.421875 27.09375 -1.421875 
Q 22.515625 -1.421875 17.65625 -0.515625 
Q 12.796875 0.390625 7.625 2.203125 
L 7.625 11.71875 
Q 11.71875 9.328125 16.59375 8.109375 
Q 21.484375 6.890625 26.8125 6.890625 
Q 36.078125 6.890625 40.9375 10.546875 
Q 45.796875 14.203125 45.796875 21.1875 
Q 45.796875 27.640625 41.28125 31.265625 
Q 36.765625 34.90625 28.71875 34.90625 
L 20.21875 34.90625 
L 20.21875 43.015625 
L 29.109375 43.015625 
Q 36.375 43.015625 40.234375 45.921875 
Q 44.09375 48.828125 44.09375 54.296875 
Q 44.09375 59.90625 40.109375 62.90625 
Q 36.140625 65.921875 28.71875 65.921875 
Q 24.65625 65.921875 20.015625 65.03125 
Q 15.375 64.15625 9.8125 62.3125 
L 9.8125 71.09375 
Q 15.4375 72.65625 20.34375 73.4375 
Q 25.25 74.21875 29.59375 74.21875 
Q 40.828125 74.21875 47.359375 69.109375 
Q 53.90625 64.015625 53.90625 55.328125 
Q 53.90625 49.265625 50.4375 45.09375 
Q 46.96875 40.921875 40.578125 39.3125 
" id="BitstreamVeraSans-Roman-33"/>
      </defs>
      <g transform="translate(340.80655172413793 405.53499999999985)scale(0.32 -0.32)">
       <use xlink:href="#BitstreamVeraSans-Roman-33"/>
      </g>
     </g>
    </g>
    <g id="xtick_5">
     <g id="line2d_15">
      <g>
       <use style="stroke:#000000;stroke-width:0.5;" x="427.95206896551724" xlink:href="#m509f06a644" y="376.2199999999999"/>
      </g>
     </g>
     <g id="line2d_16">
      <g>
       <use style="stroke:#000000;stroke-width:0.5;" x="427.95206896551724" xlink:href="#m931de295b3" y="41.419999999999845"/>
      </g>
     </g>
     <g id="text_5">
      <!-- 4 -->
      <defs>
       <path d="M 37.796875 64.3125 
L 12.890625 25.390625 
L 37.796875 25.390625 
z
M 35.203125 72.90625 
L 47.609375 72.90625 
L 47.609375 25.390625 
L 58.015625 25.390625 
L 58.015625 17.1875 
L 47.609375 17.1875 
L 47.609375 0 
L 37.796875 0 
L 37.796875 17.1875 
L 4.890625 17.1875 
L 4.890625 26.703125 
z
" id="BitstreamVeraSans-Roman-34"/>
      </defs>
      <g transform="translate(417.77206896551724 405.53499999999985)scale(0.32 -0.32)">
       <use xlink:href="#BitstreamVeraSans-Roman-34"/>
      </g>
     </g>
    </g>
    <g id="xtick_6">
     <g id="line2d_17">
      <g>
       <use style="stroke:#000000;stroke-width:0.5;" x="504.91758620689654" xlink:href="#m509f06a644" y="376.2199999999999"/>
      </g>
     </g>
     <g id="line2d_18">
      <g>
       <use style="stroke:#000000;stroke-width:0.5;" x="504.91758620689654" xlink:href="#m931de295b3" y="41.419999999999845"/>
      </g>
     </g>
     <g id="text_6">
      <!-- 5 -->
      <defs>
       <path d="M 10.796875 72.90625 
L 49.515625 72.90625 
L 49.515625 64.59375 
L 19.828125 64.59375 
L 19.828125 46.734375 
Q 21.96875 47.46875 24.109375 47.828125 
Q 26.265625 48.1875 28.421875 48.1875 
Q 40.625 48.1875 47.75 41.5 
Q 54.890625 34.8125 54.890625 23.390625 
Q 54.890625 11.625 47.5625 5.09375 
Q 40.234375 -1.421875 26.90625 -1.421875 
Q 22.3125 -1.421875 17.546875 -0.640625 
Q 12.796875 0.140625 7.71875 1.703125 
L 7.71875 11.625 
Q 12.109375 9.234375 16.796875 8.0625 
Q 21.484375 6.890625 26.703125 6.890625 
Q 35.15625 6.890625 40.078125 11.328125 
Q 45.015625 15.765625 45.015625 23.390625 
Q 45.015625 31 40.078125 35.4375 
Q 35.15625 39.890625 26.703125 39.890625 
Q 22.75 39.890625 18.8125 39.015625 
Q 14.890625 38.140625 10.796875 36.28125 
z
" id="BitstreamVeraSans-Roman-35"/>
      </defs>
      <g transform="translate(494.73758620689654 405.53499999999985)scale(0.32 -0.32)">
       <use xlink:href="#BitstreamVeraSans-Roman-35"/>
      </g>
     </g>
    </g>
    <g id="xtick_7">
     <g id="line2d_19">
      <g>
       <use style="stroke:#000000;stroke-width:0.5;" x="581.8831034482758" xlink:href="#m509f06a644" y="376.2199999999999"/>
      </g>
     </g>
     <g id="line2d_20">
      <g>
       <use style="stroke:#000000;stroke-width:0.5;" x="581.8831034482758" xlink:href="#m931de295b3" y="41.419999999999845"/>
      </g>
     </g>
     <g id="text_7">
      <!-- 6 -->
      <defs>
       <path d="M 33.015625 40.375 
Q 26.375 40.375 22.484375 35.828125 
Q 18.609375 31.296875 18.609375 23.390625 
Q 18.609375 15.53125 22.484375 10.953125 
Q 26.375 6.390625 33.015625 6.390625 
Q 39.65625 6.390625 43.53125 10.953125 
Q 47.40625 15.53125 47.40625 23.390625 
Q 47.40625 31.296875 43.53125 35.828125 
Q 39.65625 40.375 33.015625 40.375 
M 52.59375 71.296875 
L 52.59375 62.3125 
Q 48.875 64.0625 45.09375 64.984375 
Q 41.3125 65.921875 37.59375 65.921875 
Q 27.828125 65.921875 22.671875 59.328125 
Q 17.53125 52.734375 16.796875 39.40625 
Q 19.671875 43.65625 24.015625 45.921875 
Q 28.375 48.1875 33.59375 48.1875 
Q 44.578125 48.1875 50.953125 41.515625 
Q 57.328125 34.859375 57.328125 23.390625 
Q 57.328125 12.15625 50.6875 5.359375 
Q 44.046875 -1.421875 33.015625 -1.421875 
Q 20.359375 -1.421875 13.671875 8.265625 
Q 6.984375 17.96875 6.984375 36.375 
Q 6.984375 53.65625 15.1875 63.9375 
Q 23.390625 74.21875 37.203125 74.21875 
Q 40.921875 74.21875 44.703125 73.484375 
Q 48.484375 72.75 52.59375 71.296875 
" id="BitstreamVeraSans-Roman-36"/>
      </defs>
      <g transform="translate(571.7031034482759 405.53499999999985)scale(0.32 -0.32)">
       <use xlink:href="#BitstreamVeraSans-Roman-36"/>
      </g>
     </g>
    </g>
    <g id="xtick_8">
     <g id="line2d_21">
      <g>
       <use style="stroke:#000000;stroke-width:0.5;" x="658.8486206896551" xlink:href="#m509f06a644" y="376.2199999999999"/>
      </g>
     </g>
     <g id="line2d_22">
      <g>
       <use style="stroke:#000000;stroke-width:0.5;" x="658.8486206896551" xlink:href="#m931de295b3" y="41.419999999999845"/>
      </g>
     </g>
     <g id="text_8">
      <!-- 7 -->
      <defs>
       <path d="M 8.203125 72.90625 
L 55.078125 72.90625 
L 55.078125 68.703125 
L 28.609375 0 
L 18.3125 0 
L 43.21875 64.59375 
L 8.203125 64.59375 
z
" id="BitstreamVeraSans-Roman-37"/>
      </defs>
      <g transform="translate(648.6686206896552 405.53499999999985)scale(0.32 -0.32)">
       <use xlink:href="#BitstreamVeraSans-Roman-37"/>
      </g>
     </g>
    </g>
    <g id="text_9">
     <!-- ${\rm WCN}_{\rm BB}^{(2)}$ -->
     <defs>
      <path d="M 4.984375 0 
L 4.984375 2.6875 
Q 4.984375 2.9375 5.171875 3.21875 
L 20.703125 20.40625 
Q 24.21875 24.21875 26.40625 26.796875 
Q 28.609375 29.390625 30.75 32.765625 
Q 32.90625 36.140625 34.15625 39.625 
Q 35.40625 43.109375 35.40625 47.015625 
Q 35.40625 51.125 33.890625 54.859375 
Q 32.375 58.59375 29.375 60.84375 
Q 26.375 63.09375 22.125 63.09375 
Q 17.78125 63.09375 14.3125 60.46875 
Q 10.84375 57.859375 9.421875 53.71875 
Q 9.8125 53.8125 10.5 53.8125 
Q 12.75 53.8125 14.328125 52.296875 
Q 15.921875 50.78125 15.921875 48.390625 
Q 15.921875 46.09375 14.328125 44.5 
Q 12.75 42.921875 10.5 42.921875 
Q 8.15625 42.921875 6.5625 44.546875 
Q 4.984375 46.1875 4.984375 48.390625 
Q 4.984375 52.15625 6.390625 55.4375 
Q 7.8125 58.734375 10.46875 61.296875 
Q 13.140625 63.875 16.484375 65.234375 
Q 19.828125 66.609375 23.578125 66.609375 
Q 29.296875 66.609375 34.21875 64.1875 
Q 39.15625 61.765625 42.03125 57.34375 
Q 44.921875 52.9375 44.921875 47.015625 
Q 44.921875 42.671875 43.015625 38.765625 
Q 41.109375 34.859375 38.125 31.65625 
Q 35.15625 28.46875 30.515625 24.40625 
Q 25.875 20.359375 24.421875 19 
L 13.09375 8.109375 
L 22.703125 8.109375 
Q 29.78125 8.109375 34.546875 8.21875 
Q 39.3125 8.34375 39.59375 8.59375 
Q 40.765625 9.859375 42 17.828125 
L 44.921875 17.828125 
L 42.09375 0 
z
" id="Cmr10-32"/>
      <path d="M 3.078125 0 
L 3.078125 3.515625 
Q 13.375 3.515625 13.375 9.421875 
L 13.375 64.203125 
Q 10.109375 64.796875 3.078125 64.796875 
L 3.078125 68.3125 
L 22.21875 68.3125 
Q 22.703125 68.3125 22.90625 67.921875 
L 58.296875 15.828125 
L 58.296875 58.890625 
Q 58.296875 64.796875 48 64.796875 
L 48 68.3125 
L 71.78125 68.3125 
L 71.78125 64.796875 
Q 61.53125 64.796875 61.53125 58.890625 
L 61.53125 0.875 
Q 61.53125 0.59375 61.140625 0.296875 
Q 60.75 0 60.5 0 
L 59.28125 0 
Q 58.796875 0 58.59375 0.390625 
L 16.609375 62.203125 
L 16.609375 9.421875 
Q 16.609375 3.515625 26.90625 3.515625 
L 26.90625 0 
z
" id="Cmr10-4e"/>
      <path d="M 31 -24.8125 
Q 25.4375 -20.40625 21.40625 -14.71875 
Q 17.390625 -9.03125 14.8125 -2.578125 
Q 12.25 3.859375 10.984375 10.890625 
Q 9.71875 17.921875 9.71875 25 
Q 9.71875 32.171875 10.984375 39.203125 
Q 12.25 46.234375 14.859375 52.734375 
Q 17.484375 59.234375 21.53125 64.890625 
Q 25.59375 70.5625 31 74.8125 
Q 31 75 31.5 75 
L 32.421875 75 
Q 32.71875 75 32.953125 74.734375 
Q 33.203125 74.46875 33.203125 74.125 
Q 33.203125 73.6875 33.015625 73.484375 
Q 28.125 68.703125 24.875 63.234375 
Q 21.625 57.765625 19.640625 51.578125 
Q 17.671875 45.40625 16.796875 38.78125 
Q 15.921875 32.171875 15.921875 25 
Q 15.921875 -6.78125 32.90625 -23.296875 
Q 33.203125 -23.578125 33.203125 -24.125 
Q 33.203125 -24.359375 32.9375 -24.671875 
Q 32.671875 -25 32.421875 -25 
L 31.5 -25 
Q 31 -25 31 -24.8125 
" id="Cmr10-28"/>
      <path d="M 6.5 -25 
Q 5.609375 -25 5.609375 -24.125 
Q 5.609375 -23.6875 5.8125 -23.484375 
Q 22.90625 -6.78125 22.90625 25 
Q 22.90625 56.78125 6 73.296875 
Q 5.609375 73.53125 5.609375 74.125 
Q 5.609375 74.46875 5.875 74.734375 
Q 6.15625 75 6.5 75 
L 7.421875 75 
Q 7.71875 75 7.90625 74.8125 
Q 15.09375 69.140625 19.875 61.03125 
Q 24.65625 52.9375 26.875 43.75 
Q 29.109375 34.578125 29.109375 25 
Q 29.109375 17.921875 27.90625 11.0625 
Q 26.703125 4.203125 24.09375 -2.453125 
Q 21.484375 -9.125 17.484375 -14.765625 
Q 13.484375 -20.40625 7.90625 -24.8125 
Q 7.71875 -25 7.421875 -25 
z
" id="Cmr10-29"/>
      <path d="M 3.421875 0 
L 3.421875 3.515625 
Q 13.71875 3.515625 13.71875 6.6875 
L 13.71875 61.625 
Q 13.71875 64.796875 3.421875 64.796875 
L 3.421875 68.3125 
L 40.1875 68.3125 
Q 45.265625 68.3125 50.4375 66.328125 
Q 55.609375 64.359375 59 60.46875 
Q 62.40625 56.59375 62.40625 51.3125 
Q 62.40625 45.21875 57.390625 41.09375 
Q 52.390625 36.96875 45.703125 35.6875 
Q 50.046875 35.6875 54.640625 33.296875 
Q 59.234375 30.90625 62.15625 26.90625 
Q 65.09375 22.90625 65.09375 18.40625 
Q 65.09375 12.9375 61.84375 8.734375 
Q 58.59375 4.546875 53.421875 2.265625 
Q 48.25 0 43.015625 0 
z
M 22.40625 6.6875 
Q 22.40625 4.546875 23.625 4.03125 
Q 24.859375 3.515625 27.484375 3.515625 
L 40.1875 3.515625 
Q 44.09375 3.515625 47.4375 5.5625 
Q 50.78125 7.625 52.734375 11.0625 
Q 54.6875 14.5 54.6875 18.40625 
Q 54.6875 22.21875 53.078125 25.859375 
Q 51.46875 29.5 48.453125 31.84375 
Q 45.453125 34.1875 41.609375 34.1875 
L 22.40625 34.1875 
z
M 22.40625 36.8125 
L 37.40625 36.8125 
Q 40.4375 36.8125 43.09375 37.90625 
Q 45.75 39.015625 47.875 41.09375 
Q 50 43.171875 51.140625 45.78125 
Q 52.296875 48.390625 52.296875 51.3125 
Q 52.296875 53.90625 51.4375 56.296875 
Q 50.59375 58.6875 48.921875 60.640625 
Q 47.265625 62.59375 45.015625 63.6875 
Q 42.78125 64.796875 40.1875 64.796875 
L 27.484375 64.796875 
Q 25.6875 64.796875 24.6875 64.640625 
Q 23.6875 64.5 23.046875 63.796875 
Q 22.40625 63.09375 22.40625 61.625 
z
" id="Cmr10-42"/>
      <path d="M 22.796875 10.6875 
Q 26.21875 6.34375 31.34375 3.828125 
Q 36.46875 1.3125 42 1.3125 
Q 46.625 1.3125 50.578125 3.140625 
Q 54.546875 4.984375 57.5 8.25 
Q 60.453125 11.53125 62.03125 15.671875 
Q 63.625 19.828125 63.625 24.421875 
Q 63.625 25.203125 64.5 25.203125 
L 65.71875 25.203125 
Q 66.5 25.203125 66.5 24.21875 
Q 66.5 19 64.5 14.140625 
Q 62.5 9.28125 58.828125 5.59375 
Q 55.171875 1.90625 50.40625 -0.140625 
Q 45.65625 -2.203125 40.484375 -2.203125 
Q 33.296875 -2.203125 26.875 0.703125 
Q 20.453125 3.609375 15.6875 8.65625 
Q 10.9375 13.71875 8.265625 20.359375 
Q 5.609375 27 5.609375 34.1875 
Q 5.609375 41.359375 8.265625 48 
Q 10.9375 54.640625 15.6875 59.71875 
Q 20.453125 64.796875 26.875 67.65625 
Q 33.296875 70.515625 40.484375 70.515625 
Q 45.609375 70.515625 50.296875 68.28125 
Q 54.984375 66.0625 58.5 62.015625 
L 64.3125 70.21875 
Q 64.890625 70.515625 64.984375 70.515625 
L 65.71875 70.515625 
Q 66.015625 70.515625 66.25 70.265625 
Q 66.5 70.015625 66.5 69.671875 
L 66.5 42.671875 
Q 66.5 41.796875 65.71875 41.796875 
L 63.921875 41.796875 
Q 62.984375 41.796875 62.984375 42.671875 
Q 62.984375 45.5625 61.828125 49.125 
Q 60.6875 52.6875 58.90625 55.875 
Q 57.125 59.078125 54.78125 61.53125 
Q 49.171875 67 41.890625 67 
Q 36.375 67 31.3125 64.5 
Q 26.265625 62.015625 22.796875 57.625 
Q 19.140625 52.9375 17.71875 46.953125 
Q 16.3125 40.96875 16.3125 34.1875 
Q 16.3125 27.390625 17.71875 21.375 
Q 19.140625 15.375 22.796875 10.6875 
" id="Cmr10-43"/>
      <path d="M 31.109375 -1.125 
L 10.6875 61.625 
Q 9.90625 63.71875 7.65625 64.25 
Q 5.421875 64.796875 1.8125 64.796875 
L 1.8125 68.3125 
L 28.609375 68.3125 
L 28.609375 64.796875 
Q 20.21875 64.796875 20.21875 62.109375 
L 20.21875 61.625 
L 36.1875 12.40625 
L 49.8125 54.5 
L 47.515625 61.625 
Q 46.734375 63.71875 44.484375 64.25 
Q 42.234375 64.796875 38.625 64.796875 
L 38.625 68.3125 
L 65.375 68.3125 
L 65.375 64.796875 
Q 56.890625 64.796875 56.890625 62.109375 
Q 56.890625 61.96875 56.984375 61.671875 
Q 57.078125 61.375 57.078125 61.28125 
L 73 12.40625 
L 87.984375 58.890625 
Q 88.09375 59.1875 88.09375 59.8125 
Q 88.09375 62.453125 85.296875 63.625 
Q 82.515625 64.796875 79.5 64.796875 
L 79.5 68.3125 
L 100.875 68.3125 
L 100.875 64.796875 
Q 92.96875 64.796875 91.109375 58.890625 
L 71.578125 -1.125 
Q 71.234375 -2.203125 70.125 -2.203125 
L 69.390625 -2.203125 
Q 68.265625 -2.203125 67.921875 -1.125 
L 51.421875 49.8125 
L 34.8125 -1.125 
Q 34.46875 -2.203125 33.296875 -2.203125 
L 32.625 -2.203125 
Q 31.453125 -2.203125 31.109375 -1.125 
" id="Cmr10-57"/>
     </defs>
     <g transform="translate(305.49 471.7899999999999)scale(0.52 -0.52)">
      <use transform="translate(0.0 0.190625)" xlink:href="#Cmr10-57"/>
      <use transform="translate(102.685546875 0.190625)" xlink:href="#Cmr10-43"/>
      <use transform="translate(174.90234375 0.190625)" xlink:href="#Cmr10-4e"/>
      <use transform="translate(254.366484375 52.5)scale(0.7)" xlink:href="#Cmr10-28"/>
      <use transform="translate(281.539335938 52.5)scale(0.7)" xlink:href="#Cmr10-32"/>
      <use transform="translate(316.539335938 52.5)scale(0.7)" xlink:href="#Cmr10-29"/>
      <use transform="translate(254.366484375 -25.31875)scale(0.7)" xlink:href="#Cmr10-42"/>
      <use transform="translate(303.92703125 -25.31875)scale(0.7)" xlink:href="#Cmr10-42"/>
     </g>
    </g>
   </g>
   <g id="matplotlib.axis_2">
    <g id="ytick_1">
     <g id="line2d_23">
      <defs>
       <path d="M 0 0 
L 4 0 
" id="m44b6e29753" style="stroke:#000000;stroke-width:0.5;"/>
      </defs>
      <g>
       <use style="stroke:#000000;stroke-width:0.5;" x="120.09" xlink:href="#m44b6e29753" y="376.2199999999999"/>
      </g>
     </g>
     <g id="line2d_24">
      <defs>
       <path d="M 0 0 
L -4 0 
" id="m805459a493" style="stroke:#000000;stroke-width:0.5;"/>
      </defs>
      <g>
       <use style="stroke:#000000;stroke-width:0.5;" x="678.09" xlink:href="#m805459a493" y="376.2199999999999"/>
      </g>
     </g>
     <g id="text_10">
      <!-- 0.0 -->
      <defs>
       <path d="M 10.6875 12.40625 
L 21 12.40625 
L 21 0 
L 10.6875 0 
z
" id="BitstreamVeraSans-Roman-2e"/>
      </defs>
      <g transform="translate(64.2 385.0499999999999)scale(0.32 -0.32)">
       <use xlink:href="#BitstreamVeraSans-Roman-30"/>
       <use x="63.623046875" xlink:href="#BitstreamVeraSans-Roman-2e"/>
       <use x="95.41015625" xlink:href="#BitstreamVeraSans-Roman-30"/>
      </g>
     </g>
    </g>
    <g id="ytick_2">
     <g id="line2d_25">
      <g>
       <use style="stroke:#000000;stroke-width:0.5;" x="120.09" xlink:href="#m44b6e29753" y="334.3699999999999"/>
      </g>
     </g>
     <g id="line2d_26">
      <g>
       <use style="stroke:#000000;stroke-width:0.5;" x="678.09" xlink:href="#m805459a493" y="334.3699999999999"/>
      </g>
     </g>
     <g id="text_11">
      <!-- 0.1 -->
      <g transform="translate(64.2 343.1999999999999)scale(0.32 -0.32)">
       <use xlink:href="#BitstreamVeraSans-Roman-30"/>
       <use x="63.623046875" xlink:href="#BitstreamVeraSans-Roman-2e"/>
       <use x="95.41015625" xlink:href="#BitstreamVeraSans-Roman-31"/>
      </g>
     </g>
    </g>
    <g id="ytick_3">
     <g id="line2d_27">
      <g>
       <use style="stroke:#000000;stroke-width:0.5;" x="120.09" xlink:href="#m44b6e29753" y="292.51999999999987"/>
      </g>
     </g>
     <g id="line2d_28">
      <g>
       <use style="stroke:#000000;stroke-width:0.5;" x="678.09" xlink:href="#m805459a493" y="292.51999999999987"/>
      </g>
     </g>
     <g id="text_12">
      <!-- 0.2 -->
      <g transform="translate(64.2 301.3499999999999)scale(0.32 -0.32)">
       <use xlink:href="#BitstreamVeraSans-Roman-30"/>
       <use x="63.623046875" xlink:href="#BitstreamVeraSans-Roman-2e"/>
       <use x="95.41015625" xlink:href="#BitstreamVeraSans-Roman-32"/>
      </g>
     </g>
    </g>
    <g id="ytick_4">
     <g id="line2d_29">
      <g>
       <use style="stroke:#000000;stroke-width:0.5;" x="120.09" xlink:href="#m44b6e29753" y="250.66999999999985"/>
      </g>
     </g>
     <g id="line2d_30">
      <g>
       <use style="stroke:#000000;stroke-width:0.5;" x="678.09" xlink:href="#m805459a493" y="250.66999999999985"/>
      </g>
     </g>
     <g id="text_13">
      <!-- 0.3 -->
      <g transform="translate(64.2 259.4999999999999)scale(0.32 -0.32)">
       <use xlink:href="#BitstreamVeraSans-Roman-30"/>
       <use x="63.623046875" xlink:href="#BitstreamVeraSans-Roman-2e"/>
       <use x="95.41015625" xlink:href="#BitstreamVeraSans-Roman-33"/>
      </g>
     </g>
    </g>
    <g id="ytick_5">
     <g id="line2d_31">
      <g>
       <use style="stroke:#000000;stroke-width:0.5;" x="120.09" xlink:href="#m44b6e29753" y="208.81999999999985"/>
      </g>
     </g>
     <g id="line2d_32">
      <g>
       <use style="stroke:#000000;stroke-width:0.5;" x="678.09" xlink:href="#m805459a493" y="208.81999999999985"/>
      </g>
     </g>
     <g id="text_14">
      <!-- 0.4 -->
      <g transform="translate(64.2 217.6499999999998)scale(0.32 -0.32)">
       <use xlink:href="#BitstreamVeraSans-Roman-30"/>
       <use x="63.623046875" xlink:href="#BitstreamVeraSans-Roman-2e"/>
       <use x="95.41015625" xlink:href="#BitstreamVeraSans-Roman-34"/>
      </g>
     </g>
    </g>
    <g id="ytick_6">
     <g id="line2d_33">
      <g>
       <use style="stroke:#000000;stroke-width:0.5;" x="120.09" xlink:href="#m44b6e29753" y="166.96999999999986"/>
      </g>
     </g>
     <g id="line2d_34">
      <g>
       <use style="stroke:#000000;stroke-width:0.5;" x="678.09" xlink:href="#m805459a493" y="166.96999999999986"/>
      </g>
     </g>
     <g id="text_15">
      <!-- 0.5 -->
      <g transform="translate(64.2 175.79999999999978)scale(0.32 -0.32)">
       <use xlink:href="#BitstreamVeraSans-Roman-30"/>
       <use x="63.623046875" xlink:href="#BitstreamVeraSans-Roman-2e"/>
       <use x="95.41015625" xlink:href="#BitstreamVeraSans-Roman-35"/>
      </g>
     </g>
    </g>
    <g id="ytick_7">
     <g id="line2d_35">
      <g>
       <use style="stroke:#000000;stroke-width:0.5;" x="120.09" xlink:href="#m44b6e29753" y="125.1199999999998"/>
      </g>
     </g>
     <g id="line2d_36">
      <g>
       <use style="stroke:#000000;stroke-width:0.5;" x="678.09" xlink:href="#m805459a493" y="125.1199999999998"/>
      </g>
     </g>
     <g id="text_16">
      <!-- 0.6 -->
      <g transform="translate(64.2 133.94999999999976)scale(0.32 -0.32)">
       <use xlink:href="#BitstreamVeraSans-Roman-30"/>
       <use x="63.623046875" xlink:href="#BitstreamVeraSans-Roman-2e"/>
       <use x="95.41015625" xlink:href="#BitstreamVeraSans-Roman-36"/>
      </g>
     </g>
    </g>
    <g id="ytick_8">
     <g id="line2d_37">
      <g>
       <use style="stroke:#000000;stroke-width:0.5;" x="120.09" xlink:href="#m44b6e29753" y="83.26999999999981"/>
      </g>
     </g>
     <g id="line2d_38">
      <g>
       <use style="stroke:#000000;stroke-width:0.5;" x="678.09" xlink:href="#m805459a493" y="83.26999999999981"/>
      </g>
     </g>
     <g id="text_17">
      <!-- 0.7 -->
      <g transform="translate(64.2 92.09999999999974)scale(0.32 -0.32)">
       <use xlink:href="#BitstreamVeraSans-Roman-30"/>
       <use x="63.623046875" xlink:href="#BitstreamVeraSans-Roman-2e"/>
       <use x="95.41015625" xlink:href="#BitstreamVeraSans-Roman-37"/>
      </g>
     </g>
    </g>
    <g id="ytick_9">
     <g id="line2d_39">
      <g>
       <use style="stroke:#000000;stroke-width:0.5;" x="120.09" xlink:href="#m44b6e29753" y="41.41999999999979"/>
      </g>
     </g>
     <g id="line2d_40">
      <g>
       <use style="stroke:#000000;stroke-width:0.5;" x="678.09" xlink:href="#m805459a493" y="41.41999999999979"/>
      </g>
     </g>
     <g id="text_18">
      <!-- 0.8 -->
      <defs>
       <path d="M 31.78125 34.625 
Q 24.75 34.625 20.71875 30.859375 
Q 16.703125 27.09375 16.703125 20.515625 
Q 16.703125 13.921875 20.71875 10.15625 
Q 24.75 6.390625 31.78125 6.390625 
Q 38.8125 6.390625 42.859375 10.171875 
Q 46.921875 13.96875 46.921875 20.515625 
Q 46.921875 27.09375 42.890625 30.859375 
Q 38.875 34.625 31.78125 34.625 
M 21.921875 38.8125 
Q 15.578125 40.375 12.03125 44.71875 
Q 8.5 49.078125 8.5 55.328125 
Q 8.5 64.0625 14.71875 69.140625 
Q 20.953125 74.21875 31.78125 74.21875 
Q 42.671875 74.21875 48.875 69.140625 
Q 55.078125 64.0625 55.078125 55.328125 
Q 55.078125 49.078125 51.53125 44.71875 
Q 48 40.375 41.703125 38.8125 
Q 48.828125 37.15625 52.796875 32.3125 
Q 56.78125 27.484375 56.78125 20.515625 
Q 56.78125 9.90625 50.3125 4.234375 
Q 43.84375 -1.421875 31.78125 -1.421875 
Q 19.734375 -1.421875 13.25 4.234375 
Q 6.78125 9.90625 6.78125 20.515625 
Q 6.78125 27.484375 10.78125 32.3125 
Q 14.796875 37.15625 21.921875 38.8125 
M 18.3125 54.390625 
Q 18.3125 48.734375 21.84375 45.5625 
Q 25.390625 42.390625 31.78125 42.390625 
Q 38.140625 42.390625 41.71875 45.5625 
Q 45.3125 48.734375 45.3125 54.390625 
Q 45.3125 60.0625 41.71875 63.234375 
Q 38.140625 66.40625 31.78125 66.40625 
Q 25.390625 66.40625 21.84375 63.234375 
Q 18.3125 60.0625 18.3125 54.390625 
" id="BitstreamVeraSans-Roman-38"/>
      </defs>
      <g transform="translate(64.2 50.249999999999716)scale(0.32 -0.32)">
       <use xlink:href="#BitstreamVeraSans-Roman-30"/>
       <use x="63.623046875" xlink:href="#BitstreamVeraSans-Roman-2e"/>
       <use x="95.41015625" xlink:href="#BitstreamVeraSans-Roman-38"/>
      </g>
     </g>
    </g>
    <g id="text_19">
     <!-- ${\rm P}({\rm WCN})$ -->
     <defs>
      <path d="M 3.328125 0 
L 3.328125 3.515625 
Q 13.625 3.515625 13.625 6.6875 
L 13.625 61.625 
Q 13.625 64.796875 3.328125 64.796875 
L 3.328125 68.3125 
L 38.921875 68.3125 
Q 44.390625 68.3125 49.859375 66.0625 
Q 55.328125 63.8125 58.859375 59.515625 
Q 62.40625 55.21875 62.40625 49.515625 
Q 62.40625 43.953125 58.84375 39.75 
Q 55.28125 35.546875 49.859375 33.375 
Q 44.4375 31.203125 38.921875 31.203125 
L 22.90625 31.203125 
L 22.90625 6.6875 
Q 22.90625 3.515625 33.203125 3.515625 
L 33.203125 0 
z
M 22.609375 34.1875 
L 36.1875 34.1875 
Q 41.703125 34.1875 45.109375 35.765625 
Q 48.53125 37.359375 50.109375 40.703125 
Q 51.703125 44.046875 51.703125 49.515625 
Q 51.703125 57.671875 48.109375 61.234375 
Q 44.53125 64.796875 36.1875 64.796875 
L 27.6875 64.796875 
Q 25.875 64.796875 24.875 64.640625 
Q 23.875 64.5 23.234375 63.796875 
Q 22.609375 63.09375 22.609375 61.625 
z
" id="Cmr10-50"/>
     </defs>
     <g transform="translate(46.199999999999996 311.77999999999986)rotate(-90.0)scale(0.52 -0.52)">
      <use xlink:href="#Cmr10-50"/>
      <use transform="translate(68.017578125 0.0)" xlink:href="#Cmr10-28"/>
      <use transform="translate(106.8359375 0.0)" xlink:href="#Cmr10-57"/>
      <use transform="translate(209.521484375 0.0)" xlink:href="#Cmr10-43"/>
      <use transform="translate(281.73828125 0.0)" xlink:href="#Cmr10-4e"/>
      <use transform="translate(356.73828125 0.0)" xlink:href="#Cmr10-29"/>
     </g>
    </g>
   </g>
   <g id="legend_1">
    <g id="patch_157">
     <path d="M 508.895 298.62 
L 735.685 298.62 
L 735.685 7.2 
L 508.895 7.2 
z
" style="fill:#ffffff;stroke:#000000;stroke-linejoin:miter;stroke-width:3.0;"/>
    </g>
    <g id="patch_158">
     <path d="M 521.695 44.315 
L 585.695 44.315 
L 585.695 21.915 
L 521.695 21.915 
z
" style="fill:#8000ff;opacity:0.5;stroke:#000000;stroke-linejoin:miter;"/>
    </g>
    <g id="text_20">
     <!-- state 1 -->
     <defs>
      <path d="M 56.203125 29.59375 
L 56.203125 25.203125 
L 14.890625 25.203125 
Q 15.484375 15.921875 20.484375 11.0625 
Q 25.484375 6.203125 34.421875 6.203125 
Q 39.59375 6.203125 44.453125 7.46875 
Q 49.3125 8.734375 54.109375 11.28125 
L 54.109375 2.78125 
Q 49.265625 0.734375 44.1875 -0.34375 
Q 39.109375 -1.421875 33.890625 -1.421875 
Q 20.796875 -1.421875 13.15625 6.1875 
Q 5.515625 13.8125 5.515625 26.8125 
Q 5.515625 40.234375 12.765625 48.109375 
Q 20.015625 56 32.328125 56 
Q 43.359375 56 49.78125 48.890625 
Q 56.203125 41.796875 56.203125 29.59375 
M 47.21875 32.234375 
Q 47.125 39.59375 43.09375 43.984375 
Q 39.0625 48.390625 32.421875 48.390625 
Q 24.90625 48.390625 20.390625 44.140625 
Q 15.875 39.890625 15.1875 32.171875 
z
" id="BitstreamVeraSans-Roman-65"/>
      <path id="BitstreamVeraSans-Roman-20"/>
      <path d="M 18.3125 70.21875 
L 18.3125 54.6875 
L 36.8125 54.6875 
L 36.8125 47.703125 
L 18.3125 47.703125 
L 18.3125 18.015625 
Q 18.3125 11.328125 20.140625 9.421875 
Q 21.96875 7.515625 27.59375 7.515625 
L 36.8125 7.515625 
L 36.8125 0 
L 27.59375 0 
Q 17.1875 0 13.234375 3.875 
Q 9.28125 7.765625 9.28125 18.015625 
L 9.28125 47.703125 
L 2.6875 47.703125 
L 2.6875 54.6875 
L 9.28125 54.6875 
L 9.28125 70.21875 
z
" id="BitstreamVeraSans-Roman-74"/>
      <path d="M 34.28125 27.484375 
Q 23.390625 27.484375 19.1875 25 
Q 14.984375 22.515625 14.984375 16.5 
Q 14.984375 11.71875 18.140625 8.90625 
Q 21.296875 6.109375 26.703125 6.109375 
Q 34.1875 6.109375 38.703125 11.40625 
Q 43.21875 16.703125 43.21875 25.484375 
L 43.21875 27.484375 
z
M 52.203125 31.203125 
L 52.203125 0 
L 43.21875 0 
L 43.21875 8.296875 
Q 40.140625 3.328125 35.546875 0.953125 
Q 30.953125 -1.421875 24.3125 -1.421875 
Q 15.921875 -1.421875 10.953125 3.296875 
Q 6 8.015625 6 15.921875 
Q 6 25.140625 12.171875 29.828125 
Q 18.359375 34.515625 30.609375 34.515625 
L 43.21875 34.515625 
L 43.21875 35.40625 
Q 43.21875 41.609375 39.140625 45 
Q 35.0625 48.390625 27.6875 48.390625 
Q 23 48.390625 18.546875 47.265625 
Q 14.109375 46.140625 10.015625 43.890625 
L 10.015625 52.203125 
Q 14.9375 54.109375 19.578125 55.046875 
Q 24.21875 56 28.609375 56 
Q 40.484375 56 46.34375 49.84375 
Q 52.203125 43.703125 52.203125 31.203125 
" id="BitstreamVeraSans-Roman-61"/>
      <path d="M 44.28125 53.078125 
L 44.28125 44.578125 
Q 40.484375 46.53125 36.375 47.5 
Q 32.28125 48.484375 27.875 48.484375 
Q 21.1875 48.484375 17.84375 46.4375 
Q 14.5 44.390625 14.5 40.28125 
Q 14.5 37.15625 16.890625 35.375 
Q 19.28125 33.59375 26.515625 31.984375 
L 29.59375 31.296875 
Q 39.15625 29.25 43.1875 25.515625 
Q 47.21875 21.78125 47.21875 15.09375 
Q 47.21875 7.46875 41.1875 3.015625 
Q 35.15625 -1.421875 24.609375 -1.421875 
Q 20.21875 -1.421875 15.453125 -0.5625 
Q 10.6875 0.296875 5.421875 2 
L 5.421875 11.28125 
Q 10.40625 8.6875 15.234375 7.390625 
Q 20.0625 6.109375 24.8125 6.109375 
Q 31.15625 6.109375 34.5625 8.28125 
Q 37.984375 10.453125 37.984375 14.40625 
Q 37.984375 18.0625 35.515625 20.015625 
Q 33.0625 21.96875 24.703125 23.78125 
L 21.578125 24.515625 
Q 13.234375 26.265625 9.515625 29.90625 
Q 5.8125 33.546875 5.8125 39.890625 
Q 5.8125 47.609375 11.28125 51.796875 
Q 16.75 56 26.8125 56 
Q 31.78125 56 36.171875 55.265625 
Q 40.578125 54.546875 44.28125 53.078125 
" id="BitstreamVeraSans-Roman-73"/>
     </defs>
     <g transform="translate(611.295 44.31499999999983)scale(0.32 -0.32)">
      <use xlink:href="#BitstreamVeraSans-Roman-73"/>
      <use x="52.099609375" xlink:href="#BitstreamVeraSans-Roman-74"/>
      <use x="91.30859375" xlink:href="#BitstreamVeraSans-Roman-61"/>
      <use x="152.587890625" xlink:href="#BitstreamVeraSans-Roman-74"/>
      <use x="191.796875" xlink:href="#BitstreamVeraSans-Roman-65"/>
      <use x="253.3203125" xlink:href="#BitstreamVeraSans-Roman-20"/>
      <use x="285.107421875" xlink:href="#BitstreamVeraSans-Roman-31"/>
     </g>
    </g>
    <g id="patch_159">
     <path d="M 521.695 91.285 
L 585.695 91.285 
L 585.695 68.885 
L 521.695 68.885 
z
" style="fill:#2981f6;opacity:0.5;stroke:#000000;stroke-linejoin:miter;"/>
    </g>
    <g id="text_21">
     <!-- state 2 -->
     <g transform="translate(611.295 91.28499999999985)scale(0.32 -0.32)">
      <use xlink:href="#BitstreamVeraSans-Roman-73"/>
      <use x="52.099609375" xlink:href="#BitstreamVeraSans-Roman-74"/>
      <use x="91.30859375" xlink:href="#BitstreamVeraSans-Roman-61"/>
      <use x="152.587890625" xlink:href="#BitstreamVeraSans-Roman-74"/>
      <use x="191.796875" xlink:href="#BitstreamVeraSans-Roman-65"/>
      <use x="253.3203125" xlink:href="#BitstreamVeraSans-Roman-20"/>
      <use x="285.107421875" xlink:href="#BitstreamVeraSans-Roman-32"/>
     </g>
    </g>
    <g id="patch_160">
     <path d="M 521.695 138.255 
L 585.695 138.255 
L 585.695 115.855 
L 521.695 115.855 
z
" style="fill:#2adddd;opacity:0.5;stroke:#000000;stroke-linejoin:miter;"/>
    </g>
    <g id="text_22">
     <!-- state 3 -->
     <g transform="translate(611.295 138.25499999999982)scale(0.32 -0.32)">
      <use xlink:href="#BitstreamVeraSans-Roman-73"/>
      <use x="52.099609375" xlink:href="#BitstreamVeraSans-Roman-74"/>
      <use x="91.30859375" xlink:href="#BitstreamVeraSans-Roman-61"/>
      <use x="152.587890625" xlink:href="#BitstreamVeraSans-Roman-74"/>
      <use x="191.796875" xlink:href="#BitstreamVeraSans-Roman-65"/>
      <use x="253.3203125" xlink:href="#BitstreamVeraSans-Roman-20"/>
      <use x="285.107421875" xlink:href="#BitstreamVeraSans-Roman-33"/>
     </g>
    </g>
    <g id="patch_161">
     <path d="M 521.695 185.225 
L 585.695 185.225 
L 585.695 162.825 
L 521.695 162.825 
z
" style="fill:#80ffb4;opacity:0.5;stroke:#000000;stroke-linejoin:miter;"/>
    </g>
    <g id="text_23">
     <!-- state 4 -->
     <g transform="translate(611.295 185.2249999999998)scale(0.32 -0.32)">
      <use xlink:href="#BitstreamVeraSans-Roman-73"/>
      <use x="52.099609375" xlink:href="#BitstreamVeraSans-Roman-74"/>
      <use x="91.30859375" xlink:href="#BitstreamVeraSans-Roman-61"/>
      <use x="152.587890625" xlink:href="#BitstreamVeraSans-Roman-74"/>
      <use x="191.796875" xlink:href="#BitstreamVeraSans-Roman-65"/>
      <use x="253.3203125" xlink:href="#BitstreamVeraSans-Roman-20"/>
      <use x="285.107421875" xlink:href="#BitstreamVeraSans-Roman-34"/>
     </g>
    </g>
    <g id="patch_162">
     <path d="M 521.695 232.195 
L 585.695 232.195 
L 585.695 209.795 
L 521.695 209.795 
z
" style="fill:#d4dd80;opacity:0.5;stroke:#000000;stroke-linejoin:miter;"/>
    </g>
    <g id="text_24">
     <!-- state 5 -->
     <g transform="translate(611.295 232.19499999999982)scale(0.32 -0.32)">
      <use xlink:href="#BitstreamVeraSans-Roman-73"/>
      <use x="52.099609375" xlink:href="#BitstreamVeraSans-Roman-74"/>
      <use x="91.30859375" xlink:href="#BitstreamVeraSans-Roman-61"/>
      <use x="152.587890625" xlink:href="#BitstreamVeraSans-Roman-74"/>
      <use x="191.796875" xlink:href="#BitstreamVeraSans-Roman-65"/>
      <use x="253.3203125" xlink:href="#BitstreamVeraSans-Roman-20"/>
      <use x="285.107421875" xlink:href="#BitstreamVeraSans-Roman-35"/>
     </g>
    </g>
    <g id="patch_163">
     <path d="M 521.695 279.165 
L 585.695 279.165 
L 585.695 256.765 
L 521.695 256.765 
z
" style="fill:#ff7e41;opacity:0.5;stroke:#000000;stroke-linejoin:miter;"/>
    </g>
    <g id="text_25">
     <!-- state 6 -->
     <g transform="translate(611.295 279.16499999999985)scale(0.32 -0.32)">
      <use xlink:href="#BitstreamVeraSans-Roman-73"/>
      <use x="52.099609375" xlink:href="#BitstreamVeraSans-Roman-74"/>
      <use x="91.30859375" xlink:href="#BitstreamVeraSans-Roman-61"/>
      <use x="152.587890625" xlink:href="#BitstreamVeraSans-Roman-74"/>
      <use x="191.796875" xlink:href="#BitstreamVeraSans-Roman-65"/>
      <use x="253.3203125" xlink:href="#BitstreamVeraSans-Roman-20"/>
      <use x="285.107421875" xlink:href="#BitstreamVeraSans-Roman-36"/>
     </g>
    </g>
   </g>
  </g>
 </g>
 <defs>
  <clipPath id="p6358e1a612">
   <rect height="334.80000000000007" width="558.0" x="120.09" y="41.419999999999845"/>
  </clipPath>
 </defs>
</svg>
