<?xml version="1.0" encoding="utf-8" standalone="no"?>
<!DOCTYPE svg PUBLIC "-//W3C//DTD SVG 1.1//EN"
  "http://www.w3.org/Graphics/SVG/1.1/DTD/svg11.dtd">
<!-- Created with matplotlib (http://matplotlib.org/) -->
<svg height="458pt" version="1.1" viewBox="0 0 685 458" width="685pt" xmlns="http://www.w3.org/2000/svg" xmlns:xlink="http://www.w3.org/1999/xlink">
 <defs>
  <style type="text/css">
*{stroke-linecap:butt;stroke-linejoin:round;stroke-miterlimit:100000;}
  </style>
 </defs>
 <g id="figure_1">
  <g id="patch_1">
   <path d="M 0 458.29 
L 685.29 458.29 
L 685.29 -0 
L 0 -0 
z
" style="fill:#ffffff;"/>
  </g>
  <g id="axes_1">
   <g id="patch_2">
    <path d="M 120.09 342 
L 678.09 342 
L 678.09 7.2 
L 120.09 7.2 
z
" style="fill:#ffffff;"/>
   </g>
   <g id="patch_3">
    <path clip-path="url(#p640c3ee01c)" d="M 53.455868 342 
L 85.581498 342 
L 85.581498 341.948352 
L 53.455868 341.948352 
z
" style="fill:#8000ff;opacity:0.5;stroke:#000000;stroke-linejoin:miter;"/>
   </g>
   <g id="patch_4">
    <path clip-path="url(#p640c3ee01c)" d="M 85.581498 342 
L 117.707127 342 
L 117.707127 341.526241 
L 85.581498 341.526241 
z
" style="fill:#8000ff;opacity:0.5;stroke:#000000;stroke-linejoin:miter;"/>
   </g>
   <g id="patch_5">
    <path clip-path="url(#p640c3ee01c)" d="M 117.707127 342 
L 149.832757 342 
L 149.832757 339.824408 
L 117.707127 339.824408 
z
" style="fill:#8000ff;opacity:0.5;stroke:#000000;stroke-linejoin:miter;"/>
   </g>
   <g id="patch_6">
    <path clip-path="url(#p640c3ee01c)" d="M 149.832757 342 
L 181.958387 342 
L 181.958387 334.767367 
L 149.832757 334.767367 
z
" style="fill:#8000ff;opacity:0.5;stroke:#000000;stroke-linejoin:miter;"/>
   </g>
   <g id="patch_7">
    <path clip-path="url(#p640c3ee01c)" d="M 181.958387 342 
L 214.084017 342 
L 214.084017 321.252169 
L 181.958387 321.252169 
z
" style="fill:#8000ff;opacity:0.5;stroke:#000000;stroke-linejoin:miter;"/>
   </g>
   <g id="patch_8">
    <path clip-path="url(#p640c3ee01c)" d="M 214.084017 342 
L 246.209647 342 
L 246.209647 293.081692 
L 214.084017 293.081692 
z
" style="fill:#8000ff;opacity:0.5;stroke:#000000;stroke-linejoin:miter;"/>
   </g>
   <g id="patch_9">
    <path clip-path="url(#p640c3ee01c)" d="M 246.209647 342 
L 278.335277 342 
L 278.335277 245.893274 
L 246.209647 245.893274 
z
" style="fill:#8000ff;opacity:0.5;stroke:#000000;stroke-linejoin:miter;"/>
   </g>
   <g id="patch_10">
    <path clip-path="url(#p640c3ee01c)" d="M 278.335277 342 
L 310.460907 342 
L 310.460907 184.711435 
L 278.335277 184.711435 
z
" style="fill:#8000ff;opacity:0.5;stroke:#000000;stroke-linejoin:miter;"/>
   </g>
   <g id="patch_11">
    <path clip-path="url(#p640c3ee01c)" d="M 310.460907 342 
L 342.586537 342 
L 342.586537 125.484569 
L 310.460907 125.484569 
z
" style="fill:#8000ff;opacity:0.5;stroke:#000000;stroke-linejoin:miter;"/>
   </g>
   <g id="patch_12">
    <path clip-path="url(#p640c3ee01c)" d="M 342.586537 342 
L 374.712167 342 
L 374.712167 83.68986 
L 342.586537 83.68986 
z
" style="fill:#8000ff;opacity:0.5;stroke:#000000;stroke-linejoin:miter;"/>
   </g>
   <g id="patch_13">
    <path clip-path="url(#p640c3ee01c)" d="M 374.712167 342 
L 406.837796 342 
L 406.837796 77.226208 
L 374.712167 77.226208 
z
" style="fill:#8000ff;opacity:0.5;stroke:#000000;stroke-linejoin:miter;"/>
   </g>
   <g id="patch_14">
    <path clip-path="url(#p640c3ee01c)" d="M 406.837796 342 
L 438.963426 342 
L 438.963426 105.276811 
L 406.837796 105.276811 
z
" style="fill:#8000ff;opacity:0.5;stroke:#000000;stroke-linejoin:miter;"/>
   </g>
   <g id="patch_15">
    <path clip-path="url(#p640c3ee01c)" d="M 438.963426 342 
L 471.089056 342 
L 471.089056 155.867621 
L 438.963426 155.867621 
z
" style="fill:#8000ff;opacity:0.5;stroke:#000000;stroke-linejoin:miter;"/>
   </g>
   <g id="patch_16">
    <path clip-path="url(#p640c3ee01c)" d="M 471.089056 342 
L 503.214686 342 
L 503.214686 212.141624 
L 471.089056 212.141624 
z
" style="fill:#8000ff;opacity:0.5;stroke:#000000;stroke-linejoin:miter;"/>
   </g>
   <g id="patch_17">
    <path clip-path="url(#p640c3ee01c)" d="M 503.214686 342 
L 535.340316 342 
L 535.340316 261.325824 
L 503.214686 261.325824 
z
" style="fill:#8000ff;opacity:0.5;stroke:#000000;stroke-linejoin:miter;"/>
   </g>
   <g id="patch_18">
    <path clip-path="url(#p640c3ee01c)" d="M 535.340316 342 
L 567.465946 342 
L 567.465946 297.501741 
L 535.340316 297.501741 
z
" style="fill:#8000ff;opacity:0.5;stroke:#000000;stroke-linejoin:miter;"/>
   </g>
   <g id="patch_19">
    <path clip-path="url(#p640c3ee01c)" d="M 567.465946 342 
L 599.591576 342 
L 599.591576 319.829618 
L 567.465946 319.829618 
z
" style="fill:#8000ff;opacity:0.5;stroke:#000000;stroke-linejoin:miter;"/>
   </g>
   <g id="patch_20">
    <path clip-path="url(#p640c3ee01c)" d="M 599.591576 342 
L 631.717206 342 
L 631.717206 331.864239 
L 599.591576 331.864239 
z
" style="fill:#8000ff;opacity:0.5;stroke:#000000;stroke-linejoin:miter;"/>
   </g>
   <g id="patch_21">
    <path clip-path="url(#p640c3ee01c)" d="M 631.717206 342 
L 663.842835 342 
L 663.842835 337.785268 
L 631.717206 337.785268 
z
" style="fill:#8000ff;opacity:0.5;stroke:#000000;stroke-linejoin:miter;"/>
   </g>
   <g id="patch_22">
    <path clip-path="url(#p640c3ee01c)" d="M 663.842835 342 
L 695.968465 342 
L 695.968465 340.418041 
L 663.842835 340.418041 
z
" style="fill:#8000ff;opacity:0.5;stroke:#000000;stroke-linejoin:miter;"/>
   </g>
   <g id="patch_23">
    <path clip-path="url(#p640c3ee01c)" d="M 695.968465 342 
L 728.094095 342 
L 728.094095 341.475231 
L 695.968465 341.475231 
z
" style="fill:#8000ff;opacity:0.5;stroke:#000000;stroke-linejoin:miter;"/>
   </g>
   <g id="patch_24">
    <path clip-path="url(#p640c3ee01c)" d="M 728.094095 342 
L 760.219725 342 
L 760.219725 341.846331 
L 728.094095 341.846331 
z
" style="fill:#8000ff;opacity:0.5;stroke:#000000;stroke-linejoin:miter;"/>
   </g>
   <g id="patch_25">
    <path clip-path="url(#p640c3ee01c)" d="M 760.219725 342 
L 792.345355 342 
L 792.345355 341.965568 
L 760.219725 341.965568 
z
" style="fill:#8000ff;opacity:0.5;stroke:#000000;stroke-linejoin:miter;"/>
   </g>
   <g id="patch_26">
    <path clip-path="url(#p640c3ee01c)" d="M 792.345355 342 
L 824.470985 342 
L 824.470985 341.994261 
L 792.345355 341.994261 
z
" style="fill:#8000ff;opacity:0.5;stroke:#000000;stroke-linejoin:miter;"/>
   </g>
   <g id="patch_27">
    <path clip-path="url(#p640c3ee01c)" d="M 824.470985 342 
L 856.596615 342 
L 856.596615 341.996174 
L 824.470985 341.996174 
z
" style="fill:#8000ff;opacity:0.5;stroke:#000000;stroke-linejoin:miter;"/>
   </g>
   <g id="patch_28">
    <path clip-path="url(#p640c3ee01c)" d="M 34.850922 342 
L 67.545828 342 
L 67.545828 341.919485 
L 34.850922 341.919485 
z
" style="fill:#80ffb4;opacity:0.5;stroke:#000000;stroke-linejoin:miter;"/>
   </g>
   <g id="patch_29">
    <path clip-path="url(#p640c3ee01c)" d="M 67.545828 342 
L 100.240734 342 
L 100.240734 341.124769 
L 67.545828 341.124769 
z
" style="fill:#80ffb4;opacity:0.5;stroke:#000000;stroke-linejoin:miter;"/>
   </g>
   <g id="patch_30">
    <path clip-path="url(#p640c3ee01c)" d="M 100.240734 342 
L 132.93564 342 
L 132.93564 336.782518 
L 100.240734 336.782518 
z
" style="fill:#80ffb4;opacity:0.5;stroke:#000000;stroke-linejoin:miter;"/>
   </g>
   <g id="patch_31">
    <path clip-path="url(#p640c3ee01c)" d="M 132.93564 342 
L 165.630545 342 
L 165.630545 322.180565 
L 132.93564 322.180565 
z
" style="fill:#80ffb4;opacity:0.5;stroke:#000000;stroke-linejoin:miter;"/>
   </g>
   <g id="patch_32">
    <path clip-path="url(#p640c3ee01c)" d="M 165.630545 342 
L 198.325451 342 
L 198.325451 288.697321 
L 165.630545 288.697321 
z
" style="fill:#80ffb4;opacity:0.5;stroke:#000000;stroke-linejoin:miter;"/>
   </g>
   <g id="patch_33">
    <path clip-path="url(#p640c3ee01c)" d="M 198.325451 342 
L 231.020357 342 
L 231.020357 232.982352 
L 198.325451 232.982352 
z
" style="fill:#80ffb4;opacity:0.5;stroke:#000000;stroke-linejoin:miter;"/>
   </g>
   <g id="patch_34">
    <path clip-path="url(#p640c3ee01c)" d="M 231.020357 342 
L 263.715263 342 
L 263.715263 164.6369 
L 231.020357 164.6369 
z
" style="fill:#80ffb4;opacity:0.5;stroke:#000000;stroke-linejoin:miter;"/>
   </g>
   <g id="patch_35">
    <path clip-path="url(#p640c3ee01c)" d="M 263.715263 342 
L 296.410169 342 
L 296.410169 103.953817 
L 263.715263 103.953817 
z
" style="fill:#80ffb4;opacity:0.5;stroke:#000000;stroke-linejoin:miter;"/>
   </g>
   <g id="patch_36">
    <path clip-path="url(#p640c3ee01c)" d="M 296.410169 342 
L 329.105074 342 
L 329.105074 72.527337 
L 296.410169 72.527337 
z
" style="fill:#80ffb4;opacity:0.5;stroke:#000000;stroke-linejoin:miter;"/>
   </g>
   <g id="patch_37">
    <path clip-path="url(#p640c3ee01c)" d="M 329.105074 342 
L 361.79998 342 
L 361.79998 79.768986 
L 329.105074 79.768986 
z
" style="fill:#80ffb4;opacity:0.5;stroke:#000000;stroke-linejoin:miter;"/>
   </g>
   <g id="patch_38">
    <path clip-path="url(#p640c3ee01c)" d="M 361.79998 342 
L 394.494886 342 
L 394.494886 120.20105 
L 361.79998 120.20105 
z
" style="fill:#80ffb4;opacity:0.5;stroke:#000000;stroke-linejoin:miter;"/>
   </g>
   <g id="patch_39">
    <path clip-path="url(#p640c3ee01c)" d="M 394.494886 342 
L 427.189792 342 
L 427.189792 176.929461 
L 394.494886 176.929461 
z
" style="fill:#80ffb4;opacity:0.5;stroke:#000000;stroke-linejoin:miter;"/>
   </g>
   <g id="patch_40">
    <path clip-path="url(#p640c3ee01c)" d="M 427.189792 342 
L 459.884698 342 
L 459.884698 233.166091 
L 427.189792 233.166091 
z
" style="fill:#80ffb4;opacity:0.5;stroke:#000000;stroke-linejoin:miter;"/>
   </g>
   <g id="patch_41">
    <path clip-path="url(#p640c3ee01c)" d="M 459.884698 342 
L 492.579604 342 
L 492.579604 277.582382 
L 459.884698 277.582382 
z
" style="fill:#80ffb4;opacity:0.5;stroke:#000000;stroke-linejoin:miter;"/>
   </g>
   <g id="patch_42">
    <path clip-path="url(#p640c3ee01c)" d="M 492.579604 342 
L 525.274509 342 
L 525.274509 307.797882 
L 492.579604 307.797882 
z
" style="fill:#80ffb4;opacity:0.5;stroke:#000000;stroke-linejoin:miter;"/>
   </g>
   <g id="patch_43">
    <path clip-path="url(#p640c3ee01c)" d="M 525.274509 342 
L 557.969415 342 
L 557.969415 325.463087 
L 525.274509 325.463087 
z
" style="fill:#80ffb4;opacity:0.5;stroke:#000000;stroke-linejoin:miter;"/>
   </g>
   <g id="patch_44">
    <path clip-path="url(#p640c3ee01c)" d="M 557.969415 342 
L 590.664321 342 
L 590.664321 334.665123 
L 557.969415 334.665123 
z
" style="fill:#80ffb4;opacity:0.5;stroke:#000000;stroke-linejoin:miter;"/>
   </g>
   <g id="patch_45">
    <path clip-path="url(#p640c3ee01c)" d="M 590.664321 342 
L 623.359227 342 
L 623.359227 339.054097 
L 590.664321 339.054097 
z
" style="fill:#80ffb4;opacity:0.5;stroke:#000000;stroke-linejoin:miter;"/>
   </g>
   <g id="patch_46">
    <path clip-path="url(#p640c3ee01c)" d="M 623.359227 342 
L 656.054133 342 
L 656.054133 340.923102 
L 623.359227 340.923102 
z
" style="fill:#80ffb4;opacity:0.5;stroke:#000000;stroke-linejoin:miter;"/>
   </g>
   <g id="patch_47">
    <path clip-path="url(#p640c3ee01c)" d="M 656.054133 342 
L 688.749038 342 
L 688.749038 341.643497 
L 656.054133 341.643497 
z
" style="fill:#80ffb4;opacity:0.5;stroke:#000000;stroke-linejoin:miter;"/>
   </g>
   <g id="patch_48">
    <path clip-path="url(#p640c3ee01c)" d="M 688.749038 342 
L 721.443944 342 
L 721.443944 341.891561 
L 688.749038 341.891561 
z
" style="fill:#80ffb4;opacity:0.5;stroke:#000000;stroke-linejoin:miter;"/>
   </g>
   <g id="patch_49">
    <path clip-path="url(#p640c3ee01c)" d="M 721.443944 342 
L 754.13885 342 
L 754.13885 341.966968 
L 721.443944 341.966968 
z
" style="fill:#80ffb4;opacity:0.5;stroke:#000000;stroke-linejoin:miter;"/>
   </g>
   <g id="patch_50">
    <path clip-path="url(#p640c3ee01c)" d="M 754.13885 342 
L 786.833756 342 
L 786.833756 341.992503 
L 754.13885 341.992503 
z
" style="fill:#80ffb4;opacity:0.5;stroke:#000000;stroke-linejoin:miter;"/>
   </g>
   <g id="patch_51">
    <path clip-path="url(#p640c3ee01c)" d="M 786.833756 342 
L 819.528662 342 
L 819.528662 341.99837 
L 786.833756 341.99837 
z
" style="fill:#80ffb4;opacity:0.5;stroke:#000000;stroke-linejoin:miter;"/>
   </g>
   <g id="patch_52">
    <path clip-path="url(#p640c3ee01c)" d="M 819.528662 342 
L 852.223568 342 
L 852.223568 341.999674 
L 819.528662 341.999674 
z
" style="fill:#80ffb4;opacity:0.5;stroke:#000000;stroke-linejoin:miter;"/>
   </g>
   <g id="line2d_1">
    <path clip-path="url(#p640c3ee01c)" d="M 387.435347 342 
L 387.435347 193.2 
L 387.435347 44.4 
L 387.435347 -1 
" style="fill:none;stroke:#8000ff;stroke-linecap:square;stroke-width:2.0;"/>
   </g>
   <g id="line2d_2">
    <path clip-path="url(#p640c3ee01c)" d="M 333.410665 342 
L 333.410665 193.2 
L 333.410665 44.4 
L 333.410665 -1 
" style="fill:none;stroke:#80ffb4;stroke-linecap:square;stroke-width:2.0;"/>
   </g>
   <g id="patch_53">
    <path d="M 120.09 7.2 
L 678.09 7.2 
" style="fill:none;stroke:#000000;stroke-linecap:square;stroke-linejoin:miter;stroke-width:3.0;"/>
   </g>
   <g id="patch_54">
    <path d="M 678.09 342 
L 678.09 7.2 
" style="fill:none;stroke:#000000;stroke-linecap:square;stroke-linejoin:miter;stroke-width:3.0;"/>
   </g>
   <g id="patch_55">
    <path d="M 120.09 342 
L 678.09 342 
" style="fill:none;stroke:#000000;stroke-linecap:square;stroke-linejoin:miter;stroke-width:3.0;"/>
   </g>
   <g id="patch_56">
    <path d="M 120.09 342 
L 120.09 7.2 
" style="fill:none;stroke:#000000;stroke-linecap:square;stroke-linejoin:miter;stroke-width:3.0;"/>
   </g>
   <g id="matplotlib.axis_1">
    <g id="xtick_1">
     <g id="line2d_3">
      <defs>
       <path d="M 0 0 
L 0 -4 
" id="me460a46919" style="stroke:#000000;stroke-width:0.5;"/>
      </defs>
      <g>
       <use style="stroke:#000000;stroke-width:0.5;" x="120.09" xlink:href="#me460a46919" y="341.9999999999999"/>
      </g>
     </g>
     <g id="line2d_4">
      <defs>
       <path d="M 0 0 
L 0 4 
" id="m6bf2a98b2a" style="stroke:#000000;stroke-width:0.5;"/>
      </defs>
      <g>
       <use style="stroke:#000000;stroke-width:0.5;" x="120.09" xlink:href="#m6bf2a98b2a" y="7.199999999999818"/>
      </g>
     </g>
     <g id="text_1">
      <!-- 2 -->
      <defs>
       <path d="M 19.1875 8.296875 
L 53.609375 8.296875 
L 53.609375 0 
L 7.328125 0 
L 7.328125 8.296875 
Q 12.9375 14.109375 22.625 23.890625 
Q 32.328125 33.6875 34.8125 36.53125 
Q 39.546875 41.84375 41.421875 45.53125 
Q 43.3125 49.21875 43.3125 52.78125 
Q 43.3125 58.59375 39.234375 62.25 
Q 35.15625 65.921875 28.609375 65.921875 
Q 23.96875 65.921875 18.8125 64.3125 
Q 13.671875 62.703125 7.8125 59.421875 
L 7.8125 69.390625 
Q 13.765625 71.78125 18.9375 73 
Q 24.125 74.21875 28.421875 74.21875 
Q 39.75 74.21875 46.484375 68.546875 
Q 53.21875 62.890625 53.21875 53.421875 
Q 53.21875 48.921875 51.53125 44.890625 
Q 49.859375 40.875 45.40625 35.40625 
Q 44.1875 33.984375 37.640625 27.21875 
Q 31.109375 20.453125 19.1875 8.296875 
" id="BitstreamVeraSans-Roman-32"/>
      </defs>
      <g transform="translate(109.91 371.31499999999994)scale(0.32 -0.32)">
       <use xlink:href="#BitstreamVeraSans-Roman-32"/>
      </g>
     </g>
    </g>
    <g id="xtick_2">
     <g id="line2d_5">
      <g>
       <use style="stroke:#000000;stroke-width:0.5;" x="205.93615384615384" xlink:href="#me460a46919" y="341.9999999999999"/>
      </g>
     </g>
     <g id="line2d_6">
      <g>
       <use style="stroke:#000000;stroke-width:0.5;" x="205.93615384615384" xlink:href="#m6bf2a98b2a" y="7.199999999999818"/>
      </g>
     </g>
     <g id="text_2">
      <!-- 4 -->
      <defs>
       <path d="M 37.796875 64.3125 
L 12.890625 25.390625 
L 37.796875 25.390625 
z
M 35.203125 72.90625 
L 47.609375 72.90625 
L 47.609375 25.390625 
L 58.015625 25.390625 
L 58.015625 17.1875 
L 47.609375 17.1875 
L 47.609375 0 
L 37.796875 0 
L 37.796875 17.1875 
L 4.890625 17.1875 
L 4.890625 26.703125 
z
" id="BitstreamVeraSans-Roman-34"/>
      </defs>
      <g transform="translate(195.75615384615384 371.31499999999994)scale(0.32 -0.32)">
       <use xlink:href="#BitstreamVeraSans-Roman-34"/>
      </g>
     </g>
    </g>
    <g id="xtick_3">
     <g id="line2d_7">
      <g>
       <use style="stroke:#000000;stroke-width:0.5;" x="291.7823076923077" xlink:href="#me460a46919" y="341.9999999999999"/>
      </g>
     </g>
     <g id="line2d_8">
      <g>
       <use style="stroke:#000000;stroke-width:0.5;" x="291.7823076923077" xlink:href="#m6bf2a98b2a" y="7.199999999999818"/>
      </g>
     </g>
     <g id="text_3">
      <!-- 6 -->
      <defs>
       <path d="M 33.015625 40.375 
Q 26.375 40.375 22.484375 35.828125 
Q 18.609375 31.296875 18.609375 23.390625 
Q 18.609375 15.53125 22.484375 10.953125 
Q 26.375 6.390625 33.015625 6.390625 
Q 39.65625 6.390625 43.53125 10.953125 
Q 47.40625 15.53125 47.40625 23.390625 
Q 47.40625 31.296875 43.53125 35.828125 
Q 39.65625 40.375 33.015625 40.375 
M 52.59375 71.296875 
L 52.59375 62.3125 
Q 48.875 64.0625 45.09375 64.984375 
Q 41.3125 65.921875 37.59375 65.921875 
Q 27.828125 65.921875 22.671875 59.328125 
Q 17.53125 52.734375 16.796875 39.40625 
Q 19.671875 43.65625 24.015625 45.921875 
Q 28.375 48.1875 33.59375 48.1875 
Q 44.578125 48.1875 50.953125 41.515625 
Q 57.328125 34.859375 57.328125 23.390625 
Q 57.328125 12.15625 50.6875 5.359375 
Q 44.046875 -1.421875 33.015625 -1.421875 
Q 20.359375 -1.421875 13.671875 8.265625 
Q 6.984375 17.96875 6.984375 36.375 
Q 6.984375 53.65625 15.1875 63.9375 
Q 23.390625 74.21875 37.203125 74.21875 
Q 40.921875 74.21875 44.703125 73.484375 
Q 48.484375 72.75 52.59375 71.296875 
" id="BitstreamVeraSans-Roman-36"/>
      </defs>
      <g transform="translate(281.6023076923077 371.31499999999994)scale(0.32 -0.32)">
       <use xlink:href="#BitstreamVeraSans-Roman-36"/>
      </g>
     </g>
    </g>
    <g id="xtick_4">
     <g id="line2d_9">
      <g>
       <use style="stroke:#000000;stroke-width:0.5;" x="377.6284615384616" xlink:href="#me460a46919" y="341.9999999999999"/>
      </g>
     </g>
     <g id="line2d_10">
      <g>
       <use style="stroke:#000000;stroke-width:0.5;" x="377.6284615384616" xlink:href="#m6bf2a98b2a" y="7.199999999999818"/>
      </g>
     </g>
     <g id="text_4">
      <!-- 8 -->
      <defs>
       <path d="M 31.78125 34.625 
Q 24.75 34.625 20.71875 30.859375 
Q 16.703125 27.09375 16.703125 20.515625 
Q 16.703125 13.921875 20.71875 10.15625 
Q 24.75 6.390625 31.78125 6.390625 
Q 38.8125 6.390625 42.859375 10.171875 
Q 46.921875 13.96875 46.921875 20.515625 
Q 46.921875 27.09375 42.890625 30.859375 
Q 38.875 34.625 31.78125 34.625 
M 21.921875 38.8125 
Q 15.578125 40.375 12.03125 44.71875 
Q 8.5 49.078125 8.5 55.328125 
Q 8.5 64.0625 14.71875 69.140625 
Q 20.953125 74.21875 31.78125 74.21875 
Q 42.671875 74.21875 48.875 69.140625 
Q 55.078125 64.0625 55.078125 55.328125 
Q 55.078125 49.078125 51.53125 44.71875 
Q 48 40.375 41.703125 38.8125 
Q 48.828125 37.15625 52.796875 32.3125 
Q 56.78125 27.484375 56.78125 20.515625 
Q 56.78125 9.90625 50.3125 4.234375 
Q 43.84375 -1.421875 31.78125 -1.421875 
Q 19.734375 -1.421875 13.25 4.234375 
Q 6.78125 9.90625 6.78125 20.515625 
Q 6.78125 27.484375 10.78125 32.3125 
Q 14.796875 37.15625 21.921875 38.8125 
M 18.3125 54.390625 
Q 18.3125 48.734375 21.84375 45.5625 
Q 25.390625 42.390625 31.78125 42.390625 
Q 38.140625 42.390625 41.71875 45.5625 
Q 45.3125 48.734375 45.3125 54.390625 
Q 45.3125 60.0625 41.71875 63.234375 
Q 38.140625 66.40625 31.78125 66.40625 
Q 25.390625 66.40625 21.84375 63.234375 
Q 18.3125 60.0625 18.3125 54.390625 
" id="BitstreamVeraSans-Roman-38"/>
      </defs>
      <g transform="translate(367.4484615384616 371.31499999999994)scale(0.32 -0.32)">
       <use xlink:href="#BitstreamVeraSans-Roman-38"/>
      </g>
     </g>
    </g>
    <g id="xtick_5">
     <g id="line2d_11">
      <g>
       <use style="stroke:#000000;stroke-width:0.5;" x="463.47461538461545" xlink:href="#me460a46919" y="341.9999999999999"/>
      </g>
     </g>
     <g id="line2d_12">
      <g>
       <use style="stroke:#000000;stroke-width:0.5;" x="463.47461538461545" xlink:href="#m6bf2a98b2a" y="7.199999999999818"/>
      </g>
     </g>
     <g id="text_5">
      <!-- 10 -->
      <defs>
       <path d="M 31.78125 66.40625 
Q 24.171875 66.40625 20.328125 58.90625 
Q 16.5 51.421875 16.5 36.375 
Q 16.5 21.390625 20.328125 13.890625 
Q 24.171875 6.390625 31.78125 6.390625 
Q 39.453125 6.390625 43.28125 13.890625 
Q 47.125 21.390625 47.125 36.375 
Q 47.125 51.421875 43.28125 58.90625 
Q 39.453125 66.40625 31.78125 66.40625 
M 31.78125 74.21875 
Q 44.046875 74.21875 50.515625 64.515625 
Q 56.984375 54.828125 56.984375 36.375 
Q 56.984375 17.96875 50.515625 8.265625 
Q 44.046875 -1.421875 31.78125 -1.421875 
Q 19.53125 -1.421875 13.0625 8.265625 
Q 6.59375 17.96875 6.59375 36.375 
Q 6.59375 54.828125 13.0625 64.515625 
Q 19.53125 74.21875 31.78125 74.21875 
" id="BitstreamVeraSans-Roman-30"/>
       <path d="M 12.40625 8.296875 
L 28.515625 8.296875 
L 28.515625 63.921875 
L 10.984375 60.40625 
L 10.984375 69.390625 
L 28.421875 72.90625 
L 38.28125 72.90625 
L 38.28125 8.296875 
L 54.390625 8.296875 
L 54.390625 0 
L 12.40625 0 
z
" id="BitstreamVeraSans-Roman-31"/>
      </defs>
      <g transform="translate(443.11461538461543 371.31499999999994)scale(0.32 -0.32)">
       <use xlink:href="#BitstreamVeraSans-Roman-31"/>
       <use x="63.623046875" xlink:href="#BitstreamVeraSans-Roman-30"/>
      </g>
     </g>
    </g>
    <g id="xtick_6">
     <g id="line2d_13">
      <g>
       <use style="stroke:#000000;stroke-width:0.5;" x="549.3207692307692" xlink:href="#me460a46919" y="341.9999999999999"/>
      </g>
     </g>
     <g id="line2d_14">
      <g>
       <use style="stroke:#000000;stroke-width:0.5;" x="549.3207692307692" xlink:href="#m6bf2a98b2a" y="7.199999999999818"/>
      </g>
     </g>
     <g id="text_6">
      <!-- 12 -->
      <g transform="translate(528.9607692307692 371.31499999999994)scale(0.32 -0.32)">
       <use xlink:href="#BitstreamVeraSans-Roman-31"/>
       <use x="63.623046875" xlink:href="#BitstreamVeraSans-Roman-32"/>
      </g>
     </g>
    </g>
    <g id="xtick_7">
     <g id="line2d_15">
      <g>
       <use style="stroke:#000000;stroke-width:0.5;" x="635.1669230769231" xlink:href="#me460a46919" y="341.9999999999999"/>
      </g>
     </g>
     <g id="line2d_16">
      <g>
       <use style="stroke:#000000;stroke-width:0.5;" x="635.1669230769231" xlink:href="#m6bf2a98b2a" y="7.199999999999818"/>
      </g>
     </g>
     <g id="text_7">
      <!-- 14 -->
      <g transform="translate(614.8069230769231 371.31499999999994)scale(0.32 -0.32)">
       <use xlink:href="#BitstreamVeraSans-Roman-31"/>
       <use x="63.623046875" xlink:href="#BitstreamVeraSans-Roman-34"/>
      </g>
     </g>
    </g>
    <g id="text_8">
     <!-- ${\rm WCN}_{\rm BB}^{(7)}$ -->
     <defs>
      <path d="M 17.390625 2.59375 
Q 17.390625 8.15625 18.359375 13.46875 
Q 19.34375 18.796875 21.21875 24 
Q 23.09375 29.203125 25.75 34.203125 
Q 28.421875 39.203125 31.59375 43.609375 
L 40.71875 56.296875 
L 29.296875 56.296875 
Q 11.53125 56.296875 10.984375 55.8125 
Q 9.671875 54.203125 8.5 46.578125 
L 5.609375 46.578125 
L 8.890625 67.578125 
L 11.8125 67.578125 
L 11.8125 67.28125 
Q 11.8125 65.484375 17.921875 64.9375 
Q 24.03125 64.40625 29.890625 64.40625 
L 48.484375 64.40625 
L 48.484375 61.8125 
Q 48.484375 61.71875 48.453125 61.671875 
Q 48.4375 61.625 48.390625 61.53125 
L 34.625 42.1875 
Q 29.546875 34.671875 28.265625 25.484375 
Q 27 16.3125 27 2.59375 
Q 27 0.640625 25.578125 -0.78125 
Q 24.171875 -2.203125 22.21875 -2.203125 
Q 20.21875 -2.203125 18.796875 -0.78125 
Q 17.390625 0.640625 17.390625 2.59375 
" id="Cmr10-37"/>
      <path d="M 3.078125 0 
L 3.078125 3.515625 
Q 13.375 3.515625 13.375 9.421875 
L 13.375 64.203125 
Q 10.109375 64.796875 3.078125 64.796875 
L 3.078125 68.3125 
L 22.21875 68.3125 
Q 22.703125 68.3125 22.90625 67.921875 
L 58.296875 15.828125 
L 58.296875 58.890625 
Q 58.296875 64.796875 48 64.796875 
L 48 68.3125 
L 71.78125 68.3125 
L 71.78125 64.796875 
Q 61.53125 64.796875 61.53125 58.890625 
L 61.53125 0.875 
Q 61.53125 0.59375 61.140625 0.296875 
Q 60.75 0 60.5 0 
L 59.28125 0 
Q 58.796875 0 58.59375 0.390625 
L 16.609375 62.203125 
L 16.609375 9.421875 
Q 16.609375 3.515625 26.90625 3.515625 
L 26.90625 0 
z
" id="Cmr10-4e"/>
      <path d="M 31 -24.8125 
Q 25.4375 -20.40625 21.40625 -14.71875 
Q 17.390625 -9.03125 14.8125 -2.578125 
Q 12.25 3.859375 10.984375 10.890625 
Q 9.71875 17.921875 9.71875 25 
Q 9.71875 32.171875 10.984375 39.203125 
Q 12.25 46.234375 14.859375 52.734375 
Q 17.484375 59.234375 21.53125 64.890625 
Q 25.59375 70.5625 31 74.8125 
Q 31 75 31.5 75 
L 32.421875 75 
Q 32.71875 75 32.953125 74.734375 
Q 33.203125 74.46875 33.203125 74.125 
Q 33.203125 73.6875 33.015625 73.484375 
Q 28.125 68.703125 24.875 63.234375 
Q 21.625 57.765625 19.640625 51.578125 
Q 17.671875 45.40625 16.796875 38.78125 
Q 15.921875 32.171875 15.921875 25 
Q 15.921875 -6.78125 32.90625 -23.296875 
Q 33.203125 -23.578125 33.203125 -24.125 
Q 33.203125 -24.359375 32.9375 -24.671875 
Q 32.671875 -25 32.421875 -25 
L 31.5 -25 
Q 31 -25 31 -24.8125 
" id="Cmr10-28"/>
      <path d="M 6.5 -25 
Q 5.609375 -25 5.609375 -24.125 
Q 5.609375 -23.6875 5.8125 -23.484375 
Q 22.90625 -6.78125 22.90625 25 
Q 22.90625 56.78125 6 73.296875 
Q 5.609375 73.53125 5.609375 74.125 
Q 5.609375 74.46875 5.875 74.734375 
Q 6.15625 75 6.5 75 
L 7.421875 75 
Q 7.71875 75 7.90625 74.8125 
Q 15.09375 69.140625 19.875 61.03125 
Q 24.65625 52.9375 26.875 43.75 
Q 29.109375 34.578125 29.109375 25 
Q 29.109375 17.921875 27.90625 11.0625 
Q 26.703125 4.203125 24.09375 -2.453125 
Q 21.484375 -9.125 17.484375 -14.765625 
Q 13.484375 -20.40625 7.90625 -24.8125 
Q 7.71875 -25 7.421875 -25 
z
" id="Cmr10-29"/>
      <path d="M 3.421875 0 
L 3.421875 3.515625 
Q 13.71875 3.515625 13.71875 6.6875 
L 13.71875 61.625 
Q 13.71875 64.796875 3.421875 64.796875 
L 3.421875 68.3125 
L 40.1875 68.3125 
Q 45.265625 68.3125 50.4375 66.328125 
Q 55.609375 64.359375 59 60.46875 
Q 62.40625 56.59375 62.40625 51.3125 
Q 62.40625 45.21875 57.390625 41.09375 
Q 52.390625 36.96875 45.703125 35.6875 
Q 50.046875 35.6875 54.640625 33.296875 
Q 59.234375 30.90625 62.15625 26.90625 
Q 65.09375 22.90625 65.09375 18.40625 
Q 65.09375 12.9375 61.84375 8.734375 
Q 58.59375 4.546875 53.421875 2.265625 
Q 48.25 0 43.015625 0 
z
M 22.40625 6.6875 
Q 22.40625 4.546875 23.625 4.03125 
Q 24.859375 3.515625 27.484375 3.515625 
L 40.1875 3.515625 
Q 44.09375 3.515625 47.4375 5.5625 
Q 50.78125 7.625 52.734375 11.0625 
Q 54.6875 14.5 54.6875 18.40625 
Q 54.6875 22.21875 53.078125 25.859375 
Q 51.46875 29.5 48.453125 31.84375 
Q 45.453125 34.1875 41.609375 34.1875 
L 22.40625 34.1875 
z
M 22.40625 36.8125 
L 37.40625 36.8125 
Q 40.4375 36.8125 43.09375 37.90625 
Q 45.75 39.015625 47.875 41.09375 
Q 50 43.171875 51.140625 45.78125 
Q 52.296875 48.390625 52.296875 51.3125 
Q 52.296875 53.90625 51.4375 56.296875 
Q 50.59375 58.6875 48.921875 60.640625 
Q 47.265625 62.59375 45.015625 63.6875 
Q 42.78125 64.796875 40.1875 64.796875 
L 27.484375 64.796875 
Q 25.6875 64.796875 24.6875 64.640625 
Q 23.6875 64.5 23.046875 63.796875 
Q 22.40625 63.09375 22.40625 61.625 
z
" id="Cmr10-42"/>
      <path d="M 22.796875 10.6875 
Q 26.21875 6.34375 31.34375 3.828125 
Q 36.46875 1.3125 42 1.3125 
Q 46.625 1.3125 50.578125 3.140625 
Q 54.546875 4.984375 57.5 8.25 
Q 60.453125 11.53125 62.03125 15.671875 
Q 63.625 19.828125 63.625 24.421875 
Q 63.625 25.203125 64.5 25.203125 
L 65.71875 25.203125 
Q 66.5 25.203125 66.5 24.21875 
Q 66.5 19 64.5 14.140625 
Q 62.5 9.28125 58.828125 5.59375 
Q 55.171875 1.90625 50.40625 -0.140625 
Q 45.65625 -2.203125 40.484375 -2.203125 
Q 33.296875 -2.203125 26.875 0.703125 
Q 20.453125 3.609375 15.6875 8.65625 
Q 10.9375 13.71875 8.265625 20.359375 
Q 5.609375 27 5.609375 34.1875 
Q 5.609375 41.359375 8.265625 48 
Q 10.9375 54.640625 15.6875 59.71875 
Q 20.453125 64.796875 26.875 67.65625 
Q 33.296875 70.515625 40.484375 70.515625 
Q 45.609375 70.515625 50.296875 68.28125 
Q 54.984375 66.0625 58.5 62.015625 
L 64.3125 70.21875 
Q 64.890625 70.515625 64.984375 70.515625 
L 65.71875 70.515625 
Q 66.015625 70.515625 66.25 70.265625 
Q 66.5 70.015625 66.5 69.671875 
L 66.5 42.671875 
Q 66.5 41.796875 65.71875 41.796875 
L 63.921875 41.796875 
Q 62.984375 41.796875 62.984375 42.671875 
Q 62.984375 45.5625 61.828125 49.125 
Q 60.6875 52.6875 58.90625 55.875 
Q 57.125 59.078125 54.78125 61.53125 
Q 49.171875 67 41.890625 67 
Q 36.375 67 31.3125 64.5 
Q 26.265625 62.015625 22.796875 57.625 
Q 19.140625 52.9375 17.71875 46.953125 
Q 16.3125 40.96875 16.3125 34.1875 
Q 16.3125 27.390625 17.71875 21.375 
Q 19.140625 15.375 22.796875 10.6875 
" id="Cmr10-43"/>
      <path d="M 31.109375 -1.125 
L 10.6875 61.625 
Q 9.90625 63.71875 7.65625 64.25 
Q 5.421875 64.796875 1.8125 64.796875 
L 1.8125 68.3125 
L 28.609375 68.3125 
L 28.609375 64.796875 
Q 20.21875 64.796875 20.21875 62.109375 
L 20.21875 61.625 
L 36.1875 12.40625 
L 49.8125 54.5 
L 47.515625 61.625 
Q 46.734375 63.71875 44.484375 64.25 
Q 42.234375 64.796875 38.625 64.796875 
L 38.625 68.3125 
L 65.375 68.3125 
L 65.375 64.796875 
Q 56.890625 64.796875 56.890625 62.109375 
Q 56.890625 61.96875 56.984375 61.671875 
Q 57.078125 61.375 57.078125 61.28125 
L 73 12.40625 
L 87.984375 58.890625 
Q 88.09375 59.1875 88.09375 59.8125 
Q 88.09375 62.453125 85.296875 63.625 
Q 82.515625 64.796875 79.5 64.796875 
L 79.5 68.3125 
L 100.875 68.3125 
L 100.875 64.796875 
Q 92.96875 64.796875 91.109375 58.890625 
L 71.578125 -1.125 
Q 71.234375 -2.203125 70.125 -2.203125 
L 69.390625 -2.203125 
Q 68.265625 -2.203125 67.921875 -1.125 
L 51.421875 49.8125 
L 34.8125 -1.125 
Q 34.46875 -2.203125 33.296875 -2.203125 
L 32.625 -2.203125 
Q 31.453125 -2.203125 31.109375 -1.125 
" id="Cmr10-57"/>
     </defs>
     <g transform="translate(305.49 437.56999999999994)scale(0.52 -0.52)">
      <use transform="translate(0.0 0.190625)" xlink:href="#Cmr10-57"/>
      <use transform="translate(102.685546875 0.190625)" xlink:href="#Cmr10-43"/>
      <use transform="translate(174.90234375 0.190625)" xlink:href="#Cmr10-4e"/>
      <use transform="translate(254.366484375 52.5)scale(0.7)" xlink:href="#Cmr10-28"/>
      <use transform="translate(281.539335938 52.5)scale(0.7)" xlink:href="#Cmr10-37"/>
      <use transform="translate(316.539335938 52.5)scale(0.7)" xlink:href="#Cmr10-29"/>
      <use transform="translate(254.366484375 -25.31875)scale(0.7)" xlink:href="#Cmr10-42"/>
      <use transform="translate(303.92703125 -25.31875)scale(0.7)" xlink:href="#Cmr10-42"/>
     </g>
    </g>
   </g>
   <g id="matplotlib.axis_2">
    <g id="ytick_1">
     <g id="line2d_17">
      <defs>
       <path d="M 0 0 
L 4 0 
" id="m23c8083bc6" style="stroke:#000000;stroke-width:0.5;"/>
      </defs>
      <g>
       <use style="stroke:#000000;stroke-width:0.5;" x="120.09" xlink:href="#m23c8083bc6" y="341.9999999999999"/>
      </g>
     </g>
     <g id="line2d_18">
      <defs>
       <path d="M 0 0 
L -4 0 
" id="m310f4c3309" style="stroke:#000000;stroke-width:0.5;"/>
      </defs>
      <g>
       <use style="stroke:#000000;stroke-width:0.5;" x="678.09" xlink:href="#m310f4c3309" y="341.9999999999999"/>
      </g>
     </g>
     <g id="text_9">
      <!-- 0.0 -->
      <defs>
       <path d="M 10.6875 12.40625 
L 21 12.40625 
L 21 0 
L 10.6875 0 
z
" id="BitstreamVeraSans-Roman-2e"/>
      </defs>
      <g transform="translate(64.2 350.8299999999999)scale(0.32 -0.32)">
       <use xlink:href="#BitstreamVeraSans-Roman-30"/>
       <use x="63.623046875" xlink:href="#BitstreamVeraSans-Roman-2e"/>
       <use x="95.41015625" xlink:href="#BitstreamVeraSans-Roman-30"/>
      </g>
     </g>
    </g>
    <g id="ytick_2">
     <g id="line2d_19">
      <g>
       <use style="stroke:#000000;stroke-width:0.5;" x="120.09" xlink:href="#m23c8083bc6" y="208.07999999999984"/>
      </g>
     </g>
     <g id="line2d_20">
      <g>
       <use style="stroke:#000000;stroke-width:0.5;" x="678.09" xlink:href="#m310f4c3309" y="208.07999999999984"/>
      </g>
     </g>
     <g id="text_10">
      <!-- 0.1 -->
      <g transform="translate(64.2 216.90999999999988)scale(0.32 -0.32)">
       <use xlink:href="#BitstreamVeraSans-Roman-30"/>
       <use x="63.623046875" xlink:href="#BitstreamVeraSans-Roman-2e"/>
       <use x="95.41015625" xlink:href="#BitstreamVeraSans-Roman-31"/>
      </g>
     </g>
    </g>
    <g id="ytick_3">
     <g id="line2d_21">
      <g>
       <use style="stroke:#000000;stroke-width:0.5;" x="120.09" xlink:href="#m23c8083bc6" y="74.1599999999998"/>
      </g>
     </g>
     <g id="line2d_22">
      <g>
       <use style="stroke:#000000;stroke-width:0.5;" x="678.09" xlink:href="#m310f4c3309" y="74.1599999999998"/>
      </g>
     </g>
     <g id="text_11">
      <!-- 0.2 -->
      <g transform="translate(64.2 82.98999999999978)scale(0.32 -0.32)">
       <use xlink:href="#BitstreamVeraSans-Roman-30"/>
       <use x="63.623046875" xlink:href="#BitstreamVeraSans-Roman-2e"/>
       <use x="95.41015625" xlink:href="#BitstreamVeraSans-Roman-32"/>
      </g>
     </g>
    </g>
    <g id="text_12">
     <!-- ${\rm P}({\rm WCN})$ -->
     <defs>
      <path d="M 3.328125 0 
L 3.328125 3.515625 
Q 13.625 3.515625 13.625 6.6875 
L 13.625 61.625 
Q 13.625 64.796875 3.328125 64.796875 
L 3.328125 68.3125 
L 38.921875 68.3125 
Q 44.390625 68.3125 49.859375 66.0625 
Q 55.328125 63.8125 58.859375 59.515625 
Q 62.40625 55.21875 62.40625 49.515625 
Q 62.40625 43.953125 58.84375 39.75 
Q 55.28125 35.546875 49.859375 33.375 
Q 44.4375 31.203125 38.921875 31.203125 
L 22.90625 31.203125 
L 22.90625 6.6875 
Q 22.90625 3.515625 33.203125 3.515625 
L 33.203125 0 
z
M 22.609375 34.1875 
L 36.1875 34.1875 
Q 41.703125 34.1875 45.109375 35.765625 
Q 48.53125 37.359375 50.109375 40.703125 
Q 51.703125 44.046875 51.703125 49.515625 
Q 51.703125 57.671875 48.109375 61.234375 
Q 44.53125 64.796875 36.1875 64.796875 
L 27.6875 64.796875 
Q 25.875 64.796875 24.875 64.640625 
Q 23.875 64.5 23.234375 63.796875 
Q 22.609375 63.09375 22.609375 61.625 
z
" id="Cmr10-50"/>
     </defs>
     <g transform="translate(46.199999999999996 277.55999999999983)rotate(-90.0)scale(0.52 -0.52)">
      <use xlink:href="#Cmr10-50"/>
      <use transform="translate(68.017578125 0.0)" xlink:href="#Cmr10-28"/>
      <use transform="translate(106.8359375 0.0)" xlink:href="#Cmr10-57"/>
      <use transform="translate(209.521484375 0.0)" xlink:href="#Cmr10-43"/>
      <use transform="translate(281.73828125 0.0)" xlink:href="#Cmr10-4e"/>
      <use transform="translate(356.73828125 0.0)" xlink:href="#Cmr10-29"/>
     </g>
    </g>
   </g>
  </g>
 </g>
 <defs>
  <clipPath id="p640c3ee01c">
   <rect height="334.80000000000007" width="558.0" x="120.09" y="7.199999999999875"/>
  </clipPath>
 </defs>
</svg>
