<?xml version="1.0" encoding="utf-8" standalone="no"?>
<!DOCTYPE svg PUBLIC "-//W3C//DTD SVG 1.1//EN"
  "http://www.w3.org/Graphics/SVG/1.1/DTD/svg11.dtd">
<!-- Created with matplotlib (http://matplotlib.org/) -->
<svg height="851pt" version="1.1" viewBox="0 0 911 851" width="911pt" xmlns="http://www.w3.org/2000/svg" xmlns:xlink="http://www.w3.org/1999/xlink">
 <defs>
  <style type="text/css">
*{stroke-linecap:butt;stroke-linejoin:round;stroke-miterlimit:100000;}
  </style>
 </defs>
 <g id="figure_1">
  <g id="patch_1">
   <path d="M 0 851.4 
L 911.593676 851.4 
L 911.593676 0 
L 0 0 
z
" style="fill:#ffffff;"/>
  </g>
  <g id="axes_1">
   <g id="patch_2">
    <path d="M 382.791728 555.871309 
Q 317.957742 497.316148 307.353504 410.856726 
L 305.32021 411.106109 
Q 306.254998 408.458819 307.239686 405.835236 
Q 308.741893 408.201033 310.283022 410.497421 
L 308.249728 410.746804 
Q 318.812955 496.871848 383.39693 555.201212 
L 382.791728 555.871309 
z
" style="fill:#707070;stroke:#707070;stroke-linecap:round;"/>
   </g>
   <g id="patch_3">
    <path d="M 317.911738 403.33025 
Q 382.707913 461.890042 393.282986 548.34956 
L 395.35429 548.096214 
Q 394.418659 550.743495 393.433145 553.367079 
Q 391.93168 551.000465 390.391277 548.703252 
L 392.46258 548.449906 
Q 381.924946 462.296479 317.357555 403.943452 
L 317.911738 403.33025 
z
" style="fill:#737373;stroke:#737373;stroke-linecap:round;"/>
   </g>
   <g id="patch_4">
    <path d="M 385.659507 553.170262 
Q 313.23249 437.508802 306.184411 301.234492 
L 304.514343 301.320867 
Q 305.63321 298.752622 306.775083 296.199687 
Q 308.130972 298.645713 309.50767 301.062614 
L 307.837602 301.148989 
Q 314.863493 436.994307 387.062527 552.291693 
L 385.659507 553.170262 
z
" style="fill:#525252;stroke:#525252;stroke-linecap:round;"/>
   </g>
   <g id="patch_5">
    <path d="M 314.44963 296.610148 
Q 387.303274 412.148349 394.798041 548.293553 
L 396.220627 548.21524 
Q 395.110363 550.788425 393.976956 553.346253 
Q 392.612965 550.903559 391.228186 548.490073 
L 392.650772 548.41176 
Q 385.186667 412.823535 312.630552 297.757184 
L 314.44963 296.610148 
z
" style="fill:#383838;stroke:#383838;stroke-linecap:round;"/>
   </g>
   <g id="patch_6">
    <path d="M 384.249548 554.276865 
Q 337.481074 494.763528 345.050455 420.062738 
L 343.300098 419.885376 
Q 344.797625 417.507409 346.348878 415.170293 
Q 347.278716 417.817032 348.274625 420.389441 
L 346.524268 420.212079 
Q 339.015146 494.318188 385.414293 553.361552 
L 384.249548 554.276865 
z
" style="fill:#5a5a5a;stroke:#5a5a5a;stroke-linecap:round;"/>
   </g>
   <g id="patch_7">
    <path d="M 360.286178 413.859646 
Q 406.225993 473.658799 397.79068 548.653222 
L 399.393245 548.833477 
Q 397.869527 551.195437 396.293102 553.517217 
Q 395.391909 550.859216 394.424577 548.274605 
L 396.027141 548.454861 
Q 404.38241 474.172065 358.878863 414.940795 
L 360.286178 413.859646 
z
" style="fill:#4d4d4d;stroke:#4d4d4d;stroke-linecap:round;"/>
   </g>
   <g id="patch_8">
    <path d="M 397.498982 550.624852 
Q 435.644595 420.206531 528.502409 322.015269 
L 527.36405 320.938743 
Q 529.995446 319.975484 532.630974 319.038601 
Q 531.797275 321.708584 530.996869 324.374238 
L 529.858511 323.297712 
Q 437.309738 421.162183 399.290388 551.148815 
L 397.498982 550.624852 
z
" style="fill:#474747;stroke:#474747;stroke-linecap:round;"/>
   </g>
   <g id="patch_9">
    <path d="M 543.229057 328.283273 
Q 502.880761 456.984564 408.177784 553.666618 
L 409.254098 554.720901 
Q 406.061765 555.826796 402.86379 556.895194 
Q 403.930423 553.696594 404.948826 550.503757 
L 406.025141 551.55804 
Q 500.22187 455.392812 540.353745 327.381853 
L 543.229057 328.283273 
z
" style="fill:#0e0e0e;stroke:#0e0e0e;stroke-linecap:round;"/>
   </g>
   <g id="patch_10">
    <path d="M 404.52682 554.289692 
Q 479.788133 482.275589 582.123133 467.613907 
L 581.850651 465.712047 
Q 584.515049 466.593142 587.160224 467.51259 
Q 584.834588 469.072763 582.559767 470.661507 
L 582.287285 468.759647 
Q 480.319961 483.368652 405.327014 555.125968 
L 404.52682 554.289692 
z
" style="fill:#666666;stroke:#666666;stroke-linecap:round;"/>
   </g>
   <g id="patch_11">
    <path d="M 590.782754 481.1788 
Q 514.596449 551.51307 411.303263 564.418837 
L 411.498003 565.977468 
Q 408.852212 565.048262 406.225303 564.081842 
Q 408.576736 562.563364 410.878107 561.016044 
L 411.072848 562.574675 
Q 513.774098 549.742867 589.522089 479.813243 
L 590.782754 481.1788 
z
" style="fill:#474747;stroke:#474747;stroke-linecap:round;"/>
   </g>
   <g id="patch_12">
    <path d="M 297.430198 381.852267 
Q 272.451294 340.05696 297.498437 298.340804 
L 295.750898 297.29155 
Q 298.120877 295.77385 300.561914 294.350793 
Q 300.206077 297.155187 300.037571 299.865347 
L 298.290032 298.816092 
Q 273.527601 340.058057 298.222759 381.378593 
L 297.430198 381.852267 
z
" style="fill:#6f6f6f;stroke:#6f6f6f;stroke-linecap:round;"/>
   </g>
   <g id="patch_13">
    <path d="M 314.337367 296.625934 
Q 340.28843 338.437154 316.206245 380.174659 
L 317.924265 381.165942 
Q 315.580067 382.726263 313.162278 384.187975 
Q 313.472952 381.378446 313.593465 378.667108 
L 315.311485 379.65839 
Q 339.08462 338.456508 313.459665 297.170699 
L 314.337367 296.625934 
z
" style="fill:#6b6b6b;stroke:#6b6b6b;stroke-linecap:round;"/>
   </g>
   <g id="patch_14">
    <path d="M 315.491992 382.081457 
Q 331.220444 366.933475 341.643634 383.153847 
L 343.32931 382.070634 
Q 343.613296 384.834339 343.652367 387.791349 
Q 341.345242 385.910213 339.122923 384.773653 
L 340.808599 383.69044 
Q 331.038647 368.486624 316.180536 382.796385 
L 315.491992 382.081457 
z
" style="fill:#6d6d6d;stroke:#6d6d6d;stroke-linecap:round;"/>
   </g>
   <g id="patch_15">
    <path d="M 337.733748 414.709832 
Q 322.035654 428.326543 311.794446 410.011473 
L 310.232421 410.884909 
Q 310.12385 408.122475 310.207623 405.180715 
Q 312.427944 407.134749 314.596497 408.444655 
L 313.034472 409.31809 
Q 322.423594 426.109314 336.802819 413.636605 
L 337.733748 414.709832 
z
" style="fill:#5c5c5c;stroke:#5c5c5c;stroke-linecap:round;"/>
   </g>
   <g id="patch_16">
    <path d="M 317.598829 384.119978 
Q 408.123925 314.456973 520.818933 303.725631 
L 520.638226 301.827945 
Q 523.254599 302.834501 525.852309 303.872427 
Q 523.462147 305.325958 521.112206 306.805429 
L 520.931499 304.907743 
Q 408.577023 315.606658 318.323021 385.061045 
L 317.598829 384.119978 
z
" style="fill:#656565;stroke:#656565;stroke-linecap:round;"/>
   </g>
   <g id="patch_17">
    <path d="M 529.05749 319.684703 
Q 437.269755 386.519673 323.276794 394.318769 
L 323.363101 395.58025 
Q 320.773747 394.504443 318.202614 393.398499 
Q 320.631949 392.008384 323.021812 390.591912 
L 323.108119 391.853393 
Q 436.390739 384.102896 527.602894 317.687034 
L 529.05749 319.684703 
z
" style="fill:#272727;stroke:#272727;stroke-linecap:round;"/>
   </g>
   <g id="patch_18">
    <path d="M 321.188774 392.822113 
Q 461.259506 389.722909 585.170474 454.010313 
L 586.058334 452.299003 
Q 587.708956 454.563624 589.335295 456.839869 
Q 586.538532 456.772773 583.755696 456.73723 
L 584.643557 455.025921 
Q 460.992301 390.873261 321.214084 393.965993 
L 321.188774 392.822113 
z
" style="fill:#676767;stroke:#676767;stroke-linecap:round;"/>
   </g>
   <g id="patch_19">
    <path d="M 584.115243 467.254329 
Q 444.292661 468.838685 320.644893 402.977881 
L 319.937305 404.306314 
Q 318.313026 402.024854 316.712713 399.732034 
Q 319.507145 399.828424 322.287893 399.893295 
L 321.580305 401.221728 
Q 444.778948 466.843307 584.092698 465.264716 
L 584.115243 467.254329 
z
" style="fill:#404040;stroke:#404040;stroke-linecap:round;"/>
   </g>
   <g id="patch_20">
    <path d="M 317.199689 293.628036 
Q 358.981853 329.207627 352.828557 382.361138 
L 354.590222 382.565077 
Q 353.057718 384.929095 351.43412 387.233459 
Q 350.586566 384.544077 349.623392 381.990094 
L 351.385057 382.194032 
Q 357.449151 329.811074 316.25757 294.734394 
L 317.199689 293.628036 
z
" style="fill:#5b5b5b;stroke:#5b5b5b;stroke-linecap:round;"/>
   </g>
   <g id="patch_21">
    <path d="M 334.475454 391.034811 
Q 294.50656 354.713972 302.524036 300.813952 
L 300.948738 300.579631 
Q 302.556352 298.270872 304.249126 296.01773 
Q 305.014556 298.73086 305.894325 301.315273 
L 304.319027 301.080952 
Q 296.44411 354.022571 335.695913 389.691769 
L 334.475454 391.034811 
z
" style="fill:#4a4a4a;stroke:#4a4a4a;stroke-linecap:round;"/>
   </g>
   <g id="patch_22">
    <path d="M 318.743357 281.995692 
Q 423.100718 255.027445 523.199614 291.250416 
L 523.786443 289.628769 
Q 525.72429 291.659408 527.628293 293.713363 
Q 524.842101 293.998704 522.085057 294.330395 
L 522.671885 292.708748 
Q 423.024184 256.649051 319.131391 283.497244 
L 318.743357 281.995692 
z
" style="fill:#565656;stroke:#565656;stroke-linecap:round;"/>
   </g>
   <g id="patch_23">
    <path d="M 524.003544 310.627848 
Q 420.221825 333.59787 320.670127 293.897054 
L 320.0984 295.330687 
Q 317.788947 292.747938 315.528919 290.131828 
Q 318.97833 289.899191 322.385316 289.596135 
L 321.813589 291.029769 
Q 420.482592 330.378569 523.336468 307.613907 
L 524.003544 310.627848 
z
" style="fill:#0c0c0c;stroke:#0c0c0c;stroke-linecap:round;"/>
   </g>
   <g id="patch_24">
    <path d="M 319.13534 288.982651 
Q 472.628044 338.25141 589.453729 448.600026 
L 590.401028 447.597124 
Q 591.365361 450.227474 592.308589 452.861026 
Q 589.636467 452.033316 586.967692 451.231984 
L 587.914991 450.229083 
Q 471.458985 340.229651 318.45047 291.116309 
L 319.13534 288.982651 
z
" style="fill:#333333;stroke:#333333;stroke-linecap:round;"/>
   </g>
   <g id="patch_25">
    <path d="M 584.581305 460.665273 
Q 432.547833 409.987318 316.915148 298.675513 
L 315.843801 299.788447 
Q 314.682577 296.52633 313.553206 293.259499 
Q 316.843637 294.318214 320.129189 295.33671 
L 319.057842 296.449644 
Q 434.18739 407.277113 585.558324 457.734222 
L 584.581305 460.665273 
z
" style="fill:#0a0a0a;stroke:#0a0a0a;stroke-linecap:round;"/>
   </g>
   <g id="patch_26">
    <path d="M 359.756686 387.964511 
Q 427.52417 320.498857 520.84704 305.023285 
L 520.599306 303.529366 
Q 523.283423 304.35141 525.947169 305.215899 
Q 523.654215 306.823911 521.417277 308.462005 
L 521.169543 306.968086 
Q 428.468396 322.340559 361.147534 389.361581 
L 359.756686 387.964511 
z
" style="fill:#414141;stroke:#414141;stroke-linecap:round;"/>
   </g>
   <g id="patch_27">
    <path d="M 531.785886 322.487804 
Q 463.140619 387.150905 369.250299 400.441958 
L 369.472531 402.011846 
Q 366.090488 400.889111 362.740456 399.700763 
Q 365.706236 397.741105 368.583602 395.732292 
L 368.805834 397.302181 
Q 461.699201 384.152256 529.611545 320.17956 
L 531.785886 322.487804 
z
" style="fill:#070707;stroke:#070707;stroke-linecap:round;"/>
   </g>
   <g id="patch_28">
    <path d="M 365.713121 399.071623 
Q 483.821064 394.200144 586.010967 452.702779 
L 586.745296 451.420085 
Q 588.301555 453.75142 589.82611 456.097132 
Q 587.034933 455.906895 584.261132 455.759317 
L 584.995461 454.476622 
Q 483.316756 396.266642 365.797355 401.113847 
L 365.713121 399.071623 
z
" style="fill:#3d3d3d;stroke:#3d3d3d;stroke-linecap:round;"/>
   </g>
   <g id="patch_29">
    <path d="M 584.16992 468.052885 
Q 466.271573 471.851152 364.3007 412.244109 
L 363.661111 413.338266 
Q 362.123748 410.991658 360.617774 408.630885 
Q 363.409631 408.84762 366.184382 409.021658 
L 365.544794 410.115815 
Q 466.902299 469.364313 584.09054 465.588924 
L 584.16992 468.052885 
z
" style="fill:#272727;stroke:#272727;stroke-linecap:round;"/>
   </g>
   <g id="patch_30">
    <path d="M 567.936175 321.123987 
Q 609.534521 373.645329 608.707683 440.792766 
L 610.375956 440.813309 
Q 608.665809 444.160459 606.853386 447.439639 
Q 605.331352 444.01542 603.702862 440.731138 
L 605.371136 440.751681 
Q 606.18339 374.788586 565.32043 323.195729 
L 567.936175 321.123987 
z
" style="stroke:#000000;stroke-linecap:round;"/>
   </g>
   <g id="patch_31">
    <path d="M 589.876213 450.902341 
Q 546.449153 398.673776 545.927738 331.645181 
L 544.469852 331.656522 
Q 545.905142 328.704815 547.421436 325.806415 
Q 548.82097 328.763345 550.301375 331.611158 
L 548.843489 331.622499 
Q 549.356807 397.610055 592.118265 449.038117 
L 589.876213 450.902341 
z
" style="fill:#131313;stroke:#131313;stroke-linecap:round;"/>
   </g>
   <g id="patch_32">
    <path clip-path="url(#p870b7a8633)" d="M 394.399141 576.564635 
C 397.413077 576.564635 400.303977 575.367185 402.435151 573.23601 
C 404.566326 571.104836 405.763776 568.213936 405.763776 565.2 
C 405.763776 562.186064 404.566326 559.295164 402.435151 557.16399 
C 400.303977 555.032815 397.413077 553.835365 394.399141 553.835365 
C 391.385204 553.835365 388.494305 555.032815 386.36313 557.16399 
C 384.231956 559.295164 383.034506 562.186064 383.034506 565.2 
C 383.034506 568.213936 384.231956 571.104836 386.36313 573.23601 
C 388.494305 575.367185 391.385204 576.564635 394.399141 576.564635 
z
" style="fill:#8000ff;stroke:#8000ff;stroke-linejoin:miter;"/>
   </g>
   <g id="patch_33">
    <path clip-path="url(#p870b7a8633)" d="M 306.264559 405.367506 
C 309.302027 405.367506 312.215498 404.160707 314.363313 402.012892 
C 316.511128 399.865077 317.717927 396.951606 317.717927 393.914137 
C 317.717927 390.876668 316.511128 387.963198 314.363313 385.815383 
C 312.215498 383.667568 309.302027 382.460769 306.264559 382.460769 
C 303.22709 382.460769 300.313619 383.667568 298.165804 385.815383 
C 296.017989 387.963198 294.81119 390.876668 294.81119 393.914137 
C 294.81119 396.951606 296.017989 399.865077 298.165804 402.012892 
C 300.313619 404.160707 303.22709 405.367506 306.264559 405.367506 
z
" style="fill:#2981f6;stroke:#2981f6;stroke-linejoin:miter;"/>
   </g>
   <g id="patch_34">
    <path clip-path="url(#p870b7a8633)" d="M 306.435331 295.724151 
C 308.961166 295.724151 311.383889 294.720626 313.169923 292.934592 
C 314.955958 291.148557 315.959482 288.725834 315.959482 286.2 
C 315.959482 283.674166 314.955958 281.251443 313.169923 279.465408 
C 311.383889 277.679374 308.961166 276.675849 306.435331 276.675849 
C 303.909497 276.675849 301.486774 277.679374 299.70074 279.465408 
C 297.914705 281.251443 296.91118 283.674166 296.91118 286.2 
C 296.91118 288.725834 297.914705 291.148557 299.70074 292.934592 
C 301.486774 294.720626 303.909497 295.724151 306.435331 295.724151 
z
" style="fill:#2adddd;stroke:#2adddd;stroke-linejoin:miter;"/>
   </g>
   <g id="patch_35">
    <path clip-path="url(#p870b7a8633)" d="M 348.549307 414.87549 
C 352.193924 414.87549 355.689757 413.427469 358.26689 410.850336 
C 360.844023 408.273202 362.292045 404.777369 362.292045 401.132752 
C 362.292045 397.488136 360.844023 393.992303 358.26689 391.415169 
C 355.689757 388.838036 352.193924 387.390015 348.549307 387.390015 
C 344.90469 387.390015 341.408857 388.838036 338.831724 391.415169 
C 336.254591 393.992303 334.806569 397.488136 334.806569 401.132752 
C 334.806569 404.777369 336.254591 408.273202 338.831724 410.850336 
C 341.408857 413.427469 344.90469 414.87549 348.549307 414.87549 
z
" style="fill:#80ffb4;stroke:#80ffb4;stroke-linejoin:miter;"/>
   </g>
   <g id="patch_36">
    <path clip-path="url(#p870b7a8633)" d="M 549.105592 325.364505 
C 555.152199 325.364505 560.951967 322.962162 565.227565 318.686565 
C 569.503162 314.410968 571.905505 308.6112 571.905505 302.564592 
C 571.905505 296.517985 569.503162 290.718216 565.227565 286.442619 
C 560.951967 282.167022 555.152199 279.764679 549.105592 279.764679 
C 543.058984 279.764679 537.259216 282.167022 532.983619 286.442619 
C 528.708022 290.718216 526.305679 296.517985 526.305679 302.564592 
C 526.305679 308.6112 528.708022 314.410968 532.983619 318.686565 
C 537.259216 322.962162 543.058984 325.364505 549.105592 325.364505 
z
" style="fill:#d4dd80;stroke:#d4dd80;stroke-linejoin:miter;"/>
   </g>
   <g id="patch_37">
    <path clip-path="url(#p870b7a8633)" d="M 605.329117 483.376695 
C 610.034482 483.376695 614.54776 481.507234 617.874955 478.180039 
C 621.202151 474.852843 623.071612 470.339565 623.071612 465.6342 
C 623.071612 460.928836 621.202151 456.415557 617.874955 453.088362 
C 614.54776 449.761167 610.034482 447.891706 605.329117 447.891706 
C 600.623753 447.891706 596.110474 449.761167 592.783279 453.088362 
C 589.456084 456.415557 587.586623 460.928836 587.586623 465.6342 
C 587.586623 470.339565 589.456084 474.852843 592.783279 478.180039 
C 596.110474 481.507234 600.623753 483.376695 605.329117 483.376695 
z
" style="fill:#ff7e41;stroke:#ff7e41;stroke-linejoin:miter;"/>
   </g>
   <g id="matplotlib.axis_1"/>
   <g id="matplotlib.axis_2"/>
   <g id="text_1">
    <!-- 1 -->
    <defs>
     <path d="M 11.71875 12.984375 
L 28.328125 12.984375 
L 28.328125 60.109375 
L 11.28125 56.59375 
L 11.28125 69.390625 
L 28.21875 72.90625 
L 46.09375 72.90625 
L 46.09375 12.984375 
L 62.703125 12.984375 
L 62.703125 0 
L 11.71875 0 
z
" id="BitstreamVeraSans-Bold-31"/>
    </defs>
    <g transform="translate(386.7455471707834 571.2706249999999)scale(0.22 -0.22)">
     <use xlink:href="#BitstreamVeraSans-Bold-31"/>
    </g>
   </g>
   <g id="text_2">
    <!-- 2 -->
    <defs>
     <path d="M 28.8125 13.8125 
L 60.890625 13.8125 
L 60.890625 0 
L 7.90625 0 
L 7.90625 13.8125 
L 34.515625 37.3125 
Q 38.09375 40.53125 39.796875 43.609375 
Q 41.5 46.6875 41.5 50 
Q 41.5 55.125 38.0625 58.25 
Q 34.625 61.375 28.90625 61.375 
Q 24.515625 61.375 19.28125 59.5 
Q 14.0625 57.625 8.109375 53.90625 
L 8.109375 69.921875 
Q 14.453125 72.015625 20.65625 73.109375 
Q 26.859375 74.21875 32.8125 74.21875 
Q 45.90625 74.21875 53.15625 68.453125 
Q 60.40625 62.703125 60.40625 52.390625 
Q 60.40625 46.4375 57.328125 41.28125 
Q 54.25 36.140625 44.390625 27.484375 
z
" id="BitstreamVeraSans-Bold-32"/>
    </defs>
    <g transform="translate(298.6109648181706 399.98476222458066)scale(0.22 -0.22)">
     <use xlink:href="#BitstreamVeraSans-Bold-32"/>
    </g>
   </g>
   <g id="text_3">
    <!-- 3 -->
    <defs>
     <path d="M 46.578125 39.3125 
Q 53.953125 37.40625 57.78125 32.6875 
Q 61.625 27.984375 61.625 20.703125 
Q 61.625 9.859375 53.3125 4.21875 
Q 45.015625 -1.421875 29.109375 -1.421875 
Q 23.484375 -1.421875 17.84375 -0.515625 
Q 12.203125 0.390625 6.6875 2.203125 
L 6.6875 16.703125 
Q 11.96875 14.0625 17.15625 12.71875 
Q 22.359375 11.375 27.390625 11.375 
Q 34.859375 11.375 38.84375 13.953125 
Q 42.828125 16.546875 42.828125 21.390625 
Q 42.828125 26.375 38.75 28.9375 
Q 34.671875 31.5 26.703125 31.5 
L 19.1875 31.5 
L 19.1875 43.609375 
L 27.09375 43.609375 
Q 34.1875 43.609375 37.640625 45.828125 
Q 41.109375 48.046875 41.109375 52.59375 
Q 41.109375 56.78125 37.734375 59.078125 
Q 34.375 61.375 28.21875 61.375 
Q 23.6875 61.375 19.046875 60.34375 
Q 14.40625 59.328125 9.8125 57.328125 
L 9.8125 71.09375 
Q 15.375 72.65625 20.84375 73.4375 
Q 26.3125 74.21875 31.59375 74.21875 
Q 45.796875 74.21875 52.84375 69.546875 
Q 59.90625 64.890625 59.90625 55.515625 
Q 59.90625 49.125 56.53125 45.046875 
Q 53.171875 40.96875 46.578125 39.3125 
" id="BitstreamVeraSans-Bold-33"/>
    </defs>
    <g transform="translate(298.7817376308607 292.2706249999999)scale(0.22 -0.22)">
     <use xlink:href="#BitstreamVeraSans-Bold-33"/>
    </g>
   </g>
   <g id="text_4">
    <!-- 4 -->
    <defs>
     <path d="M 36.8125 57.421875 
L 16.21875 26.90625 
L 36.8125 26.90625 
z
M 33.6875 72.90625 
L 54.59375 72.90625 
L 54.59375 26.90625 
L 64.984375 26.90625 
L 64.984375 13.28125 
L 54.59375 13.28125 
L 54.59375 0 
L 36.8125 0 
L 36.8125 13.28125 
L 4.5 13.28125 
L 4.5 29.390625 
z
" id="BitstreamVeraSans-Bold-34"/>
    </defs>
    <g transform="translate(340.89571334357544 407.20337743811695)scale(0.22 -0.22)">
     <use xlink:href="#BitstreamVeraSans-Bold-34"/>
    </g>
   </g>
   <g id="text_5">
    <!-- 5 -->
    <defs>
     <path d="M 10.59375 72.90625 
L 57.328125 72.90625 
L 57.328125 59.078125 
L 25.59375 59.078125 
L 25.59375 47.796875 
Q 27.734375 48.390625 29.90625 48.703125 
Q 32.078125 49.03125 34.421875 49.03125 
Q 47.75 49.03125 55.171875 42.359375 
Q 62.59375 35.6875 62.59375 23.78125 
Q 62.59375 11.96875 54.515625 5.265625 
Q 46.4375 -1.421875 32.078125 -1.421875 
Q 25.875 -1.421875 19.796875 -0.21875 
Q 13.71875 0.984375 7.71875 3.421875 
L 7.71875 18.21875 
Q 13.671875 14.796875 19.015625 13.078125 
Q 24.359375 11.375 29.109375 11.375 
Q 35.9375 11.375 39.859375 14.71875 
Q 43.796875 18.0625 43.796875 23.78125 
Q 43.796875 29.546875 39.859375 32.859375 
Q 35.9375 36.1875 29.109375 36.1875 
Q 25.046875 36.1875 20.453125 35.125 
Q 15.875 34.078125 10.59375 31.890625 
z
" id="BitstreamVeraSans-Bold-35"/>
    </defs>
    <g transform="translate(541.451997981313 308.6352172211232)scale(0.22 -0.22)">
     <use xlink:href="#BitstreamVeraSans-Bold-35"/>
    </g>
   </g>
   <g id="text_6">
    <!-- 6 -->
    <defs>
     <path d="M 36.1875 35.984375 
Q 31.25 35.984375 28.78125 32.78125 
Q 26.3125 29.59375 26.3125 23.1875 
Q 26.3125 16.796875 28.78125 13.59375 
Q 31.25 10.40625 36.1875 10.40625 
Q 41.15625 10.40625 43.625 13.59375 
Q 46.09375 16.796875 46.09375 23.1875 
Q 46.09375 29.59375 43.625 32.78125 
Q 41.15625 35.984375 36.1875 35.984375 
M 59.421875 71 
L 59.421875 57.515625 
Q 54.78125 59.71875 50.671875 60.765625 
Q 46.578125 61.8125 42.671875 61.8125 
Q 34.28125 61.8125 29.59375 57.140625 
Q 24.90625 52.484375 24.125 43.3125 
Q 27.34375 45.703125 31.09375 46.890625 
Q 34.859375 48.09375 39.3125 48.09375 
Q 50.484375 48.09375 57.34375 41.546875 
Q 64.203125 35.015625 64.203125 24.421875 
Q 64.203125 12.703125 56.53125 5.640625 
Q 48.875 -1.421875 35.984375 -1.421875 
Q 21.78125 -1.421875 13.984375 8.171875 
Q 6.203125 17.78125 6.203125 35.40625 
Q 6.203125 53.46875 15.3125 63.796875 
Q 24.421875 74.125 40.28125 74.125 
Q 45.3125 74.125 50.046875 73.34375 
Q 54.78125 72.5625 59.421875 71 
" id="BitstreamVeraSans-Bold-36"/>
    </defs>
    <g transform="translate(597.6755233863412 471.70482540246223)scale(0.22 -0.22)">
     <use xlink:href="#BitstreamVeraSans-Bold-36"/>
    </g>
   </g>
  </g>
 </g>
 <defs>
  <clipPath id="p870b7a8633">
   <rect height="837.0" width="897.1936757045117" x="7.200000000000017" y="7.199999999999932"/>
  </clipPath>
 </defs>
</svg>
