<?xml version="1.0" encoding="utf-8" standalone="no"?>
<!DOCTYPE svg PUBLIC "-//W3C//DTD SVG 1.1//EN"
  "http://www.w3.org/Graphics/SVG/1.1/DTD/svg11.dtd">
<!-- Created with matplotlib (http://matplotlib.org/) -->
<svg height="572pt" version="1.1" viewBox="0 0 818 572" width="818pt" xmlns="http://www.w3.org/2000/svg" xmlns:xlink="http://www.w3.org/1999/xlink">
 <defs>
  <style type="text/css">
*{stroke-linecap:butt;stroke-linejoin:round;stroke-miterlimit:100000;}
  </style>
 </defs>
 <g id="figure_1">
  <g id="patch_1">
   <path d="M 0 572.4 
L 818.927369 572.4 
L 818.927369 0 
L 0 0 
z
" style="fill:#ffffff;"/>
  </g>
  <g id="axes_1">
   <g id="patch_2">
    <path d="M 291.798214 359.397446 
Q 382.078458 269.375595 495.633467 212.908401 
L 494.732908 211.097384 
Q 499.270494 211.099879 503.794885 211.154766 
Q 501.034718 214.740132 498.335137 218.341434 
L 497.434577 216.530417 
Q 384.468745 272.704633 294.654444 362.261874 
L 291.798214 359.397446 
z
" style="fill:#939393;stroke:#939393;stroke-linecap:round;"/>
   </g>
   <g id="patch_3">
    <path d="M 510.989845 226.601777 
Q 417.811256 314.762521 300.822024 368.592359 
L 301.644719 370.380337 
Q 298.84379 370.29313 296.047978 370.186513 
Q 297.812888 368.015552 299.554717 365.838102 
L 300.377413 367.62608 
Q 417.207489 313.869475 510.258816 225.82914 
L 510.989845 226.601777 
z
" style="fill:#959595;stroke:#959595;stroke-linecap:round;"/>
   </g>
   <g id="patch_4">
    <path clip-path="url(#pa6f419acbc)" d="M 275.37579 401.319145 
C 281.241856 401.319145 286.868453 398.988533 291.016388 394.840598 
C 295.164323 390.692663 297.494935 385.066066 297.494935 379.2 
C 297.494935 373.333934 295.164323 367.707337 291.016388 363.559402 
C 286.868453 359.411467 281.241856 357.080855 275.37579 357.080855 
C 269.509724 357.080855 263.883127 359.411467 259.735192 363.559402 
C 255.587257 367.707337 253.256644 373.333934 253.256644 379.2 
C 253.256644 385.066066 255.587257 390.692663 259.735192 394.840598 
C 263.883127 398.988533 269.509724 401.319145 275.37579 401.319145 
z
" style="fill:#8000ff;stroke:#8000ff;stroke-linejoin:miter;"/>
   </g>
   <g id="patch_5">
    <path clip-path="url(#pa6f419acbc)" d="M 543.55158 236.335225 
C 554.991175 236.335225 565.963774 231.790226 574.05279 223.70121 
C 582.141806 215.612195 586.686805 204.639596 586.686805 193.2 
C 586.686805 181.760404 582.141806 170.787805 574.05279 162.69879 
C 565.963774 154.609774 554.991175 150.064775 543.55158 150.064775 
C 532.111984 150.064775 521.139385 154.609774 513.050369 162.69879 
C 504.961354 170.787805 500.416354 181.760404 500.416354 193.2 
C 500.416354 204.639596 504.961354 215.612195 513.050369 223.70121 
C 521.139385 231.790226 532.111984 236.335225 543.55158 236.335225 
z
" style="fill:#80ffb4;stroke:#80ffb4;stroke-linejoin:miter;"/>
   </g>
   <g id="matplotlib.axis_1"/>
   <g id="matplotlib.axis_2"/>
   <g id="text_1">
    <!-- 1 -->
    <defs>
     <path d="M 11.71875 12.984375 
L 28.328125 12.984375 
L 28.328125 60.109375 
L 11.28125 56.59375 
L 11.28125 69.390625 
L 28.21875 72.90625 
L 46.09375 72.90625 
L 46.09375 12.984375 
L 62.703125 12.984375 
L 62.703125 0 
L 11.71875 0 
z
" id="BitstreamVeraSans-Bold-31"/>
    </defs>
    <g transform="translate(267.7221960627263 385.270625)scale(0.22 -0.22)">
     <use xlink:href="#BitstreamVeraSans-Bold-31"/>
    </g>
   </g>
   <g id="text_2">
    <!-- 2 -->
    <defs>
     <path d="M 28.8125 13.8125 
L 60.890625 13.8125 
L 60.890625 0 
L 7.90625 0 
L 7.90625 13.8125 
L 34.515625 37.3125 
Q 38.09375 40.53125 39.796875 43.609375 
Q 41.5 46.6875 41.5 50 
Q 41.5 55.125 38.0625 58.25 
Q 34.625 61.375 28.90625 61.375 
Q 24.515625 61.375 19.28125 59.5 
Q 14.0625 57.625 8.109375 53.90625 
L 8.109375 69.921875 
Q 14.453125 72.015625 20.65625 73.109375 
Q 26.859375 74.21875 32.8125 74.21875 
Q 45.90625 74.21875 53.15625 68.453125 
Q 60.40625 62.703125 60.40625 52.390625 
Q 60.40625 46.4375 57.328125 41.28125 
Q 54.25 36.140625 44.390625 27.484375 
z
" id="BitstreamVeraSans-Bold-32"/>
    </defs>
    <g transform="translate(535.8979858754526 199.270625)scale(0.22 -0.22)">
     <use xlink:href="#BitstreamVeraSans-Bold-32"/>
    </g>
   </g>
  </g>
 </g>
 <defs>
  <clipPath id="pa6f419acbc">
   <rect height="558.0" width="804.5273694381788" x="7.200000000000017" y="7.199999999999932"/>
  </clipPath>
 </defs>
</svg>
