<?xml version="1.0" encoding="utf-8" standalone="no"?>
<!DOCTYPE svg PUBLIC "-//W3C//DTD SVG 1.1//EN"
  "http://www.w3.org/Graphics/SVG/1.1/DTD/svg11.dtd">
<!-- Created with matplotlib (http://matplotlib.org/) -->
<svg height="1409pt" version="1.1" viewBox="0 0 1153 1409" width="1153pt" xmlns="http://www.w3.org/2000/svg" xmlns:xlink="http://www.w3.org/1999/xlink">
 <defs>
  <style type="text/css">
*{stroke-linecap:butt;stroke-linejoin:round;stroke-miterlimit:100000;}
  </style>
 </defs>
 <g id="figure_1">
  <g id="patch_1">
   <path d="M 0 1409.4 
L 1153.005975 1409.4 
L 1153.005975 0 
L 0 0 
z
" style="fill:#ffffff;"/>
  </g>
  <g id="axes_1">
   <g id="patch_2">
    <path d="M 503.258709 922.572664 
Q 585.344331 801.141866 716.817982 742.814559 
L 716.082223 741.15611 
Q 720.150351 741.33627 724.204617 741.576472 
Q 721.576597 744.673068 719.025257 747.789905 
L 718.289499 746.131457 
Q 587.767508 804.036567 506.264943 924.604838 
L 503.258709 922.572664 
z
" style="fill:#6e6eff;stroke:#6e6eff;stroke-linecap:round;"/>
   </g>
   <g id="patch_3">
    <path d="M 486.642998 923.623314 
Q 384.699705 734.133531 384.052108 520.872367 
L 382.526675 520.876999 
Q 384.042829 517.812642 385.579759 514.764173 
Q 387.093713 517.824134 388.628387 520.85847 
L 387.102954 520.863103 
Q 387.748232 733.360614 489.329723 922.177887 
L 486.642998 923.623314 
z
" style="fill:#8484ff;stroke:#8484ff;stroke-linecap:round;"/>
   </g>
   <g id="patch_4">
    <path d="M 467.23103 655.646334 
Q 602.186378 643.327284 722.741887 700.915286 
L 723.325991 699.692514 
Q 725.050963 701.90184 726.74903 704.125129 
Q 723.951513 704.14717 721.170815 704.204189 
L 721.754919 702.981417 
Q 601.767527 645.664798 467.439179 657.926613 
L 467.23103 655.646334 
z
" style="fill:#a4a4ff;stroke:#a4a4ff;stroke-linecap:round;"/>
   </g>
   <g id="patch_5">
    <path d="M 720.896869 709.804427 
Q 548.478961 640.500628 418.42233 507.749554 
L 417.374003 508.776603 
Q 416.513451 506.112037 415.670011 503.445653 
Q 418.308692 504.372151 420.945597 505.277501 
L 419.89727 506.30455 
Q 549.650845 638.74629 721.666947 707.888582 
L 720.896869 709.804427 
z
" style="fill:#acacff;stroke:#acacff;stroke-linecap:round;"/>
   </g>
   <g id="patch_6">
    <path d="M 737.830686 686.863232 
Q 698.106588 619.021325 711.901508 541.812144 
L 709.999873 541.47238 
Q 711.673049 539.215438 713.390987 536.99977 
Q 714.12474 539.70589 714.921927 542.351801 
L 713.020291 542.012037 
Q 699.299077 618.808689 738.811428 686.288969 
L 737.830686 686.863232 
z
" style="fill:#d2d2ff;stroke:#d2d2ff;stroke-linecap:round;"/>
   </g>
   <g id="patch_7">
    <path d="M 754.568155 532.230415 
Q 794.562502 600.25937 780.868979 677.686262 
L 782.116351 677.906869 
Q 780.447404 680.165256 778.733619 682.382287 
Q 777.994868 679.679045 777.19276 677.036095 
L 778.440132 677.256702 
Q 791.975264 600.725398 752.44185 533.480474 
L 754.568155 532.230415 
z
" style="fill:#ff9c9c;stroke:#ff9c9c;stroke-linecap:round;"/>
   </g>
   <g id="patch_8">
    <path d="M 431.044354 461.392075 
Q 557.183323 438.534 679.373547 476.539985 
L 679.848175 475.014045 
Q 681.873062 476.952962 683.87485 478.908345 
Q 681.10896 479.333383 678.363154 479.788426 
L 678.837781 478.262486 
Q 557.069832 440.387846 431.366007 463.167066 
L 431.044354 461.392075 
z
" style="fill:#ffb6b6;stroke:#ffb6b6;stroke-linecap:round;"/>
   </g>
   <g id="patch_9">
    <path d="M 679.592728 505.952957 
Q 553.83266 528.272823 431.995261 490.133899 
L 431.545957 491.569229 
Q 429.112565 489.231478 426.712523 486.870001 
Q 430.042343 486.370669 433.343171 485.827908 
L 432.893867 487.263238 
Q 554.030259 525.182725 679.06708 502.991222 
L 679.592728 505.952957 
z
" style="fill:#ff8686;stroke:#ff8686;stroke-linecap:round;"/>
   </g>
   <g id="patch_10">
    <path clip-path="url(#p912a5fb4d6)" d="M 495.842749 950.013634 
C 499.240965 950.013634 502.500455 948.663509 504.903357 946.260607 
C 507.306258 943.857706 508.656383 940.598215 508.656383 937.2 
C 508.656383 933.801785 507.306258 930.542294 504.903357 928.139393 
C 502.500455 925.736491 499.240965 924.386366 495.842749 924.386366 
C 492.444534 924.386366 489.185043 925.736491 486.782142 928.139393 
C 484.37924 930.542294 483.029115 933.801785 483.029115 937.2 
C 483.029115 940.598215 484.37924 943.857706 486.782142 946.260607 
C 489.185043 948.663509 492.444534 950.013634 495.842749 950.013634 
z
" style="fill:#8000ff;stroke:#8000ff;stroke-linejoin:miter;"/>
   </g>
   <g id="patch_11">
    <path clip-path="url(#p912a5fb4d6)" d="M 766.27065 770.11137 
C 778.074988 770.11137 789.397441 765.421457 797.744369 757.074529 
C 806.091297 748.727601 810.781211 737.405148 810.781211 725.600809 
C 810.781211 713.796471 806.091297 702.474018 797.744369 694.12709 
C 789.397441 685.780162 778.074988 681.090249 766.27065 681.090249 
C 754.466311 681.090249 743.143858 685.780162 734.79693 694.12709 
C 726.450002 702.474018 721.760089 713.796471 721.760089 725.600809 
C 721.760089 737.405148 726.450002 748.727601 734.79693 757.074529 
C 743.143858 765.421457 754.466311 770.11137 766.27065 770.11137 
z
" style="fill:#b2f396;stroke:#b2f396;stroke-linejoin:miter;"/>
   </g>
   <g id="patch_12">
    <path clip-path="url(#p912a5fb4d6)" d="M 444.671316 678.640112 
C 449.790906 678.640112 454.7015 676.606077 458.321597 672.985981 
C 461.941693 669.365884 463.975728 664.45529 463.975728 659.3357 
C 463.975728 654.21611 461.941693 649.305516 458.321597 645.68542 
C 454.7015 642.065323 449.790906 640.031289 444.671316 640.031289 
C 439.551726 640.031289 434.641132 642.065323 431.021036 645.68542 
C 427.400939 649.305516 425.366905 654.21611 425.366905 659.3357 
C 425.366905 664.45529 427.400939 669.365884 431.021036 672.985981 
C 434.641132 676.606077 439.551726 678.640112 444.671316 678.640112 
z
" style="fill:#1996f3;stroke:#1996f3;stroke-linejoin:miter;"/>
   </g>
   <g id="patch_13">
    <path clip-path="url(#p912a5fb4d6)" d="M 386.735325 514.280612 
C 397.895234 514.280612 408.599564 509.846733 416.490811 501.955486 
C 424.382058 494.064239 428.815937 483.359909 428.815937 472.2 
C 428.815937 461.040091 424.382058 450.335761 416.490811 442.444514 
C 408.599564 434.553267 397.895234 430.119388 386.735325 430.119388 
C 375.575416 430.119388 364.871086 434.553267 356.979839 442.444514 
C 349.088591 450.335761 344.654713 461.040091 344.654713 472.2 
C 344.654713 483.359909 349.088591 494.064239 356.979839 501.955486 
C 364.871086 509.846733 375.575416 514.280612 386.735325 514.280612 
z
" style="fill:#4df3ce;stroke:#4df3ce;stroke-linejoin:miter;"/>
   </g>
   <g id="patch_14">
    <path clip-path="url(#p912a5fb4d6)" d="M 725.770968 538.286744 
C 737.463405 538.286744 748.678525 533.641289 756.946326 525.373488 
C 765.214128 517.105686 769.859582 505.890567 769.859582 494.19813 
C 769.859582 482.505693 765.214128 471.290574 756.946326 463.022772 
C 748.678525 454.754971 737.463405 450.109516 725.770968 450.109516 
C 714.078531 450.109516 702.863412 454.754971 694.595611 463.022772 
C 686.327809 471.290574 681.682355 482.505693 681.682355 494.19813 
C 681.682355 505.890567 686.327809 517.105686 694.595611 525.373488 
C 702.863412 533.641289 714.078531 538.286744 725.770968 538.286744 
z
" style="fill:#ff964f;stroke:#ff964f;stroke-linejoin:miter;"/>
   </g>
   <g id="matplotlib.axis_1"/>
   <g id="matplotlib.axis_2"/>
   <g id="text_1">
    <!-- 1 -->
    <defs>
     <path d="M 11.71875 12.984375 
L 28.328125 12.984375 
L 28.328125 60.109375 
L 11.28125 56.59375 
L 11.28125 69.390625 
L 28.21875 72.90625 
L 46.09375 72.90625 
L 46.09375 12.984375 
L 62.703125 12.984375 
L 62.703125 0 
L 11.71875 0 
z
" id="BitstreamVeraSans-Bold-31"/>
    </defs>
    <g transform="translate(488.1891553917453 943.2706250000001)scale(0.22 -0.22)">
     <use xlink:href="#BitstreamVeraSans-Bold-31"/>
    </g>
   </g>
   <g id="text_2">
    <!-- 4 -->
    <defs>
     <path d="M 36.8125 57.421875 
L 16.21875 26.90625 
L 36.8125 26.90625 
z
M 33.6875 72.90625 
L 54.59375 72.90625 
L 54.59375 26.90625 
L 64.984375 26.90625 
L 64.984375 13.28125 
L 54.59375 13.28125 
L 54.59375 0 
L 36.8125 0 
L 36.8125 13.28125 
L 4.5 13.28125 
L 4.5 29.390625 
z
" id="BitstreamVeraSans-Bold-34"/>
    </defs>
    <g transform="translate(758.6170559906647 731.6714344647372)scale(0.22 -0.22)">
     <use xlink:href="#BitstreamVeraSans-Bold-34"/>
    </g>
   </g>
   <g id="text_3">
    <!-- 2 -->
    <defs>
     <path d="M 28.8125 13.8125 
L 60.890625 13.8125 
L 60.890625 0 
L 7.90625 0 
L 7.90625 13.8125 
L 34.515625 37.3125 
Q 38.09375 40.53125 39.796875 43.609375 
Q 41.5 46.6875 41.5 50 
Q 41.5 55.125 38.0625 58.25 
Q 34.625 61.375 28.90625 61.375 
Q 24.515625 61.375 19.28125 59.5 
Q 14.0625 57.625 8.109375 53.90625 
L 8.109375 69.921875 
Q 14.453125 72.015625 20.65625 73.109375 
Q 26.859375 74.21875 32.8125 74.21875 
Q 45.90625 74.21875 53.15625 68.453125 
Q 60.40625 62.703125 60.40625 52.390625 
Q 60.40625 46.4375 57.328125 41.28125 
Q 54.25 36.140625 44.390625 27.484375 
z
" id="BitstreamVeraSans-Bold-32"/>
    </defs>
    <g transform="translate(437.01772239680815 665.4063252018602)scale(0.22 -0.22)">
     <use xlink:href="#BitstreamVeraSans-Bold-32"/>
    </g>
   </g>
   <g id="text_4">
    <!-- 3 -->
    <defs>
     <path d="M 46.578125 39.3125 
Q 53.953125 37.40625 57.78125 32.6875 
Q 61.625 27.984375 61.625 20.703125 
Q 61.625 9.859375 53.3125 4.21875 
Q 45.015625 -1.421875 29.109375 -1.421875 
Q 23.484375 -1.421875 17.84375 -0.515625 
Q 12.203125 0.390625 6.6875 2.203125 
L 6.6875 16.703125 
Q 11.96875 14.0625 17.15625 12.71875 
Q 22.359375 11.375 27.390625 11.375 
Q 34.859375 11.375 38.84375 13.953125 
Q 42.828125 16.546875 42.828125 21.390625 
Q 42.828125 26.375 38.75 28.9375 
Q 34.671875 31.5 26.703125 31.5 
L 19.1875 31.5 
L 19.1875 43.609375 
L 27.09375 43.609375 
Q 34.1875 43.609375 37.640625 45.828125 
Q 41.109375 48.046875 41.109375 52.59375 
Q 41.109375 56.78125 37.734375 59.078125 
Q 34.375 61.375 28.21875 61.375 
Q 23.6875 61.375 19.046875 60.34375 
Q 14.40625 59.328125 9.8125 57.328125 
L 9.8125 71.09375 
Q 15.375 72.65625 20.84375 73.4375 
Q 26.3125 74.21875 31.59375 74.21875 
Q 45.796875 74.21875 52.84375 69.546875 
Q 59.90625 64.890625 59.90625 55.515625 
Q 59.90625 49.125 56.53125 45.046875 
Q 53.171875 40.96875 46.578125 39.3125 
" id="BitstreamVeraSans-Bold-33"/>
    </defs>
    <g transform="translate(379.08173112033234 478.270625)scale(0.22 -0.22)">
     <use xlink:href="#BitstreamVeraSans-Bold-33"/>
    </g>
   </g>
   <g id="text_5">
    <!-- 5 -->
    <defs>
     <path d="M 10.59375 72.90625 
L 57.328125 72.90625 
L 57.328125 59.078125 
L 25.59375 59.078125 
L 25.59375 47.796875 
Q 27.734375 48.390625 29.90625 48.703125 
Q 32.078125 49.03125 34.421875 49.03125 
Q 47.75 49.03125 55.171875 42.359375 
Q 62.59375 35.6875 62.59375 23.78125 
Q 62.59375 11.96875 54.515625 5.265625 
Q 46.4375 -1.421875 32.078125 -1.421875 
Q 25.875 -1.421875 19.796875 -0.21875 
Q 13.71875 0.984375 7.71875 3.421875 
L 7.71875 18.21875 
Q 13.671875 14.796875 19.015625 13.078125 
Q 24.359375 11.375 29.109375 11.375 
Q 35.9375 11.375 39.859375 14.71875 
Q 43.796875 18.0625 43.796875 23.78125 
Q 43.796875 29.546875 39.859375 32.859375 
Q 35.9375 36.1875 29.109375 36.1875 
Q 25.046875 36.1875 20.453125 35.125 
Q 15.875 34.078125 10.59375 31.890625 
z
" id="BitstreamVeraSans-Bold-35"/>
    </defs>
    <g transform="translate(718.1173745925614 500.2687551200937)scale(0.22 -0.22)">
     <use xlink:href="#BitstreamVeraSans-Bold-35"/>
    </g>
   </g>
  </g>
 </g>
 <defs>
  <clipPath id="p912a5fb4d6">
   <rect height="1395.0" width="1138.6059746109968" x="7.200000000000017" y="7.2000000000000455"/>
  </clipPath>
 </defs>
</svg>
