<?xml version="1.0" encoding="utf-8" standalone="no"?>
<!DOCTYPE svg PUBLIC "-//W3C//DTD SVG 1.1//EN"
  "http://www.w3.org/Graphics/SVG/1.1/DTD/svg11.dtd">
<!-- Created with matplotlib (http://matplotlib.org/) -->
<svg height="1409pt" version="1.1" viewBox="0 0 1153 1409" width="1153pt" xmlns="http://www.w3.org/2000/svg" xmlns:xlink="http://www.w3.org/1999/xlink">
 <defs>
  <style type="text/css">
*{stroke-linecap:butt;stroke-linejoin:round;stroke-miterlimit:100000;}
  </style>
 </defs>
 <g id="figure_1">
  <g id="patch_1">
   <path d="M 0 1409.4 
L 1153.005975 1409.4 
L 1153.005975 0 
L 0 0 
z
" style="fill:#ffffff;"/>
  </g>
  <g id="axes_1">
   <g id="patch_2">
    <path d="M 504.761751 923.5887 
Q 587.198224 801.638881 719.614307 743.563979 
L 718.610223 741.274576 
Q 721.410706 741.411309 724.204617 741.576472 
Q 722.393336 743.710159 720.618463 745.853547 
L 719.614379 743.564144 
Q 587.198344 801.639025 504.7619 923.588801 
L 504.761751 923.5887 
z
" style="fill:#717171;stroke:#717171;stroke-linecap:round;"/>
   </g>
   <g id="patch_3">
    <path d="M 738.839416 764.969272 
Q 650.964278 879.983586 513.102841 931.114432 
L 513.972158 933.458326 
Q 511.184443 933.159019 508.403215 932.833562 
Q 510.336015 930.807335 512.233461 928.770369 
L 513.102778 931.114263 
Q 650.964167 879.983435 738.839273 764.969163 
L 738.839416 764.969272 
z
" style="fill:#727272;stroke:#727272;stroke-linecap:round;"/>
   </g>
   <g id="patch_4">
    <path d="M 486.429612 923.921583 
Q 411.348773 813.088344 438.755471 683.381021 
L 436.309585 682.864214 
Q 438.051257 680.668183 439.821977 678.498785 
Q 440.490096 681.218313 441.201573 683.897874 
L 438.755686 683.381066 
Q 411.349007 813.088298 486.429794 923.921459 
L 486.429612 923.921583 
z
" style="fill:#6b6b6b;stroke:#6b6b6b;stroke-linecap:round;"/>
   </g>
   <g id="patch_5">
    <path d="M 457.666247 678.001173 
Q 530.266431 789.2998 500.365097 919.475084 
L 502.801303 920.034682 
Q 501.02105 922.201173 499.212646 924.34178 
Q 498.592073 921.609035 497.928209 918.91533 
L 500.364415 919.474928 
Q 530.265683 789.299933 457.66566 678.001555 
L 457.666247 678.001173 
z
" style="stroke:#000000;stroke-linecap:round;"/>
   </g>
   <g id="patch_6">
    <path d="M 487.986272 922.900648 
Q 385.960841 733.258189 385.574765 519.76711 
L 383.074869 519.771631 
Q 384.320343 517.26257 385.579759 514.764173 
Q 386.820345 517.271982 388.074861 519.762589 
L 385.574965 519.767109 
Q 385.961041 733.258138 487.986448 922.900553 
L 487.986272 922.900648 
z
" style="fill:#6f6f6f;stroke:#6f6f6f;stroke-linecap:round;"/>
   </g>
   <g id="patch_7">
    <path d="M 408.02861 512.463898 
Q 503.139826 703.760102 496.581811 918.911935 
L 499.080501 918.988097 
Q 497.754792 921.452562 496.415835 923.90666 
Q 495.256385 921.362819 494.082822 918.835763 
L 496.581511 918.911925 
Q 503.139524 703.760168 408.028342 512.464032 
L 408.02861 512.463898 
z
" style="fill:#5c5c5c;stroke:#5c5c5c;stroke-linecap:round;"/>
   </g>
   <g id="patch_8">
    <path d="M 499.503476 921.341975 
Q 551.661109 703.273616 693.29777 531.646943 
L 691.36976 530.055833 
Q 693.927739 528.9201 696.489072 527.799793 
Q 695.848005 530.52093 695.226134 533.238345 
L 693.298125 531.647235 
Q 551.661531 703.273826 499.503924 921.342082 
L 499.503476 921.341975 
z
" style="fill:#353535;stroke:#353535;stroke-linecap:round;"/>
   </g>
   <g id="patch_9">
    <path d="M 714.35757 540.403007 
Q 655.932743 755.194738 508.046271 923.553805 
L 509.924343 925.203501 
Q 507.332642 926.259888 504.737862 927.301377 
Q 505.462405 924.600886 506.167794 921.903752 
L 508.045865 923.553449 
Q 655.932254 755.194475 714.357048 540.402865 
L 714.35757 540.403007 
z
" style="fill:#232323;stroke:#232323;stroke-linecap:round;"/>
   </g>
   <g id="patch_10">
    <path d="M 718.482796 729.841866 
Q 585.164141 735.593649 466.221122 671.577276 
L 465.036362 673.77857 
Q 463.420702 671.489428 461.830449 669.187559 
Q 464.626021 669.299114 467.406004 669.375753 
L 466.221245 671.577047 
Q 585.164201 735.593386 718.482785 729.841606 
L 718.482796 729.841866 
z
" style="fill:#626262;stroke:#626262;stroke-linecap:round;"/>
   </g>
   <g id="patch_11">
    <path d="M 467.335092 656.786334 
Q 601.976978 644.495898 722.248463 701.948225 
L 723.325991 699.692514 
Q 725.050963 701.90184 726.74903 704.125129 
Q 723.951513 704.14717 721.170815 704.204189 
L 722.248343 701.948478 
Q 601.976927 644.496184 467.335117 656.786613 
L 467.335092 656.786334 
z
" style="fill:#616161;stroke:#616161;stroke-linecap:round;"/>
   </g>
   <g id="patch_12">
    <path d="M 721.281856 708.846634 
Q 549.064824 639.623578 419.1597 507.02715 
L 417.374003 508.776603 
Q 416.513451 506.112037 415.670011 503.445653 
Q 418.308692 504.372151 420.945597 505.277501 
L 419.1599 507.026954 
Q 549.064982 639.62334 721.28196 708.846374 
L 721.281856 708.846634 
z
" style="fill:#616161;stroke:#616161;stroke-linecap:round;"/>
   </g>
   <g id="patch_13">
    <path d="M 429.471273 488.052018 
Q 601.963031 556.860175 732.143768 689.040376 
L 733.92482 687.286265 
Q 734.791404 689.947567 735.640842 692.610702 
Q 733.000738 691.69216 730.362445 690.794753 
L 732.143497 689.040643 
Q 601.962816 556.860499 429.471132 488.052371 
L 429.471273 488.052018 
z
" style="fill:#4b4b4b;stroke:#4b4b4b;stroke-linecap:round;"/>
   </g>
   <g id="patch_14">
    <path d="M 738.320902 686.576192 
Q 698.702644 618.915041 712.460723 541.912059 
L 709.999873 541.47238 
Q 711.673049 539.215438 713.390987 536.99977 
Q 714.12474 539.70589 714.921927 542.351801 
L 712.461077 541.912122 
Q 698.703021 618.914973 738.321213 686.57601 
L 738.320902 686.576192 
z
" style="fill:#525252;stroke:#525252;stroke-linecap:round;"/>
   </g>
   <g id="patch_15">
    <path d="M 753.505261 532.855292 
Q 793.269198 600.492328 779.654851 677.471534 
L 782.116351 677.906869 
Q 780.447404 680.165256 778.733619 682.382287 
Q 777.994868 679.679045 777.19276 677.036095 
L 779.65426 677.47143 
Q 793.268568 600.492441 753.504744 532.855596 
L 753.505261 532.855292 
z
" style="fill:#171717;stroke:#171717;stroke-linecap:round;"/>
   </g>
   <g id="patch_16">
    <path d="M 427.362881 644.470196 
Q 371.354274 591.189736 377.217019 518.754303 
L 374.725407 518.552638 
Q 376.174804 516.142614 377.690321 513.780234 
Q 378.660492 516.414321 379.70911 518.956006 
L 377.217497 518.754341 
Q 371.354771 591.189546 427.363212 644.469848 
L 427.362881 644.470196 
z
" style="fill:#303030;stroke:#303030;stroke-linecap:round;"/>
   </g>
   <g id="patch_17">
    <path d="M 419.643886 503.708905 
Q 466.280032 559.942485 450.954622 635.358952 
L 453.404304 635.856753 
Q 451.678399 638.072085 449.900039 640.24938 
Q 449.240624 637.516196 448.504449 634.861052 
L 450.954132 635.358853 
Q 466.279494 559.94262 419.643501 503.709224 
L 419.643886 503.708905 
z
" style="fill:#2c2c2c;stroke:#2c2c2c;stroke-linecap:round;"/>
   </g>
   <g id="patch_18">
    <path d="M 459.55595 642.051792 
Q 549.769307 541.808351 677.498385 505.424732 
L 676.813555 503.020557 
Q 679.568801 503.535482 682.312919 504.079842 
Q 680.229303 505.946718 678.183318 507.829273 
L 677.498489 505.425098 
Q 549.769516 541.808686 459.556232 642.052046 
L 459.55595 642.051792 
z
" style="fill:#4b4b4b;stroke:#4b4b4b;stroke-linecap:round;"/>
   </g>
   <g id="patch_19">
    <path d="M 693.853414 529.503441 
Q 600.144006 623.85365 468.9018 654.314963 
L 469.466957 656.749936 
Q 466.739112 656.099811 464.022042 655.422288 
Q 466.197565 653.65911 468.336507 651.879404 
L 468.901664 654.314378 
Q 600.143703 623.853104 693.852989 529.503018 
L 693.853414 529.503441 
z
" style="fill:#181818;stroke:#181818;stroke-linecap:round;"/>
   </g>
   <g id="patch_20">
    <path d="M 431.205131 462.279295 
Q 557.126595 439.460635 679.105747 477.400968 
L 679.848175 475.014045 
Q 681.873062 476.952962 683.87485 478.908345 
Q 681.10896 479.333383 678.363154 479.788426 
L 679.105581 477.401503 
Q 557.12656 439.461211 431.20523 462.279846 
L 431.205131 462.279295 
z
" style="fill:#212121;stroke:#212121;stroke-linecap:round;"/>
   </g>
   <g id="patch_21">
    <path d="M 679.329962 504.472414 
Q 553.430039 526.817101 431.473012 488.393805 
L 430.721873 490.777948 
Q 428.7057 488.832144 426.712523 486.870001 
Q 429.478431 486.45451 432.224349 486.009031 
L 431.47321 488.393175 
Q 553.430083 526.816423 679.329847 504.471764 
L 679.329962 504.472414 
z
" style="fill:#0a0a0a;stroke:#0a0a0a;stroke-linecap:round;"/>
   </g>
   <g id="text_1">
    <!-- 2e-06 -->
    <defs>
     <path d="M 19.1875 8.296875 
L 53.609375 8.296875 
L 53.609375 0 
L 7.328125 0 
L 7.328125 8.296875 
Q 12.9375 14.109375 22.625 23.890625 
Q 32.328125 33.6875 34.8125 36.53125 
Q 39.546875 41.84375 41.421875 45.53125 
Q 43.3125 49.21875 43.3125 52.78125 
Q 43.3125 58.59375 39.234375 62.25 
Q 35.15625 65.921875 28.609375 65.921875 
Q 23.96875 65.921875 18.8125 64.3125 
Q 13.671875 62.703125 7.8125 59.421875 
L 7.8125 69.390625 
Q 13.765625 71.78125 18.9375 73 
Q 24.125 74.21875 28.421875 74.21875 
Q 39.75 74.21875 46.484375 68.546875 
Q 53.21875 62.890625 53.21875 53.421875 
Q 53.21875 48.921875 51.53125 44.890625 
Q 49.859375 40.875 45.40625 35.40625 
Q 44.1875 33.984375 37.640625 27.21875 
Q 31.109375 20.453125 19.1875 8.296875 
" id="BitstreamVeraSans-Roman-32"/>
     <path d="M 56.203125 29.59375 
L 56.203125 25.203125 
L 14.890625 25.203125 
Q 15.484375 15.921875 20.484375 11.0625 
Q 25.484375 6.203125 34.421875 6.203125 
Q 39.59375 6.203125 44.453125 7.46875 
Q 49.3125 8.734375 54.109375 11.28125 
L 54.109375 2.78125 
Q 49.265625 0.734375 44.1875 -0.34375 
Q 39.109375 -1.421875 33.890625 -1.421875 
Q 20.796875 -1.421875 13.15625 6.1875 
Q 5.515625 13.8125 5.515625 26.8125 
Q 5.515625 40.234375 12.765625 48.109375 
Q 20.015625 56 32.328125 56 
Q 43.359375 56 49.78125 48.890625 
Q 56.203125 41.796875 56.203125 29.59375 
M 47.21875 32.234375 
Q 47.125 39.59375 43.09375 43.984375 
Q 39.0625 48.390625 32.421875 48.390625 
Q 24.90625 48.390625 20.390625 44.140625 
Q 15.875 39.890625 15.1875 32.171875 
z
" id="BitstreamVeraSans-Roman-65"/>
     <path d="M 31.78125 66.40625 
Q 24.171875 66.40625 20.328125 58.90625 
Q 16.5 51.421875 16.5 36.375 
Q 16.5 21.390625 20.328125 13.890625 
Q 24.171875 6.390625 31.78125 6.390625 
Q 39.453125 6.390625 43.28125 13.890625 
Q 47.125 21.390625 47.125 36.375 
Q 47.125 51.421875 43.28125 58.90625 
Q 39.453125 66.40625 31.78125 66.40625 
M 31.78125 74.21875 
Q 44.046875 74.21875 50.515625 64.515625 
Q 56.984375 54.828125 56.984375 36.375 
Q 56.984375 17.96875 50.515625 8.265625 
Q 44.046875 -1.421875 31.78125 -1.421875 
Q 19.53125 -1.421875 13.0625 8.265625 
Q 6.59375 17.96875 6.59375 36.375 
Q 6.59375 54.828125 13.0625 64.515625 
Q 19.53125 74.21875 31.78125 74.21875 
" id="BitstreamVeraSans-Roman-30"/>
     <path d="M 33.015625 40.375 
Q 26.375 40.375 22.484375 35.828125 
Q 18.609375 31.296875 18.609375 23.390625 
Q 18.609375 15.53125 22.484375 10.953125 
Q 26.375 6.390625 33.015625 6.390625 
Q 39.65625 6.390625 43.53125 10.953125 
Q 47.40625 15.53125 47.40625 23.390625 
Q 47.40625 31.296875 43.53125 35.828125 
Q 39.65625 40.375 33.015625 40.375 
M 52.59375 71.296875 
L 52.59375 62.3125 
Q 48.875 64.0625 45.09375 64.984375 
Q 41.3125 65.921875 37.59375 65.921875 
Q 27.828125 65.921875 22.671875 59.328125 
Q 17.53125 52.734375 16.796875 39.40625 
Q 19.671875 43.65625 24.015625 45.921875 
Q 28.375 48.1875 33.59375 48.1875 
Q 44.578125 48.1875 50.953125 41.515625 
Q 57.328125 34.859375 57.328125 23.390625 
Q 57.328125 12.15625 50.6875 5.359375 
Q 44.046875 -1.421875 33.015625 -1.421875 
Q 20.359375 -1.421875 13.671875 8.265625 
Q 6.984375 17.96875 6.984375 36.375 
Q 6.984375 53.65625 15.1875 63.9375 
Q 23.390625 74.21875 37.203125 74.21875 
Q 40.921875 74.21875 44.703125 73.484375 
Q 48.484375 72.75 52.59375 71.296875 
" id="BitstreamVeraSans-Roman-36"/>
     <path d="M 4.890625 31.390625 
L 31.203125 31.390625 
L 31.203125 23.390625 
L 4.890625 23.390625 
z
" id="BitstreamVeraSans-Roman-2d"/>
    </defs>
    <g transform="translate(578.0661960971948 821.2094043431208)scale(0.14 -0.14)">
     <use xlink:href="#BitstreamVeraSans-Roman-32"/>
     <use x="63.623046875" xlink:href="#BitstreamVeraSans-Roman-65"/>
     <use x="125.146484375" xlink:href="#BitstreamVeraSans-Roman-2d"/>
     <use x="161.23046875" xlink:href="#BitstreamVeraSans-Roman-30"/>
     <use x="224.853515625" xlink:href="#BitstreamVeraSans-Roman-36"/>
    </g>
   </g>
   <g id="text_2">
    <!-- 2e-06 -->
    <g transform="translate(643.6593902852151 849.3176551216164)scale(0.14 -0.14)">
     <use xlink:href="#BitstreamVeraSans-Roman-32"/>
     <use x="63.623046875" xlink:href="#BitstreamVeraSans-Roman-65"/>
     <use x="125.146484375" xlink:href="#BitstreamVeraSans-Roman-2d"/>
     <use x="161.23046875" xlink:href="#BitstreamVeraSans-Roman-30"/>
     <use x="224.853515625" xlink:href="#BitstreamVeraSans-Roman-36"/>
    </g>
   </g>
   <g id="text_3">
    <!-- 2e-06 -->
    <g transform="translate(419.3038282034566 822.1600022312208)scale(0.14 -0.14)">
     <use xlink:href="#BitstreamVeraSans-Roman-32"/>
     <use x="63.623046875" xlink:href="#BitstreamVeraSans-Roman-65"/>
     <use x="125.146484375" xlink:href="#BitstreamVeraSans-Roman-2d"/>
     <use x="161.23046875" xlink:href="#BitstreamVeraSans-Roman-30"/>
     <use x="224.853515625" xlink:href="#BitstreamVeraSans-Roman-36"/>
    </g>
   </g>
   <g id="text_4">
    <!-- 7e-06 -->
    <defs>
     <path d="M 8.203125 72.90625 
L 55.078125 72.90625 
L 55.078125 68.703125 
L 28.609375 0 
L 18.3125 0 
L 43.21875 64.59375 
L 8.203125 64.59375 
z
" id="BitstreamVeraSans-Roman-37"/>
    </defs>
    <g transform="translate(480.82242458509694 782.1019479706396)scale(0.14 -0.14)">
     <use xlink:href="#BitstreamVeraSans-Roman-37"/>
     <use x="63.623046875" xlink:href="#BitstreamVeraSans-Roman-65"/>
     <use x="125.146484375" xlink:href="#BitstreamVeraSans-Roman-2d"/>
     <use x="161.23046875" xlink:href="#BitstreamVeraSans-Roman-30"/>
     <use x="224.853515625" xlink:href="#BitstreamVeraSans-Roman-36"/>
    </g>
   </g>
   <g id="text_5">
    <!-- 2e-06 -->
    <g transform="translate(393.7835938997808 739.5015399265316)scale(0.14 -0.14)">
     <use xlink:href="#BitstreamVeraSans-Roman-32"/>
     <use x="63.623046875" xlink:href="#BitstreamVeraSans-Roman-65"/>
     <use x="125.146484375" xlink:href="#BitstreamVeraSans-Roman-2d"/>
     <use x="161.23046875" xlink:href="#BitstreamVeraSans-Roman-30"/>
     <use x="224.853515625" xlink:href="#BitstreamVeraSans-Roman-36"/>
    </g>
   </g>
   <g id="text_6">
    <!-- 3e-06 -->
    <defs>
     <path d="M 40.578125 39.3125 
Q 47.65625 37.796875 51.625 33 
Q 55.609375 28.21875 55.609375 21.1875 
Q 55.609375 10.40625 48.1875 4.484375 
Q 40.765625 -1.421875 27.09375 -1.421875 
Q 22.515625 -1.421875 17.65625 -0.515625 
Q 12.796875 0.390625 7.625 2.203125 
L 7.625 11.71875 
Q 11.71875 9.328125 16.59375 8.109375 
Q 21.484375 6.890625 26.8125 6.890625 
Q 36.078125 6.890625 40.9375 10.546875 
Q 45.796875 14.203125 45.796875 21.1875 
Q 45.796875 27.640625 41.28125 31.265625 
Q 36.765625 34.90625 28.71875 34.90625 
L 20.21875 34.90625 
L 20.21875 43.015625 
L 29.109375 43.015625 
Q 36.375 43.015625 40.234375 45.921875 
Q 44.09375 48.828125 44.09375 54.296875 
Q 44.09375 59.90625 40.109375 62.90625 
Q 36.140625 65.921875 28.71875 65.921875 
Q 24.65625 65.921875 20.015625 65.03125 
Q 15.375 64.15625 9.8125 62.3125 
L 9.8125 71.09375 
Q 15.4375 72.65625 20.34375 73.4375 
Q 25.25 74.21875 29.59375 74.21875 
Q 40.828125 74.21875 47.359375 69.109375 
Q 53.90625 64.015625 53.90625 55.328125 
Q 53.90625 49.265625 50.4375 45.09375 
Q 46.96875 40.921875 40.578125 39.3125 
" id="BitstreamVeraSans-Roman-33"/>
    </defs>
    <g transform="translate(448.4066676122969 677.6247100734685)scale(0.14 -0.14)">
     <use xlink:href="#BitstreamVeraSans-Roman-33"/>
     <use x="63.623046875" xlink:href="#BitstreamVeraSans-Roman-65"/>
     <use x="125.146484375" xlink:href="#BitstreamVeraSans-Roman-2d"/>
     <use x="161.23046875" xlink:href="#BitstreamVeraSans-Roman-30"/>
     <use x="224.853515625" xlink:href="#BitstreamVeraSans-Roman-36"/>
    </g>
   </g>
   <g id="text_7">
    <!-- 5e-06 -->
    <defs>
     <path d="M 10.796875 72.90625 
L 49.515625 72.90625 
L 49.515625 64.59375 
L 19.828125 64.59375 
L 19.828125 46.734375 
Q 21.96875 47.46875 24.109375 47.828125 
Q 26.265625 48.1875 28.421875 48.1875 
Q 40.625 48.1875 47.75 41.5 
Q 54.890625 34.8125 54.890625 23.390625 
Q 54.890625 11.625 47.5625 5.09375 
Q 40.234375 -1.421875 26.90625 -1.421875 
Q 22.3125 -1.421875 17.546875 -0.640625 
Q 12.796875 0.140625 7.71875 1.703125 
L 7.71875 11.625 
Q 12.109375 9.234375 16.796875 8.0625 
Q 21.484375 6.890625 26.703125 6.890625 
Q 35.15625 6.890625 40.078125 11.328125 
Q 45.015625 15.765625 45.015625 23.390625 
Q 45.015625 31 40.078125 35.4375 
Q 35.15625 39.890625 26.703125 39.890625 
Q 22.75 39.890625 18.8125 39.015625 
Q 14.890625 38.140625 10.796875 36.28125 
z
" id="BitstreamVeraSans-Roman-35"/>
    </defs>
    <g transform="translate(550.1063861169097 726.6553417511448)scale(0.14 -0.14)">
     <use xlink:href="#BitstreamVeraSans-Roman-35"/>
     <use x="63.623046875" xlink:href="#BitstreamVeraSans-Roman-65"/>
     <use x="125.146484375" xlink:href="#BitstreamVeraSans-Roman-2d"/>
     <use x="161.23046875" xlink:href="#BitstreamVeraSans-Roman-30"/>
     <use x="224.853515625" xlink:href="#BitstreamVeraSans-Roman-36"/>
    </g>
   </g>
   <g id="text_8">
    <!-- 5e-06 -->
    <g transform="translate(631.119518867397 712.469038368949)scale(0.14 -0.14)">
     <use xlink:href="#BitstreamVeraSans-Roman-35"/>
     <use x="63.623046875" xlink:href="#BitstreamVeraSans-Roman-65"/>
     <use x="125.146484375" xlink:href="#BitstreamVeraSans-Roman-2d"/>
     <use x="161.23046875" xlink:href="#BitstreamVeraSans-Roman-30"/>
     <use x="224.853515625" xlink:href="#BitstreamVeraSans-Roman-36"/>
    </g>
   </g>
   <g id="text_9">
    <!-- 3e-06 -->
    <g transform="translate(595.3915143755642 728.5966761455325)scale(0.14 -0.14)">
     <use xlink:href="#BitstreamVeraSans-Roman-33"/>
     <use x="63.623046875" xlink:href="#BitstreamVeraSans-Roman-65"/>
     <use x="125.146484375" xlink:href="#BitstreamVeraSans-Roman-2d"/>
     <use x="161.23046875" xlink:href="#BitstreamVeraSans-Roman-30"/>
     <use x="224.853515625" xlink:href="#BitstreamVeraSans-Roman-36"/>
    </g>
   </g>
   <g id="text_10">
    <!-- 3e-06 -->
    <g transform="translate(575.1626390119085 664.066083521065)scale(0.14 -0.14)">
     <use xlink:href="#BitstreamVeraSans-Roman-33"/>
     <use x="63.623046875" xlink:href="#BitstreamVeraSans-Roman-65"/>
     <use x="125.146484375" xlink:href="#BitstreamVeraSans-Roman-2d"/>
     <use x="161.23046875" xlink:href="#BitstreamVeraSans-Roman-30"/>
     <use x="224.853515625" xlink:href="#BitstreamVeraSans-Roman-36"/>
    </g>
   </g>
   <g id="text_11">
    <!-- 3e-06 -->
    <g transform="translate(558.0549778862934 641.2413947116501)scale(0.14 -0.14)">
     <use xlink:href="#BitstreamVeraSans-Roman-33"/>
     <use x="63.623046875" xlink:href="#BitstreamVeraSans-Roman-65"/>
     <use x="125.146484375" xlink:href="#BitstreamVeraSans-Roman-2d"/>
     <use x="161.23046875" xlink:href="#BitstreamVeraSans-Roman-30"/>
     <use x="224.853515625" xlink:href="#BitstreamVeraSans-Roman-36"/>
    </g>
   </g>
   <g id="text_12">
    <!-- 4e-06 -->
    <defs>
     <path d="M 37.796875 64.3125 
L 12.890625 25.390625 
L 37.796875 25.390625 
z
M 35.203125 72.90625 
L 47.609375 72.90625 
L 47.609375 25.390625 
L 58.015625 25.390625 
L 58.015625 17.1875 
L 47.609375 17.1875 
L 47.609375 0 
L 37.796875 0 
L 37.796875 17.1875 
L 4.890625 17.1875 
L 4.890625 26.703125 
z
" id="BitstreamVeraSans-Roman-34"/>
    </defs>
    <g transform="translate(554.5631842247035 564.2856647530871)scale(0.14 -0.14)">
     <use xlink:href="#BitstreamVeraSans-Roman-34"/>
     <use x="63.623046875" xlink:href="#BitstreamVeraSans-Roman-65"/>
     <use x="125.146484375" xlink:href="#BitstreamVeraSans-Roman-2d"/>
     <use x="161.23046875" xlink:href="#BitstreamVeraSans-Roman-30"/>
     <use x="224.853515625" xlink:href="#BitstreamVeraSans-Roman-36"/>
    </g>
   </g>
   <g id="text_13">
    <!-- 4e-06 -->
    <g transform="translate(694.4395036675593 631.1805040660488)scale(0.14 -0.14)">
     <use xlink:href="#BitstreamVeraSans-Roman-34"/>
     <use x="63.623046875" xlink:href="#BitstreamVeraSans-Roman-65"/>
     <use x="125.146484375" xlink:href="#BitstreamVeraSans-Roman-2d"/>
     <use x="161.23046875" xlink:href="#BitstreamVeraSans-Roman-30"/>
     <use x="224.853515625" xlink:href="#BitstreamVeraSans-Roman-36"/>
    </g>
   </g>
   <g id="text_14">
    <!-- 6e-06 -->
    <g transform="translate(757.2143019156667 596.3446855187821)scale(0.14 -0.14)">
     <use xlink:href="#BitstreamVeraSans-Roman-36"/>
     <use x="63.623046875" xlink:href="#BitstreamVeraSans-Roman-65"/>
     <use x="125.146484375" xlink:href="#BitstreamVeraSans-Roman-2d"/>
     <use x="161.23046875" xlink:href="#BitstreamVeraSans-Roman-30"/>
     <use x="224.853515625" xlink:href="#BitstreamVeraSans-Roman-36"/>
    </g>
   </g>
   <g id="text_15">
    <!-- 5e-06 -->
    <g transform="translate(366.53880548674175 588.8537017210243)scale(0.14 -0.14)">
     <use xlink:href="#BitstreamVeraSans-Roman-35"/>
     <use x="63.623046875" xlink:href="#BitstreamVeraSans-Roman-65"/>
     <use x="125.146484375" xlink:href="#BitstreamVeraSans-Roman-2d"/>
     <use x="161.23046875" xlink:href="#BitstreamVeraSans-Roman-30"/>
     <use x="224.853515625" xlink:href="#BitstreamVeraSans-Roman-36"/>
    </g>
   </g>
   <g id="text_16">
    <!-- 5e-06 -->
    <g transform="translate(424.48002303039874 550.4082484808359)scale(0.14 -0.14)">
     <use xlink:href="#BitstreamVeraSans-Roman-35"/>
     <use x="63.623046875" xlink:href="#BitstreamVeraSans-Roman-65"/>
     <use x="125.146484375" xlink:href="#BitstreamVeraSans-Roman-2d"/>
     <use x="161.23046875" xlink:href="#BitstreamVeraSans-Roman-30"/>
     <use x="224.853515625" xlink:href="#BitstreamVeraSans-Roman-36"/>
    </g>
   </g>
   <g id="text_17">
    <!-- 4e-06 -->
    <g transform="translate(535.3522838393126 562.2983718891983)scale(0.14 -0.14)">
     <use xlink:href="#BitstreamVeraSans-Roman-34"/>
     <use x="63.623046875" xlink:href="#BitstreamVeraSans-Roman-65"/>
     <use x="125.146484375" xlink:href="#BitstreamVeraSans-Roman-2d"/>
     <use x="161.23046875" xlink:href="#BitstreamVeraSans-Roman-30"/>
     <use x="224.853515625" xlink:href="#BitstreamVeraSans-Roman-36"/>
    </g>
   </g>
   <g id="text_18">
    <!-- 6e-06 -->
    <g transform="translate(594.7021881500569 598.9617084327557)scale(0.14 -0.14)">
     <use xlink:href="#BitstreamVeraSans-Roman-36"/>
     <use x="63.623046875" xlink:href="#BitstreamVeraSans-Roman-65"/>
     <use x="125.146484375" xlink:href="#BitstreamVeraSans-Roman-2d"/>
     <use x="161.23046875" xlink:href="#BitstreamVeraSans-Roman-30"/>
     <use x="224.853515625" xlink:href="#BitstreamVeraSans-Roman-36"/>
    </g>
   </g>
   <g id="text_19">
    <!-- 6e-06 -->
    <g transform="translate(520.9758152053547 457.1671258789314)scale(0.14 -0.14)">
     <use xlink:href="#BitstreamVeraSans-Roman-36"/>
     <use x="63.623046875" xlink:href="#BitstreamVeraSans-Roman-65"/>
     <use x="125.146484375" xlink:href="#BitstreamVeraSans-Roman-2d"/>
     <use x="161.23046875" xlink:href="#BitstreamVeraSans-Roman-30"/>
     <use x="224.853515625" xlink:href="#BitstreamVeraSans-Roman-36"/>
    </g>
   </g>
   <g id="text_20">
    <!-- 7e-06 -->
    <g transform="translate(551.142665507539 516.9572542411622)scale(0.14 -0.14)">
     <use xlink:href="#BitstreamVeraSans-Roman-37"/>
     <use x="63.623046875" xlink:href="#BitstreamVeraSans-Roman-65"/>
     <use x="125.146484375" xlink:href="#BitstreamVeraSans-Roman-2d"/>
     <use x="161.23046875" xlink:href="#BitstreamVeraSans-Roman-30"/>
     <use x="224.853515625" xlink:href="#BitstreamVeraSans-Roman-36"/>
    </g>
   </g>
   <g id="patch_22">
    <path clip-path="url(#pd53ebbb028)" d="M 495.842749 950.013634 
C 499.240965 950.013634 502.500455 948.663509 504.903357 946.260607 
C 507.306258 943.857706 508.656383 940.598215 508.656383 937.2 
C 508.656383 933.801785 507.306258 930.542294 504.903357 928.139393 
C 502.500455 925.736491 499.240965 924.386366 495.842749 924.386366 
C 492.444534 924.386366 489.185043 925.736491 486.782142 928.139393 
C 484.37924 930.542294 483.029115 933.801785 483.029115 937.2 
C 483.029115 940.598215 484.37924 943.857706 486.782142 946.260607 
C 489.185043 948.663509 492.444534 950.013634 495.842749 950.013634 
z
" style="fill:#8000ff;stroke:#8000ff;stroke-linejoin:miter;"/>
   </g>
   <g id="patch_23">
    <path clip-path="url(#pd53ebbb028)" d="M 766.27065 770.11137 
C 778.074988 770.11137 789.397441 765.421457 797.744369 757.074529 
C 806.091297 748.727601 810.781211 737.405148 810.781211 725.600809 
C 810.781211 713.796471 806.091297 702.474018 797.744369 694.12709 
C 789.397441 685.780162 778.074988 681.090249 766.27065 681.090249 
C 754.466311 681.090249 743.143858 685.780162 734.79693 694.12709 
C 726.450002 702.474018 721.760089 713.796471 721.760089 725.600809 
C 721.760089 737.405148 726.450002 748.727601 734.79693 757.074529 
C 743.143858 765.421457 754.466311 770.11137 766.27065 770.11137 
z
" style="fill:#b2f396;stroke:#b2f396;stroke-linejoin:miter;"/>
   </g>
   <g id="patch_24">
    <path clip-path="url(#pd53ebbb028)" d="M 444.671316 678.640112 
C 449.790906 678.640112 454.7015 676.606077 458.321597 672.985981 
C 461.941693 669.365884 463.975728 664.45529 463.975728 659.3357 
C 463.975728 654.21611 461.941693 649.305516 458.321597 645.68542 
C 454.7015 642.065323 449.790906 640.031289 444.671316 640.031289 
C 439.551726 640.031289 434.641132 642.065323 431.021036 645.68542 
C 427.400939 649.305516 425.366905 654.21611 425.366905 659.3357 
C 425.366905 664.45529 427.400939 669.365884 431.021036 672.985981 
C 434.641132 676.606077 439.551726 678.640112 444.671316 678.640112 
z
" style="fill:#1996f3;stroke:#1996f3;stroke-linejoin:miter;"/>
   </g>
   <g id="patch_25">
    <path clip-path="url(#pd53ebbb028)" d="M 386.735325 514.280612 
C 397.895234 514.280612 408.599564 509.846733 416.490811 501.955486 
C 424.382058 494.064239 428.815937 483.359909 428.815937 472.2 
C 428.815937 461.040091 424.382058 450.335761 416.490811 442.444514 
C 408.599564 434.553267 397.895234 430.119388 386.735325 430.119388 
C 375.575416 430.119388 364.871086 434.553267 356.979839 442.444514 
C 349.088591 450.335761 344.654713 461.040091 344.654713 472.2 
C 344.654713 483.359909 349.088591 494.064239 356.979839 501.955486 
C 364.871086 509.846733 375.575416 514.280612 386.735325 514.280612 
z
" style="fill:#4df3ce;stroke:#4df3ce;stroke-linejoin:miter;"/>
   </g>
   <g id="patch_26">
    <path clip-path="url(#pd53ebbb028)" d="M 725.770968 538.286744 
C 737.463405 538.286744 748.678525 533.641289 756.946326 525.373488 
C 765.214128 517.105686 769.859582 505.890567 769.859582 494.19813 
C 769.859582 482.505693 765.214128 471.290574 756.946326 463.022772 
C 748.678525 454.754971 737.463405 450.109516 725.770968 450.109516 
C 714.078531 450.109516 702.863412 454.754971 694.595611 463.022772 
C 686.327809 471.290574 681.682355 482.505693 681.682355 494.19813 
C 681.682355 505.890567 686.327809 517.105686 694.595611 525.373488 
C 702.863412 533.641289 714.078531 538.286744 725.770968 538.286744 
z
" style="fill:#ff964f;stroke:#ff964f;stroke-linejoin:miter;"/>
   </g>
   <g id="matplotlib.axis_1"/>
   <g id="matplotlib.axis_2"/>
   <g id="text_21">
    <!-- 1 -->
    <defs>
     <path d="M 11.71875 12.984375 
L 28.328125 12.984375 
L 28.328125 60.109375 
L 11.28125 56.59375 
L 11.28125 69.390625 
L 28.21875 72.90625 
L 46.09375 72.90625 
L 46.09375 12.984375 
L 62.703125 12.984375 
L 62.703125 0 
L 11.71875 0 
z
" id="BitstreamVeraSans-Bold-31"/>
    </defs>
    <g transform="translate(488.1891553917453 943.2706250000001)scale(0.22 -0.22)">
     <use xlink:href="#BitstreamVeraSans-Bold-31"/>
    </g>
   </g>
   <g id="text_22">
    <!-- 4 -->
    <defs>
     <path d="M 36.8125 57.421875 
L 16.21875 26.90625 
L 36.8125 26.90625 
z
M 33.6875 72.90625 
L 54.59375 72.90625 
L 54.59375 26.90625 
L 64.984375 26.90625 
L 64.984375 13.28125 
L 54.59375 13.28125 
L 54.59375 0 
L 36.8125 0 
L 36.8125 13.28125 
L 4.5 13.28125 
L 4.5 29.390625 
z
" id="BitstreamVeraSans-Bold-34"/>
    </defs>
    <g transform="translate(758.6170559906647 731.6714344647372)scale(0.22 -0.22)">
     <use xlink:href="#BitstreamVeraSans-Bold-34"/>
    </g>
   </g>
   <g id="text_23">
    <!-- 2 -->
    <defs>
     <path d="M 28.8125 13.8125 
L 60.890625 13.8125 
L 60.890625 0 
L 7.90625 0 
L 7.90625 13.8125 
L 34.515625 37.3125 
Q 38.09375 40.53125 39.796875 43.609375 
Q 41.5 46.6875 41.5 50 
Q 41.5 55.125 38.0625 58.25 
Q 34.625 61.375 28.90625 61.375 
Q 24.515625 61.375 19.28125 59.5 
Q 14.0625 57.625 8.109375 53.90625 
L 8.109375 69.921875 
Q 14.453125 72.015625 20.65625 73.109375 
Q 26.859375 74.21875 32.8125 74.21875 
Q 45.90625 74.21875 53.15625 68.453125 
Q 60.40625 62.703125 60.40625 52.390625 
Q 60.40625 46.4375 57.328125 41.28125 
Q 54.25 36.140625 44.390625 27.484375 
z
" id="BitstreamVeraSans-Bold-32"/>
    </defs>
    <g transform="translate(437.01772239680815 665.4063252018602)scale(0.22 -0.22)">
     <use xlink:href="#BitstreamVeraSans-Bold-32"/>
    </g>
   </g>
   <g id="text_24">
    <!-- 3 -->
    <defs>
     <path d="M 46.578125 39.3125 
Q 53.953125 37.40625 57.78125 32.6875 
Q 61.625 27.984375 61.625 20.703125 
Q 61.625 9.859375 53.3125 4.21875 
Q 45.015625 -1.421875 29.109375 -1.421875 
Q 23.484375 -1.421875 17.84375 -0.515625 
Q 12.203125 0.390625 6.6875 2.203125 
L 6.6875 16.703125 
Q 11.96875 14.0625 17.15625 12.71875 
Q 22.359375 11.375 27.390625 11.375 
Q 34.859375 11.375 38.84375 13.953125 
Q 42.828125 16.546875 42.828125 21.390625 
Q 42.828125 26.375 38.75 28.9375 
Q 34.671875 31.5 26.703125 31.5 
L 19.1875 31.5 
L 19.1875 43.609375 
L 27.09375 43.609375 
Q 34.1875 43.609375 37.640625 45.828125 
Q 41.109375 48.046875 41.109375 52.59375 
Q 41.109375 56.78125 37.734375 59.078125 
Q 34.375 61.375 28.21875 61.375 
Q 23.6875 61.375 19.046875 60.34375 
Q 14.40625 59.328125 9.8125 57.328125 
L 9.8125 71.09375 
Q 15.375 72.65625 20.84375 73.4375 
Q 26.3125 74.21875 31.59375 74.21875 
Q 45.796875 74.21875 52.84375 69.546875 
Q 59.90625 64.890625 59.90625 55.515625 
Q 59.90625 49.125 56.53125 45.046875 
Q 53.171875 40.96875 46.578125 39.3125 
" id="BitstreamVeraSans-Bold-33"/>
    </defs>
    <g transform="translate(379.08173112033234 478.270625)scale(0.22 -0.22)">
     <use xlink:href="#BitstreamVeraSans-Bold-33"/>
    </g>
   </g>
   <g id="text_25">
    <!-- 5 -->
    <defs>
     <path d="M 10.59375 72.90625 
L 57.328125 72.90625 
L 57.328125 59.078125 
L 25.59375 59.078125 
L 25.59375 47.796875 
Q 27.734375 48.390625 29.90625 48.703125 
Q 32.078125 49.03125 34.421875 49.03125 
Q 47.75 49.03125 55.171875 42.359375 
Q 62.59375 35.6875 62.59375 23.78125 
Q 62.59375 11.96875 54.515625 5.265625 
Q 46.4375 -1.421875 32.078125 -1.421875 
Q 25.875 -1.421875 19.796875 -0.21875 
Q 13.71875 0.984375 7.71875 3.421875 
L 7.71875 18.21875 
Q 13.671875 14.796875 19.015625 13.078125 
Q 24.359375 11.375 29.109375 11.375 
Q 35.9375 11.375 39.859375 14.71875 
Q 43.796875 18.0625 43.796875 23.78125 
Q 43.796875 29.546875 39.859375 32.859375 
Q 35.9375 36.1875 29.109375 36.1875 
Q 25.046875 36.1875 20.453125 35.125 
Q 15.875 34.078125 10.59375 31.890625 
z
" id="BitstreamVeraSans-Bold-35"/>
    </defs>
    <g transform="translate(718.1173745925614 500.2687551200937)scale(0.22 -0.22)">
     <use xlink:href="#BitstreamVeraSans-Bold-35"/>
    </g>
   </g>
  </g>
 </g>
 <defs>
  <clipPath id="pd53ebbb028">
   <rect height="1395.0" width="1138.6059746109968" x="7.200000000000017" y="7.2000000000000455"/>
  </clipPath>
 </defs>
</svg>
