<?xml version="1.0" encoding="utf-8" standalone="no"?>
<!DOCTYPE svg PUBLIC "-//W3C//DTD SVG 1.1//EN"
  "http://www.w3.org/Graphics/SVG/1.1/DTD/svg11.dtd">
<!-- Created with matplotlib (http://matplotlib.org/) -->
<svg height="1688pt" version="1.1" viewBox="0 0 2066 1688" width="2066pt" xmlns="http://www.w3.org/2000/svg" xmlns:xlink="http://www.w3.org/1999/xlink">
 <defs>
  <style type="text/css">
*{stroke-linecap:butt;stroke-linejoin:round;stroke-miterlimit:100000;}
  </style>
 </defs>
 <g id="figure_1">
  <g id="patch_1">
   <path d="M 0 1688.4 
L 2066.77759 1688.4 
L 2066.77759 0 
L 0 0 
z
" style="fill:#ffffff;"/>
  </g>
  <g id="axes_1">
   <g id="patch_2">
    <path d="M 883.160731 1079.587347 
Q 1059.031088 839.4243 1320.841071 698.605441 
L 1319.903863 696.862987 
Q 1322.700672 696.778024 1325.49557 696.704368 
Q 1323.876921 698.984034 1322.272331 701.266436 
L 1321.335124 699.523982 
Q 1059.733075 840.231001 884.002212 1080.203559 
L 883.160731 1079.587347 
z
" style="fill:#959595;stroke:#959595;stroke-linecap:round;"/>
   </g>
   <g id="patch_3">
    <path d="M 1341.709171 719.797094 
Q 1164.978181 958.917604 902.319207 1098.707059 
L 903.29943 1100.548859 
Q 900.50015 1100.622651 897.702782 1100.685179 
Q 899.333599 1098.411497 900.950354 1096.135035 
L 901.930576 1097.976836 
Q 1164.42425 958.275355 1341.043943 719.305432 
L 1341.709171 719.797094 
z
" style="fill:#959595;stroke:#959595;stroke-linecap:round;"/>
   </g>
   <g id="patch_4">
    <path d="M 823.956969 1078.845032 
Q 720.039725 896.593479 696.284658 691.093362 
L 694.220563 691.331964 
Q 695.805841 686.950924 697.427251 682.593525 
Q 699.937782 686.506749 702.476943 690.377557 
L 700.412848 690.616158 
Q 724.070405 895.272736 827.56704 1076.78662 
L 823.956969 1078.845032 
z
" style="fill:#939393;stroke:#939393;stroke-linecap:round;"/>
   </g>
   <g id="patch_5">
    <path d="M 750.574264 670.084607 
Q 842.089135 857.359538 852.225101 1068.228723 
L 854.351126 1068.126531 
Q 853.222746 1070.68689 852.082433 1073.239021 
Q 850.725089 1070.795389 849.356892 1068.366591 
L 851.482918 1068.264398 
Q 841.354305 857.548177 749.90667 670.410838 
L 750.574264 670.084607 
z
" style="fill:#959595;stroke:#959595;stroke-linecap:round;"/>
   </g>
   <g id="patch_6">
    <path d="M 1316.990933 680.132639 
Q 1053.718955 703.223616 807.600888 615.714311 
L 806.828113 617.887725 
Q 803.241926 614.164407 799.693396 610.41814 
Q 804.819785 609.829123 809.919221 609.19405 
L 809.146446 611.367464 
Q 1054.317314 698.539984 1316.587847 675.536842 
L 1316.990933 680.132639 
z
" style="fill:#939393;stroke:#939393;stroke-linecap:round;"/>
   </g>
   <g id="patch_7">
    <path d="M 811.285956 554.303942 
Q 1074.275183 544.099508 1319.850713 646.124736 
L 1320.610349 644.296285 
Q 1322.443448 646.411442 1324.26601 648.532769 
Q 1321.475298 648.716378 1318.692046 648.913656 
L 1319.451683 647.085205 
Q 1074.087174 545.147646 811.326282 555.34322 
L 811.285956 554.303942 
z
" style="fill:#959595;stroke:#959595;stroke-linecap:round;"/>
   </g>
   <g id="patch_8">
    <path clip-path="url(#pb4f02fcea3)" d="M 853.1141 1172.679545 
C 866.236228 1172.679545 878.822675 1167.466068 888.101421 1158.187322 
C 897.380168 1148.908576 902.593645 1136.322129 902.593645 1123.2 
C 902.593645 1110.077871 897.380168 1097.491424 888.101421 1088.212678 
C 878.822675 1078.933932 866.236228 1073.720455 853.1141 1073.720455 
C 839.991971 1073.720455 827.405524 1078.933932 818.126778 1088.212678 
C 808.848031 1097.491424 803.634554 1110.077871 803.634554 1123.2 
C 803.634554 1136.322129 808.848031 1148.908576 818.126778 1158.187322 
C 827.405524 1167.466068 839.991971 1172.679545 853.1141 1172.679545 
z
" style="fill:#8000ff;stroke:#8000ff;stroke-linejoin:miter;"/>
   </g>
   <g id="patch_9">
    <path clip-path="url(#pb4f02fcea3)" d="M 1375.451727 726.902338 
C 1390.186311 726.902338 1404.319389 721.048226 1414.738314 710.629301 
C 1425.157238 700.210376 1431.011351 686.077298 1431.011351 671.342714 
C 1431.011351 656.608129 1425.157238 642.475051 1414.738314 632.056127 
C 1404.319389 621.637202 1390.186311 615.783089 1375.451727 615.783089 
C 1360.717142 615.783089 1346.584064 621.637202 1336.16514 632.056127 
C 1325.746215 642.475051 1319.892102 656.608129 1319.892102 671.342714 
C 1319.892102 686.077298 1325.746215 700.210376 1336.16514 710.629301 
C 1346.584064 721.048226 1360.717142 726.902338 1375.451727 726.902338 
z
" style="fill:#d4dd80;stroke:#d4dd80;stroke-linejoin:miter;"/>
   </g>
   <g id="patch_10">
    <path clip-path="url(#pb4f02fcea3)" d="M 691.325863 682.214917 
C 722.358582 682.214917 752.124459 669.885487 774.067904 647.942041 
C 796.01135 625.998595 808.34078 596.232719 808.34078 565.2 
C 808.34078 534.167281 796.01135 504.401405 774.067904 482.457959 
C 752.124459 460.514513 722.358582 448.185083 691.325863 448.185083 
C 660.293145 448.185083 630.527268 460.514513 608.583822 482.457959 
C 586.640377 504.401405 574.310947 534.167281 574.310947 565.2 
C 574.310947 596.232719 586.640377 625.998595 608.583822 647.942041 
C 630.527268 669.885487 660.293145 682.214917 691.325863 682.214917 
z
" style="fill:#2adddd;stroke:#2adddd;stroke-linejoin:miter;"/>
   </g>
   <g id="matplotlib.axis_1"/>
   <g id="matplotlib.axis_2"/>
   <g id="text_1">
    <!-- 1 -->
    <defs>
     <path d="M 11.71875 12.984375 
L 28.328125 12.984375 
L 28.328125 60.109375 
L 11.28125 56.59375 
L 11.28125 69.390625 
L 28.21875 72.90625 
L 46.09375 72.90625 
L 46.09375 12.984375 
L 62.703125 12.984375 
L 62.703125 0 
L 11.71875 0 
z
" id="BitstreamVeraSans-Bold-31"/>
    </defs>
    <g transform="translate(843.3731620555438 1130.9262500000002)scale(0.28 -0.28)">
     <use xlink:href="#BitstreamVeraSans-Bold-31"/>
    </g>
   </g>
   <g id="text_2">
    <!-- 3 -->
    <defs>
     <path d="M 46.578125 39.3125 
Q 53.953125 37.40625 57.78125 32.6875 
Q 61.625 27.984375 61.625 20.703125 
Q 61.625 9.859375 53.3125 4.21875 
Q 45.015625 -1.421875 29.109375 -1.421875 
Q 23.484375 -1.421875 17.84375 -0.515625 
Q 12.203125 0.390625 6.6875 2.203125 
L 6.6875 16.703125 
Q 11.96875 14.0625 17.15625 12.71875 
Q 22.359375 11.375 27.390625 11.375 
Q 34.859375 11.375 38.84375 13.953125 
Q 42.828125 16.546875 42.828125 21.390625 
Q 42.828125 26.375 38.75 28.9375 
Q 34.671875 31.5 26.703125 31.5 
L 19.1875 31.5 
L 19.1875 43.609375 
L 27.09375 43.609375 
Q 34.1875 43.609375 37.640625 45.828125 
Q 41.109375 48.046875 41.109375 52.59375 
Q 41.109375 56.78125 37.734375 59.078125 
Q 34.375 61.375 28.21875 61.375 
Q 23.6875 61.375 19.046875 60.34375 
Q 14.40625 59.328125 9.8125 57.328125 
L 9.8125 71.09375 
Q 15.375 72.65625 20.84375 73.4375 
Q 26.3125 74.21875 31.59375 74.21875 
Q 45.796875 74.21875 52.84375 69.546875 
Q 59.90625 64.890625 59.90625 55.515625 
Q 59.90625 49.125 56.53125 45.046875 
Q 53.171875 40.96875 46.578125 39.3125 
" id="BitstreamVeraSans-Bold-33"/>
    </defs>
    <g transform="translate(1365.710789097548 679.0689637390418)scale(0.28 -0.28)">
     <use xlink:href="#BitstreamVeraSans-Bold-33"/>
    </g>
   </g>
   <g id="text_3">
    <!-- 2 -->
    <defs>
     <path d="M 28.8125 13.8125 
L 60.890625 13.8125 
L 60.890625 0 
L 7.90625 0 
L 7.90625 13.8125 
L 34.515625 37.3125 
Q 38.09375 40.53125 39.796875 43.609375 
Q 41.5 46.6875 41.5 50 
Q 41.5 55.125 38.0625 58.25 
Q 34.625 61.375 28.90625 61.375 
Q 24.515625 61.375 19.28125 59.5 
Q 14.0625 57.625 8.109375 53.90625 
L 8.109375 69.921875 
Q 14.453125 72.015625 20.65625 73.109375 
Q 26.859375 74.21875 32.8125 74.21875 
Q 45.90625 74.21875 53.15625 68.453125 
Q 60.40625 62.703125 60.40625 52.390625 
Q 60.40625 46.4375 57.328125 41.28125 
Q 54.25 36.140625 44.390625 27.484375 
z
" id="BitstreamVeraSans-Bold-32"/>
    </defs>
    <g transform="translate(681.5849257987741 572.92625)scale(0.28 -0.28)">
     <use xlink:href="#BitstreamVeraSans-Bold-32"/>
    </g>
   </g>
  </g>
 </g>
 <defs>
  <clipPath id="pb4f02fcea3">
   <rect height="1674.0" width="2052.377589896322" x="7.199999999999989" y="7.2000000000000455"/>
  </clipPath>
 </defs>
</svg>
