<?xml version="1.0" encoding="utf-8" standalone="no"?>
<!DOCTYPE svg PUBLIC "-//W3C//DTD SVG 1.1//EN"
  "http://www.w3.org/Graphics/SVG/1.1/DTD/svg11.dtd">
<!-- Created with matplotlib (http://matplotlib.org/) -->
<svg height="1152pt" version="1.1" viewBox="0 0 1409 1152" width="1409pt" xmlns="http://www.w3.org/2000/svg" xmlns:xlink="http://www.w3.org/1999/xlink">
 <defs>
  <style type="text/css">
*{stroke-linecap:butt;stroke-linejoin:round;stroke-miterlimit:100000;}
  </style>
 </defs>
 <g id="figure_1">
  <g id="patch_1">
   <path d="M 0 1152.216945 
L 1409.4 1152.216945 
L 1409.4 -0 
L 0 -0 
z
" style="fill:#ffffff;"/>
  </g>
  <g id="axes_1">
   <g id="patch_2">
    <path d="M 593.990412 747.322868 
Q 720.092361 569.61239 913.438837 469.634882 
L 912.643502 468.096784 
Q 915.443289 468.056279 918.240231 468.032066 
Q 916.579865 470.282999 914.940086 472.538147 
L 914.144752 471.00005 
Q 721.129778 570.806142 595.2438 748.212262 
L 593.990412 747.322868 
z
" style="fill:#e4e4ff;stroke:#e4e4ff;stroke-linecap:round;"/>
   </g>
   <g id="patch_3">
    <path d="M 923.93383 478.783489 
Q 797.503382 656.062988 603.837574 755.619796 
L 604.704599 757.306402 
Q 601.90642 757.339345 599.111095 757.356064 
Q 600.77514 755.10993 602.418636 752.859563 
L 603.28566 754.546169 
Q 796.690753 655.123385 922.950989 478.082556 
L 923.93383 478.783489 
z
" style="fill:#eaeaff;stroke:#eaeaff;stroke-linecap:round;"/>
   </g>
   <g id="patch_4">
    <path d="M 567.880632 748.795226 
Q 483.292467 606.811254 471.005395 443.855225 
L 467.733981 444.101894 
Q 470.508825 437.265946 473.408728 430.514752 
Q 477.060054 436.891186 480.819636 443.11522 
L 477.548222 443.361889 
Q 489.719253 604.77893 573.517506 745.43701 
L 567.880632 748.795226 
z
" style="fill:#8a8aff;stroke:#8a8aff;stroke-linecap:round;"/>
   </g>
   <g id="patch_5">
    <path d="M 496.303715 426.913577 
Q 576.925452 573.411814 581.954392 741.827437 
L 584.333072 741.756409 
Q 583.158415 744.298745 581.966672 746.829153 
Q 580.659057 744.356617 579.335299 741.905644 
L 581.713979 741.834616 
Q 576.68677 573.476966 496.092997 427.029541 
L 496.303715 426.913577 
z
" style="fill:#fffafa;stroke:#fffafa;stroke-linecap:round;"/>
   </g>
   <g id="patch_6">
    <path d="M 913.446525 463.897633 
Q 709.477013 485.524774 520.553599 410.142966 
L 519.657498 412.388791 
Q 516.042333 408.342857 512.485876 404.262253 
Q 517.884731 403.8714 523.2419 403.405492 
L 522.345799 405.651317 
Q 710.157439 480.589519 912.936616 459.088591 
L 913.446525 463.897633 
z
" style="fill:#a8a8ff;stroke:#a8a8ff;stroke-linecap:round;"/>
   </g>
   <g id="patch_7">
    <path d="M 518.924309 381.071957 
Q 723.928335 364.731788 913.56433 447.439884 
L 914.398757 445.526681 
Q 916.19599 447.674254 917.978023 449.830611 
Q 915.1836 449.960117 912.399891 450.109751 
L 913.234318 448.196549 
Q 723.78783 365.571105 518.989898 381.894847 
L 518.924309 381.071957 
z
" style="fill:#fff0f0;stroke:#fff0f0;stroke-linecap:round;"/>
   </g>
   <g id="patch_8">
    <path clip-path="url(#p1d175d8004)" d="M 582.167382 784.165209 
C 587.052576 784.165209 591.738343 782.224301 595.192698 778.769946 
C 598.647052 775.315592 600.58796 770.629825 600.58796 765.74463 
C 600.58796 760.859436 598.647052 756.173668 595.192698 752.719314 
C 591.738343 749.26496 587.052576 747.324052 582.167382 747.324052 
C 577.282187 747.324052 572.59642 749.26496 569.142065 752.719314 
C 565.687711 756.173668 563.746803 760.859436 563.746803 765.74463 
C 563.746803 770.629825 565.687711 775.315592 569.142065 778.769946 
C 572.59642 782.224301 577.282187 784.165209 582.167382 784.165209 
z
" style="fill:#8000ff;stroke:#8000ff;stroke-linejoin:miter;"/>
   </g>
   <g id="patch_9">
    <path clip-path="url(#p1d175d8004)" d="M 937.2 479.301575 
C 942.685491 479.301575 947.947048 477.122167 951.825876 473.243339 
C 955.704703 469.364511 957.884112 464.102954 957.884112 458.617463 
C 957.884112 453.131973 955.704703 447.870415 951.825876 443.991588 
C 947.947048 440.11276 942.685491 437.933352 937.2 437.933352 
C 931.714509 437.933352 926.452952 440.11276 922.574124 443.991588 
C 918.695297 447.870415 916.515888 453.131973 916.515888 458.617463 
C 916.515888 464.102954 918.695297 469.364511 922.574124 473.243339 
C 926.452952 477.122167 931.714509 479.301575 937.2 479.301575 
z
" style="fill:#d4dd80;stroke:#d4dd80;stroke-linejoin:miter;"/>
   </g>
   <g id="patch_10">
    <path clip-path="url(#p1d175d8004)" d="M 472.2 430.035417 
C 483.75307 430.035417 494.834511 425.445334 503.003765 417.27608 
C 511.173019 409.106826 515.763102 398.025385 515.763102 386.472315 
C 515.763102 374.919245 511.173019 363.837804 503.003765 355.66855 
C 494.834511 347.499296 483.75307 342.909213 472.2 342.909213 
C 460.64693 342.909213 449.565489 347.499296 441.396235 355.66855 
C 433.226981 363.837804 428.636898 374.919245 428.636898 386.472315 
C 428.636898 398.025385 433.226981 409.106826 441.396235 417.27608 
C 449.565489 425.445334 460.64693 430.035417 472.2 430.035417 
z
" style="fill:#2adddd;stroke:#2adddd;stroke-linejoin:miter;"/>
   </g>
   <g id="matplotlib.axis_1"/>
   <g id="matplotlib.axis_2"/>
   <g id="text_1">
    <!-- 1 -->
    <defs>
     <path d="M 11.71875 12.984375 
L 28.328125 12.984375 
L 28.328125 60.109375 
L 11.28125 56.59375 
L 11.28125 69.390625 
L 28.21875 72.90625 
L 46.09375 72.90625 
L 46.09375 12.984375 
L 62.703125 12.984375 
L 62.703125 0 
L 11.71875 0 
z
" id="BitstreamVeraSans-Bold-31"/>
    </defs>
    <g transform="translate(574.5137878318634 771.8152552201361)scale(0.22 -0.22)">
     <use xlink:href="#BitstreamVeraSans-Bold-31"/>
    </g>
   </g>
   <g id="text_2">
    <!-- 3 -->
    <defs>
     <path d="M 46.578125 39.3125 
Q 53.953125 37.40625 57.78125 32.6875 
Q 61.625 27.984375 61.625 20.703125 
Q 61.625 9.859375 53.3125 4.21875 
Q 45.015625 -1.421875 29.109375 -1.421875 
Q 23.484375 -1.421875 17.84375 -0.515625 
Q 12.203125 0.390625 6.6875 2.203125 
L 6.6875 16.703125 
Q 11.96875 14.0625 17.15625 12.71875 
Q 22.359375 11.375 27.390625 11.375 
Q 34.859375 11.375 38.84375 13.953125 
Q 42.828125 16.546875 42.828125 21.390625 
Q 42.828125 26.375 38.75 28.9375 
Q 34.671875 31.5 26.703125 31.5 
L 19.1875 31.5 
L 19.1875 43.609375 
L 27.09375 43.609375 
Q 34.1875 43.609375 37.640625 45.828125 
Q 41.109375 48.046875 41.109375 52.59375 
Q 41.109375 56.78125 37.734375 59.078125 
Q 34.375 61.375 28.21875 61.375 
Q 23.6875 61.375 19.046875 60.34375 
Q 14.40625 59.328125 9.8125 57.328125 
L 9.8125 71.09375 
Q 15.375 72.65625 20.84375 73.4375 
Q 26.3125 74.21875 31.59375 74.21875 
Q 45.796875 74.21875 52.84375 69.546875 
Q 59.90625 64.890625 59.90625 55.515625 
Q 59.90625 49.125 56.53125 45.046875 
Q 53.171875 40.96875 46.578125 39.3125 
" id="BitstreamVeraSans-Bold-33"/>
    </defs>
    <g transform="translate(929.54640625 464.6880884467553)scale(0.22 -0.22)">
     <use xlink:href="#BitstreamVeraSans-Bold-33"/>
    </g>
   </g>
   <g id="text_3">
    <!-- 2 -->
    <defs>
     <path d="M 28.8125 13.8125 
L 60.890625 13.8125 
L 60.890625 0 
L 7.90625 0 
L 7.90625 13.8125 
L 34.515625 37.3125 
Q 38.09375 40.53125 39.796875 43.609375 
Q 41.5 46.6875 41.5 50 
Q 41.5 55.125 38.0625 58.25 
Q 34.625 61.375 28.90625 61.375 
Q 24.515625 61.375 19.28125 59.5 
Q 14.0625 57.625 8.109375 53.90625 
L 8.109375 69.921875 
Q 14.453125 72.015625 20.65625 73.109375 
Q 26.859375 74.21875 32.8125 74.21875 
Q 45.90625 74.21875 53.15625 68.453125 
Q 60.40625 62.703125 60.40625 52.390625 
Q 60.40625 46.4375 57.328125 41.28125 
Q 54.25 36.140625 44.390625 27.484375 
z
" id="BitstreamVeraSans-Bold-32"/>
    </defs>
    <g transform="translate(464.54640625 392.5429401100679)scale(0.22 -0.22)">
     <use xlink:href="#BitstreamVeraSans-Bold-32"/>
    </g>
   </g>
  </g>
 </g>
 <defs>
  <clipPath id="p1d175d8004">
   <rect height="1137.8169453302046" width="1395.0" x="7.200000000000017" y="7.199999999999818"/>
  </clipPath>
 </defs>
</svg>
