<?xml version="1.0" encoding="utf-8" standalone="no"?>
<!DOCTYPE svg PUBLIC "-//W3C//DTD SVG 1.1//EN"
  "http://www.w3.org/Graphics/SVG/1.1/DTD/svg11.dtd">
<!-- Created with matplotlib (http://matplotlib.org/) -->
<svg height="851pt" version="1.1" viewBox="0 0 697 851" width="697pt" xmlns="http://www.w3.org/2000/svg" xmlns:xlink="http://www.w3.org/1999/xlink">
 <defs>
  <style type="text/css">
*{stroke-linecap:butt;stroke-linejoin:round;stroke-miterlimit:100000;}
  </style>
 </defs>
 <g id="figure_1">
  <g id="patch_1">
   <path d="M 0 851.4 
L 697.563585 851.4 
L 697.563585 0 
L 0 0 
z
" style="fill:#ffffff;"/>
  </g>
  <g id="axes_1">
   <g id="patch_2">
    <path d="M 308.25075 551.650148 
Q 351.987649 489.329815 418.188477 455.709106 
L 417.501776 454.356958 
Q 420.311045 454.3323 423.109551 454.358391 
Q 421.406849 456.579528 419.76583 458.814991 
L 419.079129 457.462843 
Q 353.31579 490.861368 309.860761 552.780067 
L 308.25075 551.650148 
z
" style="fill:#939393;stroke:#939393;stroke-linecap:round;"/>
   </g>
   <g id="patch_3">
    <path d="M 435.592207 475.108608 
Q 387.483766 531.485729 316.986412 559.248676 
L 317.87261 561.498963 
Q 315.075324 561.257062 312.288943 560.970412 
Q 314.194456 558.917236 316.040486 556.846725 
L 316.926684 559.097013 
Q 387.386183 531.348974 435.468215 475.002802 
L 435.592207 475.108608 
z
" style="fill:#959595;stroke:#959595;stroke-linecap:round;"/>
   </g>
   <g id="patch_4">
    <path d="M 291.509057 552.342827 
Q 252.702679 491.66094 264.463776 421.666516 
L 262.005842 421.253512 
Q 263.656401 418.975 265.359035 416.743613 
Q 266.111635 419.447859 266.936718 422.082042 
L 264.478785 421.669038 
Q 252.71866 491.65768 291.52188 552.334627 
L 291.509057 552.342827 
z
" style="fill:#959595;stroke:#959595;stroke-linecap:round;"/>
   </g>
   <g id="patch_5">
    <path d="M 281.785735 416.553567 
Q 318.435866 477.648491 304.493616 548.060488 
L 306.942715 548.545434 
Q 305.22787 550.76961 303.463804 552.9487 
Q 302.786961 550.22775 302.037944 547.574242 
L 304.487043 548.059187 
Q 318.428792 477.649723 281.779989 416.557013 
L 281.785735 416.553567 
z
" style="fill:#959595;stroke:#959595;stroke-linecap:round;"/>
   </g>
   <g id="patch_6">
    <path d="M 292.133568 551.835632 
Q 237.533427 447.690939 233.642112 331.645394 
L 232.023532 331.699669 
Q 233.188718 329.148583 234.378168 326.615653 
Q 235.688051 329.088475 237.020723 331.5321 
L 235.402143 331.586375 
Q 239.27997 447.22969 293.693239 551.01794 
L 292.133568 551.835632 
z
" style="fill:#939393;stroke:#939393;stroke-linecap:round;"/>
   </g>
   <g id="patch_7">
    <path d="M 254.711508 324.825592 
Q 303.222116 430.251379 301.0733 547.56367 
L 303.491254 547.60796 
Q 302.195528 550.091467 300.877354 552.557526 
Q 299.696418 550.022856 298.492093 547.51639 
L 300.910047 547.56068 
Q 303.05818 430.285717 254.563178 324.893845 
L 254.711508 324.825592 
z
" style="fill:#959595;stroke:#959595;stroke-linecap:round;"/>
   </g>
   <g id="patch_8">
    <path d="M 303.928889 549.982395 
Q 333.546533 431.171382 407.843616 335.549915 
L 405.904829 334.043493 
Q 408.431385 332.829124 410.963999 331.641243 
Q 410.392552 334.379623 409.853093 337.111262 
L 407.914306 335.60484 
Q 333.628822 431.211379 304.015751 550.004049 
L 303.928889 549.982395 
z
" style="fill:#959595;stroke:#959595;stroke-linecap:round;"/>
   </g>
   <g id="patch_9">
    <path d="M 426.869101 343.247035 
Q 391.807755 459.206811 312.081086 551.984242 
L 313.974307 553.611149 
Q 311.392175 554.698009 308.80477 555.759753 
Q 309.509424 553.053182 310.18213 550.352407 
L 312.075352 551.979314 
Q 391.800981 459.203094 426.861865 343.244847 
L 426.869101 343.247035 
z
" style="fill:#959595;stroke:#959595;stroke-linecap:round;"/>
   </g>
   <g id="patch_10">
    <path d="M 417.015835 441.393538 
Q 350.669433 440.546484 290.389374 410.264533 
L 289.423512 412.187204 
Q 287.739527 409.942298 286.099245 407.67512 
Q 288.897178 407.726303 291.667991 407.719284 
L 290.702129 409.641955 
Q 350.83879 439.851869 417.02473 440.696875 
L 417.015835 441.393538 
z
" style="fill:#959595;stroke:#959595;stroke-linecap:round;"/>
   </g>
   <g id="patch_11">
    <path d="M 291.293293 394.465995 
Q 357.806906 390.110024 418.457267 414.252155 
L 419.142203 412.531445 
Q 421.934914 415.636762 424.622992 418.799347 
Q 420.47936 419.043465 416.402453 419.414302 
L 417.087389 417.693592 
Q 357.214235 393.860833 291.535353 398.162137 
L 291.293293 394.465995 
z
" style="fill:#919191;stroke:#919191;stroke-linecap:round;"/>
   </g>
   <g id="patch_12">
    <path d="M 419.881914 422.048093 
Q 333.837973 384.346144 266.059857 319.286262 
L 264.635587 320.770039 
Q 263.690577 318.13021 262.77499 315.486926 
Q 265.438304 316.342555 268.09805 317.162913 
L 266.67378 318.64669 
Q 334.338166 383.597403 420.237713 421.236083 
L 419.881914 422.048093 
z
" style="fill:#949494;stroke:#949494;stroke-linecap:round;"/>
   </g>
   <g id="patch_13">
    <path d="M 275.586074 301.421994 
Q 361.864947 338.79247 429.875424 403.524963 
L 431.257093 402.073327 
Q 432.211969 404.707907 433.137328 407.345989 
Q 430.471793 406.502914 427.809917 405.695064 
L 429.191587 404.243428 
Q 361.30887 339.632538 275.191846 302.332165 
L 275.586074 301.421994 
z
" style="fill:#949494;stroke:#949494;stroke-linecap:round;"/>
   </g>
   <g id="patch_14">
    <path d="M 437.770717 399.851951 
Q 426.590535 373.803188 427.9022 345.567822 
L 425.868703 345.473357 
Q 427.235597 342.996085 428.694388 340.597998 
Q 429.727504 343.20831 430.863317 345.70538 
L 428.82982 345.610914 
Q 427.528059 373.63307 438.624058 399.485696 
L 437.770717 399.851951 
z
" style="fill:#949494;stroke:#949494;stroke-linecap:round;"/>
   </g>
   <g id="patch_15">
    <path d="M 463.057845 337.402035 
Q 474.333206 363.443031 473.109648 391.67203 
L 475.134507 391.759795 
Q 473.775352 394.240285 472.323964 396.64142 
Q 471.282808 394.035635 470.139197 391.543278 
L 472.164056 391.631044 
Q 473.378192 363.619429 462.189287 337.778108 
L 463.057845 337.402035 
z
" style="fill:#949494;stroke:#949494;stroke-linecap:round;"/>
   </g>
   <g id="patch_16">
    <path d="M 253.522283 383.84221 
Q 232.01184 360.416436 229.195029 331.200414 
L 226.812457 331.430126 
Q 227.812402 328.766564 228.958001 326.198571 
Q 230.312184 328.663801 231.789379 330.950285 
L 229.406807 331.179996 
Q 232.216776 360.32505 253.678997 383.698309 
L 253.522283 383.84221 
z
" style="fill:#959595;stroke:#959595;stroke-linecap:round;"/>
   </g>
   <g id="patch_17">
    <path d="M 263.999075 318.369696 
Q 278.863616 343.928622 274.923957 375.308703 
L 277.382269 375.617336 
Q 275.826367 377.970903 274.170229 380.251323 
Q 273.360712 377.550697 272.421214 374.994493 
L 274.879526 375.303125 
Q 278.8173 343.938056 263.960365 318.392209 
L 263.999075 318.369696 
z
" style="fill:#959595;stroke:#959595;stroke-linecap:round;"/>
   </g>
   <g id="patch_18">
    <path d="M 283.43823 381.475088 
Q 329.915169 332.519041 392.262378 310.568232 
L 391.751364 309.116792 
Q 394.542853 309.459295 397.315491 309.85492 
Q 395.331505 311.831845 393.411826 313.833026 
L 392.900812 312.381586 
Q 330.990495 334.178577 284.832458 382.798712 
L 283.43823 381.475088 
z
" style="fill:#939393;stroke:#939393;stroke-linecap:round;"/>
   </g>
   <g id="patch_19">
    <path d="M 407.148788 332.283755 
Q 357.960372 376.384383 292.922668 393.504594 
L 293.512165 395.744025 
Q 290.760882 395.175588 288.027922 394.559596 
Q 290.164629 392.747555 292.239349 390.908745 
L 292.828846 393.148176 
Q 357.780552 376.050603 406.902756 332.009338 
L 407.148788 332.283755 
z
" style="fill:#959595;stroke:#959595;stroke-linecap:round;"/>
   </g>
   <g id="patch_20">
    <path d="M 277.388658 277.069418 
Q 336.214827 269.371338 393.601113 283.869557 
L 394.040498 282.130402 
Q 396.173523 283.958649 398.266209 285.81677 
Q 395.523386 286.372792 392.815766 286.978086 
L 393.255151 285.238931 
Q 336.130509 270.806814 277.571924 278.469877 
L 277.388658 277.069418 
z
" style="fill:#949494;stroke:#949494;stroke-linecap:round;"/>
   </g>
   <g id="patch_21">
    <path d="M 393.96968 308.709676 
Q 335.178851 316.048135 277.827897 301.195069 
L 277.362404 302.992439 
Q 275.241479 301.151832 273.160681 299.281661 
Q 275.905831 298.741564 278.615973 298.152133 
L 278.150481 299.949503 
Q 335.263438 314.740931 393.810312 307.432924 
L 393.96968 308.709676 
z
" style="fill:#949494;stroke:#949494;stroke-linecap:round;"/>
   </g>
   <g id="patch_22">
    <path clip-path="url(#p6e4e74b4f4)" d="M 300.385649 577.356081 
C 303.60948 577.356081 306.701704 576.075239 308.981296 573.795647 
C 311.260889 571.516055 312.54173 568.42383 312.54173 565.2 
C 312.54173 561.97617 311.260889 558.883945 308.981296 556.604353 
C 306.701704 554.324761 303.60948 553.043919 300.385649 553.043919 
C 297.161819 553.043919 294.069595 554.324761 291.790002 556.604353 
C 289.51041 558.883945 288.229569 561.97617 288.229569 565.2 
C 288.229569 568.42383 289.51041 571.516055 291.790002 573.795647 
C 294.069595 576.075239 297.161819 577.356081 300.385649 577.356081 
z
" style="fill:#8000ff;stroke:#8000ff;stroke-linejoin:miter;"/>
   </g>
   <g id="patch_23">
    <path clip-path="url(#p6e4e74b4f4)" d="M 462.64239 480.466911 
C 473.840969 480.466911 484.582391 476.017669 492.500982 468.099078 
C 500.419573 460.180486 504.868816 449.439065 504.868816 438.240486 
C 504.868816 427.041907 500.419573 416.300485 492.500982 408.381894 
C 484.582391 400.463303 473.840969 396.01406 462.64239 396.01406 
C 451.443811 396.01406 440.702389 400.463303 432.783798 408.381894 
C 424.865207 416.300485 420.415964 427.041907 420.415964 438.240486 
C 420.415964 449.439065 424.865207 460.180486 432.783798 468.099078 
C 440.702389 476.017669 451.443811 480.466911 462.64239 480.466911 
z
" style="fill:#b2f396;stroke:#b2f396;stroke-linejoin:miter;"/>
   </g>
   <g id="patch_24">
    <path clip-path="url(#p6e4e74b4f4)" d="M 269.68279 416.795193 
C 274.539659 416.795193 279.198257 414.865538 282.632583 411.431213 
C 286.066908 407.996888 287.996563 403.338289 287.996563 398.48142 
C 287.996563 393.624551 286.066908 388.965952 282.632583 385.531627 
C 279.198257 382.097302 274.539659 380.167647 269.68279 380.167647 
C 264.82592 380.167647 260.167322 382.097302 256.732997 385.531627 
C 253.298671 388.965952 251.369017 393.624551 251.369017 398.48142 
C 251.369017 403.338289 253.298671 407.996888 256.732997 411.431213 
C 260.167322 414.865538 264.82592 416.795193 269.68279 416.795193 
z
" style="fill:#1996f3;stroke:#1996f3;stroke-linejoin:miter;"/>
   </g>
   <g id="patch_25">
    <path clip-path="url(#p6e4e74b4f4)" d="M 234.921195 326.121174 
C 245.508414 326.121174 255.663433 321.914827 263.149728 314.428533 
C 270.636022 306.942238 274.842369 296.787219 274.842369 286.2 
C 274.842369 275.612781 270.636022 265.457762 263.149728 257.971467 
C 255.663433 250.485173 245.508414 246.278826 234.921195 246.278826 
C 224.333976 246.278826 214.178957 250.485173 206.692662 257.971467 
C 199.206368 265.457762 195.000021 275.612781 195.000021 286.2 
C 195.000021 296.787219 199.206368 306.942238 206.692662 314.428533 
C 214.178957 321.914827 224.333976 326.121174 234.921195 326.121174 
z
" style="fill:#4df3ce;stroke:#4df3ce;stroke-linejoin:miter;"/>
   </g>
   <g id="patch_26">
    <path clip-path="url(#p6e4e74b4f4)" d="M 438.342581 341.22501 
C 449.435001 341.22501 460.074597 336.817944 467.918122 328.974419 
C 475.761647 321.130894 480.168712 310.491298 480.168712 299.398878 
C 480.168712 288.306458 475.761647 277.666862 467.918122 269.823337 
C 460.074597 261.979812 449.435001 257.572747 438.342581 257.572747 
C 427.250161 257.572747 416.610565 261.979812 408.76704 269.823337 
C 400.923515 277.666862 396.51645 288.306458 396.51645 299.398878 
C 396.51645 310.491298 400.923515 321.130894 408.76704 328.974419 
C 416.610565 336.817944 427.250161 341.22501 438.342581 341.22501 
z
" style="fill:#ff964f;stroke:#ff964f;stroke-linejoin:miter;"/>
   </g>
   <g id="matplotlib.axis_1"/>
   <g id="matplotlib.axis_2"/>
   <g id="text_1">
    <!-- 1 -->
    <defs>
     <path d="M 11.71875 12.984375 
L 28.328125 12.984375 
L 28.328125 60.109375 
L 11.28125 56.59375 
L 11.28125 69.390625 
L 28.21875 72.90625 
L 46.09375 72.90625 
L 46.09375 12.984375 
L 62.703125 12.984375 
L 62.703125 0 
L 11.71875 0 
z
" id="BitstreamVeraSans-Bold-31"/>
    </defs>
    <g transform="translate(292.7320557350472 571.2706250000001)scale(0.22 -0.22)">
     <use xlink:href="#BitstreamVeraSans-Bold-31"/>
    </g>
   </g>
   <g id="text_2">
    <!-- 4 -->
    <defs>
     <path d="M 36.8125 57.421875 
L 16.21875 26.90625 
L 36.8125 26.90625 
z
M 33.6875 72.90625 
L 54.59375 72.90625 
L 54.59375 26.90625 
L 64.984375 26.90625 
L 64.984375 13.28125 
L 54.59375 13.28125 
L 54.59375 0 
L 36.8125 0 
L 36.8125 13.28125 
L 4.5 13.28125 
L 4.5 29.390625 
z
" id="BitstreamVeraSans-Bold-34"/>
    </defs>
    <g transform="translate(454.9887960943988 444.31111067884234)scale(0.22 -0.22)">
     <use xlink:href="#BitstreamVeraSans-Bold-34"/>
    </g>
   </g>
   <g id="text_3">
    <!-- 2 -->
    <defs>
     <path d="M 28.8125 13.8125 
L 60.890625 13.8125 
L 60.890625 0 
L 7.90625 0 
L 7.90625 13.8125 
L 34.515625 37.3125 
Q 38.09375 40.53125 39.796875 43.609375 
Q 41.5 46.6875 41.5 50 
Q 41.5 55.125 38.0625 58.25 
Q 34.625 61.375 28.90625 61.375 
Q 24.515625 61.375 19.28125 59.5 
Q 14.0625 57.625 8.109375 53.90625 
L 8.109375 69.921875 
Q 14.453125 72.015625 20.65625 73.109375 
Q 26.859375 74.21875 32.8125 74.21875 
Q 45.90625 74.21875 53.15625 68.453125 
Q 60.40625 62.703125 60.40625 52.390625 
Q 60.40625 46.4375 57.328125 41.28125 
Q 54.25 36.140625 44.390625 27.484375 
z
" id="BitstreamVeraSans-Bold-32"/>
    </defs>
    <g transform="translate(262.02919593808485 404.5520451211162)scale(0.22 -0.22)">
     <use xlink:href="#BitstreamVeraSans-Bold-32"/>
    </g>
   </g>
   <g id="text_4">
    <!-- 3 -->
    <defs>
     <path d="M 46.578125 39.3125 
Q 53.953125 37.40625 57.78125 32.6875 
Q 61.625 27.984375 61.625 20.703125 
Q 61.625 9.859375 53.3125 4.21875 
Q 45.015625 -1.421875 29.109375 -1.421875 
Q 23.484375 -1.421875 17.84375 -0.515625 
Q 12.203125 0.390625 6.6875 2.203125 
L 6.6875 16.703125 
Q 11.96875 14.0625 17.15625 12.71875 
Q 22.359375 11.375 27.390625 11.375 
Q 34.859375 11.375 38.84375 13.953125 
Q 42.828125 16.546875 42.828125 21.390625 
Q 42.828125 26.375 38.75 28.9375 
Q 34.671875 31.5 26.703125 31.5 
L 19.1875 31.5 
L 19.1875 43.609375 
L 27.09375 43.609375 
Q 34.1875 43.609375 37.640625 45.828125 
Q 41.109375 48.046875 41.109375 52.59375 
Q 41.109375 56.78125 37.734375 59.078125 
Q 34.375 61.375 28.21875 61.375 
Q 23.6875 61.375 19.046875 60.34375 
Q 14.40625 59.328125 9.8125 57.328125 
L 9.8125 71.09375 
Q 15.375 72.65625 20.84375 73.4375 
Q 26.3125 74.21875 31.59375 74.21875 
Q 45.796875 74.21875 52.84375 69.546875 
Q 59.90625 64.890625 59.90625 55.515625 
Q 59.90625 49.125 56.53125 45.046875 
Q 53.171875 40.96875 46.578125 39.3125 
" id="BitstreamVeraSans-Bold-33"/>
    </defs>
    <g transform="translate(227.26760117219942 292.270625)scale(0.22 -0.22)">
     <use xlink:href="#BitstreamVeraSans-Bold-33"/>
    </g>
   </g>
   <g id="text_5">
    <!-- 5 -->
    <defs>
     <path d="M 10.59375 72.90625 
L 57.328125 72.90625 
L 57.328125 59.078125 
L 25.59375 59.078125 
L 25.59375 47.796875 
Q 27.734375 48.390625 29.90625 48.703125 
Q 32.078125 49.03125 34.421875 49.03125 
Q 47.75 49.03125 55.171875 42.359375 
Q 62.59375 35.6875 62.59375 23.78125 
Q 62.59375 11.96875 54.515625 5.265625 
Q 46.4375 -1.421875 32.078125 -1.421875 
Q 25.875 -1.421875 19.796875 -0.21875 
Q 13.71875 0.984375 7.71875 3.421875 
L 7.71875 18.21875 
Q 13.671875 14.796875 19.015625 13.078125 
Q 24.359375 11.375 29.109375 11.375 
Q 35.9375 11.375 39.859375 14.71875 
Q 43.796875 18.0625 43.796875 23.78125 
Q 43.796875 29.546875 39.859375 32.859375 
Q 35.9375 36.1875 29.109375 36.1875 
Q 25.046875 36.1875 20.453125 35.125 
Q 15.875 34.078125 10.59375 31.890625 
z
" id="BitstreamVeraSans-Bold-35"/>
    </defs>
    <g transform="translate(430.68898725553686 305.4695030720562)scale(0.22 -0.22)">
     <use xlink:href="#BitstreamVeraSans-Bold-35"/>
    </g>
   </g>
  </g>
 </g>
 <defs>
  <clipPath id="p6e4e74b4f4">
   <rect height="837.0" width="683.1635847665981" x="7.200000000000017" y="7.199999999999932"/>
  </clipPath>
 </defs>
</svg>
