<?xml version="1.0" encoding="utf-8" standalone="no"?>
<!DOCTYPE svg PUBLIC "-//W3C//DTD SVG 1.1//EN"
  "http://www.w3.org/Graphics/SVG/1.1/DTD/svg11.dtd">
<!-- Created with matplotlib (http://matplotlib.org/) -->
<svg height="1409pt" version="1.1" viewBox="0 0 1153 1409" width="1153pt" xmlns="http://www.w3.org/2000/svg" xmlns:xlink="http://www.w3.org/1999/xlink">
 <defs>
  <style type="text/css">
*{stroke-linecap:butt;stroke-linejoin:round;stroke-miterlimit:100000;}
  </style>
 </defs>
 <g id="figure_1">
  <g id="patch_1">
   <path d="M 0 1409.4 
L 1153.005975 1409.4 
L 1153.005975 0 
L 0 0 
z
" style="fill:#ffffff;"/>
  </g>
  <g id="axes_1">
   <g id="patch_2">
    <path d="M 500.543334 920.737106 
Q 579.362849 804.137922 703.451314 745.339144 
L 701.270931 740.73768 
Q 712.792234 740.915104 724.204617 741.576472 
Q 716.794884 750.283498 709.992466 759.143537 
L 707.812082 754.542073 
Q 586.240225 812.148367 508.980317 926.440396 
L 500.543334 920.737106 
z
" style="stroke:#000000;stroke-linecap:round;"/>
   </g>
   <g id="patch_3">
    <path d="M 483.89727 925.100483 
Q 384.585198 740.501551 381.059816 533.41369 
L 376.417208 533.492724 
Q 380.900995 524.054331 385.579759 514.764173 
Q 390.188505 524.089711 394.987658 533.176588 
L 390.34505 533.255622 
Q 393.832039 738.088187 492.07545 920.700718 
L 483.89727 925.100483 
z
" style="fill:#0d0d0d;stroke:#0d0d0d;stroke-linecap:round;"/>
   </g>
   <g id="patch_4">
    <path d="M 499.246164 921.280431 
Q 551.41805 703.152477 693.093714 531.478543 
L 691.36976 530.055833 
Q 693.927739 528.9201 696.489072 527.799793 
Q 695.848005 530.52093 695.226134 533.238345 
L 693.502181 531.815635 
Q 551.904589 703.394965 499.761236 921.403626 
L 499.246164 921.280431 
z
" style="fill:#8f8f8f;stroke:#8f8f8f;stroke-linecap:round;"/>
   </g>
   <g id="patch_5">
    <path d="M 718.523533 730.786097 
Q 584.945148 736.549086 465.773207 672.409505 
L 465.036362 673.77857 
Q 463.420702 671.489428 461.830449 669.187559 
Q 464.626021 669.299114 467.406004 669.375753 
L 466.669159 670.744818 
Q 585.383194 734.637949 718.442048 728.897374 
L 718.523533 730.786097 
z
" style="fill:#7c7c7c;stroke:#7c7c7c;stroke-linecap:round;"/>
   </g>
   <g id="patch_6">
    <path d="M 721.189733 709.075823 
Q 548.924634 639.833446 418.983256 507.200013 
L 417.374003 508.776603 
Q 416.513451 506.112037 415.670011 503.445653 
Q 418.308692 504.372151 420.945597 505.277501 
L 419.336344 506.854091 
Q 549.205172 639.413473 721.374083 708.617186 
L 721.189733 709.075823 
z
" style="fill:#8f8f8f;stroke:#8f8f8f;stroke-linecap:round;"/>
   </g>
   <g id="patch_7">
    <path d="M 734.95597 688.546492 
Q 697.365972 624.34926 706.96542 551.870287 
L 703.099658 551.358288 
Q 708.016164 543.9696 713.390987 536.99977 
Q 715.671132 545.506068 718.562705 553.406284 
L 714.696943 552.894285 
Q 705.44904 622.718985 741.686145 684.60571 
L 734.95597 688.546492 
z
" style="fill:#232323;stroke:#232323;stroke-linecap:round;"/>
   </g>
   <g id="patch_8">
    <path d="M 458.85348 641.419609 
Q 549.248799 540.973975 677.239486 504.515837 
L 676.813555 503.020557 
Q 679.568801 503.535482 682.312919 504.079842 
Q 680.229303 505.946718 678.183318 507.829273 
L 677.757387 506.333993 
Q 550.290024 542.643062 460.258702 642.684229 
L 458.85348 641.419609 
z
" style="fill:#7c7c7c;stroke:#7c7c7c;stroke-linecap:round;"/>
   </g>
   <g id="patch_9">
    <path d="M 430.333171 457.467512 
Q 550.169206 435.751614 666.47639 468.555819 
L 667.803935 463.849013 
Q 676.019228 471.248983 683.87485 478.908345 
Q 673.02767 480.564423 662.49376 482.676219 
L 663.821305 477.969413 
Q 549.68935 445.778727 432.07719 467.091629 
L 430.333171 457.467512 
z
" style="fill:#060606;stroke:#060606;stroke-linecap:round;"/>
   </g>
   <g id="patch_10">
    <path clip-path="url(#p0d00aaa9bb)" d="M 495.842749 950.013634 
C 499.240965 950.013634 502.500455 948.663509 504.903357 946.260607 
C 507.306258 943.857706 508.656383 940.598215 508.656383 937.2 
C 508.656383 933.801785 507.306258 930.542294 504.903357 928.139393 
C 502.500455 925.736491 499.240965 924.386366 495.842749 924.386366 
C 492.444534 924.386366 489.185043 925.736491 486.782142 928.139393 
C 484.37924 930.542294 483.029115 933.801785 483.029115 937.2 
C 483.029115 940.598215 484.37924 943.857706 486.782142 946.260607 
C 489.185043 948.663509 492.444534 950.013634 495.842749 950.013634 
z
" style="fill:#8000ff;stroke:#8000ff;stroke-linejoin:miter;"/>
   </g>
   <g id="patch_11">
    <path clip-path="url(#p0d00aaa9bb)" d="M 766.27065 770.11137 
C 778.074988 770.11137 789.397441 765.421457 797.744369 757.074529 
C 806.091297 748.727601 810.781211 737.405148 810.781211 725.600809 
C 810.781211 713.796471 806.091297 702.474018 797.744369 694.12709 
C 789.397441 685.780162 778.074988 681.090249 766.27065 681.090249 
C 754.466311 681.090249 743.143858 685.780162 734.79693 694.12709 
C 726.450002 702.474018 721.760089 713.796471 721.760089 725.600809 
C 721.760089 737.405148 726.450002 748.727601 734.79693 757.074529 
C 743.143858 765.421457 754.466311 770.11137 766.27065 770.11137 
z
" style="fill:#b2f396;stroke:#b2f396;stroke-linejoin:miter;"/>
   </g>
   <g id="patch_12">
    <path clip-path="url(#p0d00aaa9bb)" d="M 444.671316 678.640112 
C 449.790906 678.640112 454.7015 676.606077 458.321597 672.985981 
C 461.941693 669.365884 463.975728 664.45529 463.975728 659.3357 
C 463.975728 654.21611 461.941693 649.305516 458.321597 645.68542 
C 454.7015 642.065323 449.790906 640.031289 444.671316 640.031289 
C 439.551726 640.031289 434.641132 642.065323 431.021036 645.68542 
C 427.400939 649.305516 425.366905 654.21611 425.366905 659.3357 
C 425.366905 664.45529 427.400939 669.365884 431.021036 672.985981 
C 434.641132 676.606077 439.551726 678.640112 444.671316 678.640112 
z
" style="fill:#1996f3;stroke:#1996f3;stroke-linejoin:miter;"/>
   </g>
   <g id="patch_13">
    <path clip-path="url(#p0d00aaa9bb)" d="M 386.735325 514.280612 
C 397.895234 514.280612 408.599564 509.846733 416.490811 501.955486 
C 424.382058 494.064239 428.815937 483.359909 428.815937 472.2 
C 428.815937 461.040091 424.382058 450.335761 416.490811 442.444514 
C 408.599564 434.553267 397.895234 430.119388 386.735325 430.119388 
C 375.575416 430.119388 364.871086 434.553267 356.979839 442.444514 
C 349.088591 450.335761 344.654713 461.040091 344.654713 472.2 
C 344.654713 483.359909 349.088591 494.064239 356.979839 501.955486 
C 364.871086 509.846733 375.575416 514.280612 386.735325 514.280612 
z
" style="fill:#4df3ce;stroke:#4df3ce;stroke-linejoin:miter;"/>
   </g>
   <g id="patch_14">
    <path clip-path="url(#p0d00aaa9bb)" d="M 725.770968 538.286744 
C 737.463405 538.286744 748.678525 533.641289 756.946326 525.373488 
C 765.214128 517.105686 769.859582 505.890567 769.859582 494.19813 
C 769.859582 482.505693 765.214128 471.290574 756.946326 463.022772 
C 748.678525 454.754971 737.463405 450.109516 725.770968 450.109516 
C 714.078531 450.109516 702.863412 454.754971 694.595611 463.022772 
C 686.327809 471.290574 681.682355 482.505693 681.682355 494.19813 
C 681.682355 505.890567 686.327809 517.105686 694.595611 525.373488 
C 702.863412 533.641289 714.078531 538.286744 725.770968 538.286744 
z
" style="fill:#ff964f;stroke:#ff964f;stroke-linejoin:miter;"/>
   </g>
   <g id="matplotlib.axis_1"/>
   <g id="matplotlib.axis_2"/>
   <g id="text_1">
    <!-- 1 -->
    <defs>
     <path d="M 11.71875 12.984375 
L 28.328125 12.984375 
L 28.328125 60.109375 
L 11.28125 56.59375 
L 11.28125 69.390625 
L 28.21875 72.90625 
L 46.09375 72.90625 
L 46.09375 12.984375 
L 62.703125 12.984375 
L 62.703125 0 
L 11.71875 0 
z
" id="BitstreamVeraSans-Bold-31"/>
    </defs>
    <g transform="translate(488.1891553917453 943.2706250000001)scale(0.22 -0.22)">
     <use xlink:href="#BitstreamVeraSans-Bold-31"/>
    </g>
   </g>
   <g id="text_2">
    <!-- 4 -->
    <defs>
     <path d="M 36.8125 57.421875 
L 16.21875 26.90625 
L 36.8125 26.90625 
z
M 33.6875 72.90625 
L 54.59375 72.90625 
L 54.59375 26.90625 
L 64.984375 26.90625 
L 64.984375 13.28125 
L 54.59375 13.28125 
L 54.59375 0 
L 36.8125 0 
L 36.8125 13.28125 
L 4.5 13.28125 
L 4.5 29.390625 
z
" id="BitstreamVeraSans-Bold-34"/>
    </defs>
    <g transform="translate(758.6170559906647 731.6714344647372)scale(0.22 -0.22)">
     <use xlink:href="#BitstreamVeraSans-Bold-34"/>
    </g>
   </g>
   <g id="text_3">
    <!-- 2 -->
    <defs>
     <path d="M 28.8125 13.8125 
L 60.890625 13.8125 
L 60.890625 0 
L 7.90625 0 
L 7.90625 13.8125 
L 34.515625 37.3125 
Q 38.09375 40.53125 39.796875 43.609375 
Q 41.5 46.6875 41.5 50 
Q 41.5 55.125 38.0625 58.25 
Q 34.625 61.375 28.90625 61.375 
Q 24.515625 61.375 19.28125 59.5 
Q 14.0625 57.625 8.109375 53.90625 
L 8.109375 69.921875 
Q 14.453125 72.015625 20.65625 73.109375 
Q 26.859375 74.21875 32.8125 74.21875 
Q 45.90625 74.21875 53.15625 68.453125 
Q 60.40625 62.703125 60.40625 52.390625 
Q 60.40625 46.4375 57.328125 41.28125 
Q 54.25 36.140625 44.390625 27.484375 
z
" id="BitstreamVeraSans-Bold-32"/>
    </defs>
    <g transform="translate(437.01772239680815 665.4063252018602)scale(0.22 -0.22)">
     <use xlink:href="#BitstreamVeraSans-Bold-32"/>
    </g>
   </g>
   <g id="text_4">
    <!-- 3 -->
    <defs>
     <path d="M 46.578125 39.3125 
Q 53.953125 37.40625 57.78125 32.6875 
Q 61.625 27.984375 61.625 20.703125 
Q 61.625 9.859375 53.3125 4.21875 
Q 45.015625 -1.421875 29.109375 -1.421875 
Q 23.484375 -1.421875 17.84375 -0.515625 
Q 12.203125 0.390625 6.6875 2.203125 
L 6.6875 16.703125 
Q 11.96875 14.0625 17.15625 12.71875 
Q 22.359375 11.375 27.390625 11.375 
Q 34.859375 11.375 38.84375 13.953125 
Q 42.828125 16.546875 42.828125 21.390625 
Q 42.828125 26.375 38.75 28.9375 
Q 34.671875 31.5 26.703125 31.5 
L 19.1875 31.5 
L 19.1875 43.609375 
L 27.09375 43.609375 
Q 34.1875 43.609375 37.640625 45.828125 
Q 41.109375 48.046875 41.109375 52.59375 
Q 41.109375 56.78125 37.734375 59.078125 
Q 34.375 61.375 28.21875 61.375 
Q 23.6875 61.375 19.046875 60.34375 
Q 14.40625 59.328125 9.8125 57.328125 
L 9.8125 71.09375 
Q 15.375 72.65625 20.84375 73.4375 
Q 26.3125 74.21875 31.59375 74.21875 
Q 45.796875 74.21875 52.84375 69.546875 
Q 59.90625 64.890625 59.90625 55.515625 
Q 59.90625 49.125 56.53125 45.046875 
Q 53.171875 40.96875 46.578125 39.3125 
" id="BitstreamVeraSans-Bold-33"/>
    </defs>
    <g transform="translate(379.08173112033234 478.270625)scale(0.22 -0.22)">
     <use xlink:href="#BitstreamVeraSans-Bold-33"/>
    </g>
   </g>
   <g id="text_5">
    <!-- 5 -->
    <defs>
     <path d="M 10.59375 72.90625 
L 57.328125 72.90625 
L 57.328125 59.078125 
L 25.59375 59.078125 
L 25.59375 47.796875 
Q 27.734375 48.390625 29.90625 48.703125 
Q 32.078125 49.03125 34.421875 49.03125 
Q 47.75 49.03125 55.171875 42.359375 
Q 62.59375 35.6875 62.59375 23.78125 
Q 62.59375 11.96875 54.515625 5.265625 
Q 46.4375 -1.421875 32.078125 -1.421875 
Q 25.875 -1.421875 19.796875 -0.21875 
Q 13.71875 0.984375 7.71875 3.421875 
L 7.71875 18.21875 
Q 13.671875 14.796875 19.015625 13.078125 
Q 24.359375 11.375 29.109375 11.375 
Q 35.9375 11.375 39.859375 14.71875 
Q 43.796875 18.0625 43.796875 23.78125 
Q 43.796875 29.546875 39.859375 32.859375 
Q 35.9375 36.1875 29.109375 36.1875 
Q 25.046875 36.1875 20.453125 35.125 
Q 15.875 34.078125 10.59375 31.890625 
z
" id="BitstreamVeraSans-Bold-35"/>
    </defs>
    <g transform="translate(718.1173745925614 500.2687551200937)scale(0.22 -0.22)">
     <use xlink:href="#BitstreamVeraSans-Bold-35"/>
    </g>
   </g>
  </g>
 </g>
 <defs>
  <clipPath id="p0d00aaa9bb">
   <rect height="1395.0" width="1138.6059746109968" x="7.200000000000017" y="7.2000000000000455"/>
  </clipPath>
 </defs>
</svg>
