<?xml version="1.0" encoding="utf-8" standalone="no"?>
<!DOCTYPE svg PUBLIC "-//W3C//DTD SVG 1.1//EN"
  "http://www.w3.org/Graphics/SVG/1.1/DTD/svg11.dtd">
<!-- Created with matplotlib (http://matplotlib.org/) -->
<svg height="1409pt" version="1.1" viewBox="0 0 1166 1409" width="1166pt" xmlns="http://www.w3.org/2000/svg" xmlns:xlink="http://www.w3.org/1999/xlink">
 <defs>
  <style type="text/css">
*{stroke-linecap:butt;stroke-linejoin:round;stroke-miterlimit:100000;}
  </style>
 </defs>
 <g id="figure_1">
  <g id="patch_1">
   <path d="M 0 1409.4 
L 1166.932246 1409.4 
L 1166.932246 0 
L 0 0 
z
" style="fill:#ffffff;"/>
  </g>
  <g id="axes_1">
   <g id="patch_2">
    <path d="M 473.0526 923.619569 
Q 585.804755 797.034514 747.921142 750.556119 
L 747.53955 749.225129 
Q 750.295245 749.735456 753.042639 750.268848 
Q 750.965078 752.144091 748.917525 754.031498 
L 748.535934 752.700509 
Q 587.040731 799.000812 474.718388 925.103324 
L 473.0526 923.619569 
z
" style="fill:#c4c4ff;stroke:#c4c4ff;stroke-linecap:round;"/>
   </g>
   <g id="patch_3">
    <path d="M 758.477074 764.448141 
Q 644.503529 888.678039 481.225933 932.895181 
L 481.776604 934.928607 
Q 479.031361 934.377 476.294346 933.802867 
Q 478.396844 931.958823 480.469634 930.102446 
L 481.020305 932.135872 
Q 644.077929 887.9783 757.897408 763.916332 
L 758.477074 764.448141 
z
" style="fill:#eaeaff;stroke:#eaeaff;stroke-linecap:round;"/>
   </g>
   <g id="patch_4">
    <path d="M 453.142976 923.22616 
Q 368.047437 786.605088 386.719074 628.045483 
L 384.727565 627.810967 
Q 386.262102 625.468278 387.819052 623.144619 
Q 388.742014 625.785041 389.693254 628.395716 
L 387.701745 628.1612 
Q 369.070669 786.37636 453.982843 922.703042 
L 453.142976 923.22616 
z
" style="fill:#e4e4ff;stroke:#e4e4ff;stroke-linecap:round;"/>
   </g>
   <g id="patch_5">
    <path d="M 405.729525 622.218062 
Q 487.559397 759.389179 465.707647 918.479315 
L 468.146082 918.814245 
Q 466.566441 921.128517 464.965091 923.424226 
Q 464.093031 920.764467 463.192591 918.13386 
L 465.631026 918.46879 
Q 487.479086 759.405516 405.663106 622.257684 
L 405.729525 622.218062 
z
" style="fill:#fffcfc;stroke:#fffcfc;stroke-linecap:round;"/>
   </g>
   <g id="patch_6">
    <path d="M 464.811313 920.163189 
Q 529.101211 686.898952 685.262024 503.761347 
L 683.423909 502.193992 
Q 688.407737 500.072273 693.401746 498.002133 
Q 692.057097 503.238343 690.776355 508.463398 
L 688.938239 506.896043 
Q 533.473674 689.217123 469.468894 921.446864 
L 464.811313 920.163189 
z
" style="fill:#8080ff;stroke:#8080ff;stroke-linecap:round;"/>
   </g>
   <g id="patch_7">
    <path d="M 706.541534 508.473394 
Q 637.799009 741.345066 475.59026 923.216328 
L 477.368499 924.802318 
Q 474.768089 925.839966 472.165113 926.864114 
Q 472.909616 924.1678 473.637014 921.474252 
L 475.415253 923.060242 
Q 637.588994 741.228231 706.316628 508.407003 
L 706.541534 508.473394 
z
" style="fill:#f8f8ff;stroke:#f8f8ff;stroke-linecap:round;"/>
   </g>
   <g id="patch_8">
    <path d="M 749.297844 742.372612 
Q 566.181185 721.275222 414.51174 616.778073 
L 413.3805 618.419979 
Q 412.026204 615.968919 410.690794 613.511565 
Q 413.457693 613.919293 416.21728 614.302615 
L 415.08604 615.944521 
Q 566.547705 720.298514 749.4137 741.367024 
L 749.297844 742.372612 
z
" style="fill:#e4e4ff;stroke:#e4e4ff;stroke-linecap:round;"/>
   </g>
   <g id="patch_9">
    <path d="M 418.214627 601.708369 
Q 601.284855 622.937723 752.907648 727.567303 
L 754.027992 725.943769 
Q 755.380834 728.396066 756.714801 730.854649 
Q 753.947843 730.444641 751.188184 730.059045 
L 752.308528 728.435511 
Q 600.902152 623.955273 418.093117 602.756207 
L 418.214627 601.708369 
z
" style="fill:#ffe4e4;stroke:#ffe4e4;stroke-linecap:round;"/>
   </g>
   <g id="patch_10">
    <path d="M 758.76024 724.167336 
Q 691.647534 626.745461 707.444683 511.325411 
L 706.072882 511.137658 
Q 707.822444 508.56602 709.612566 506.028783 
Q 710.559762 508.986092 711.560086 511.888673 
L 710.188285 511.700919 
Q 694.536619 626.058009 761.040682 722.596368 
L 758.76024 724.167336 
z
" style="fill:#b6b6ff;stroke:#b6b6ff;stroke-linecap:round;"/>
   </g>
   <g id="patch_11">
    <path d="M 738.442001 502.647291 
Q 801.428342 600.748453 781.464356 716.848458 
L 783.874927 717.262968 
Q 782.21728 719.526574 780.528542 721.763515 
Q 779.75954 719.06817 778.947249 716.415629 
L 781.35782 716.830139 
Q 801.314689 600.77152 738.351037 502.705695 
L 738.442001 502.647291 
z
" style="fill:#fffcfc;stroke:#fffcfc;stroke-linecap:round;"/>
   </g>
   <g id="patch_12">
    <path d="M 410.553662 580.410502 
Q 526.405848 491.683408 669.836403 473.319392 
L 669.461326 470.389886 
Q 675.740345 472.56381 681.943958 474.870075 
Q 676.369079 478.43774 670.961636 482.107931 
L 670.586559 479.178425 
Q 528.734211 497.340376 414.145212 585.100039 
L 410.553662 580.410502 
z
" style="fill:#ff6464;stroke:#ff6464;stroke-linecap:round;"/>
   </g>
   <g id="patch_13">
    <path d="M 687.411653 496.14867 
Q 568.225014 583.968415 420.25398 598.325387 
L 420.41562 599.991344 
Q 417.797024 598.989521 415.191647 597.964885 
Q 417.576958 596.49918 419.93276 595.014714 
L 420.0944 596.680671 
Q 567.611756 582.367717 686.431441 494.818353 
L 687.411653 496.14867 
z
" style="fill:#ffd4d4;stroke:#ffd4d4;stroke-linecap:round;"/>
   </g>
   <g id="patch_14">
    <path clip-path="url(#p994e0a8811)" d="M 462.751319 950.68696 
C 466.328102 950.68696 469.758872 949.265888 472.288039 946.736721 
C 474.817207 944.207553 476.238278 940.776783 476.238278 937.2 
C 476.238278 933.623217 474.817207 930.192447 472.288039 927.663279 
C 469.758872 925.134112 466.328102 923.71304 462.751319 923.71304 
C 459.174535 923.71304 455.743766 925.134112 453.214598 927.663279 
C 450.685431 930.192447 449.264359 933.623217 449.264359 937.2 
C 449.264359 940.776783 450.685431 944.207553 453.214598 946.736721 
C 455.743766 949.265888 459.174535 950.68696 462.751319 950.68696 
z
" style="fill:#8000ff;stroke:#8000ff;stroke-linejoin:miter;"/>
   </g>
   <g id="patch_15">
    <path clip-path="url(#p994e0a8811)" d="M 775.554831 767.240222 
C 781.599388 767.240222 787.39719 764.838694 791.671338 760.564547 
C 795.945485 756.290399 798.347013 750.492597 798.347013 744.44804 
C 798.347013 738.403482 795.945485 732.605681 791.671338 728.331533 
C 787.39719 724.057386 781.599388 721.655857 775.554831 721.655857 
C 769.510273 721.655857 763.712471 724.057386 759.438324 728.331533 
C 755.164176 732.605681 752.762648 738.403482 752.762648 744.44804 
C 752.762648 750.492597 755.164176 756.290399 759.438324 760.564547 
C 763.712471 764.838694 769.510273 767.240222 775.554831 767.240222 
z
" style="fill:#feb562;stroke:#feb562;stroke-linejoin:miter;"/>
   </g>
   <g id="patch_16">
    <path clip-path="url(#p994e0a8811)" d="M 391.377415 622.957656 
C 397.575299 622.957656 403.520168 620.495211 407.902734 616.112645 
C 412.2853 611.730079 414.747745 605.78521 414.747745 599.587326 
C 414.747745 593.389442 412.2853 587.444573 407.902734 583.062007 
C 403.520168 578.679441 397.575299 576.216996 391.377415 576.216996 
C 385.179531 576.216996 379.234662 578.679441 374.852097 583.062007 
C 370.469531 587.444573 368.007085 593.389442 368.007085 599.587326 
C 368.007085 605.78521 370.469531 611.730079 374.852097 616.112645 
C 379.234662 620.495211 385.179531 622.957656 391.377415 622.957656 
z
" style="fill:#00b5eb;stroke:#00b5eb;stroke-linejoin:miter;"/>
   </g>
   <g id="patch_17">
    <path clip-path="url(#p994e0a8811)" d="M 716.48084 506.324856 
C 725.530858 506.324856 734.211428 502.729246 740.610757 496.329917 
C 747.010086 489.930588 750.605696 481.250018 750.605696 472.2 
C 750.605696 463.149982 747.010086 454.469412 740.610757 448.070083 
C 734.211428 441.670754 725.530858 438.075144 716.48084 438.075144 
C 707.430823 438.075144 698.750252 441.670754 692.350923 448.070083 
C 685.951595 454.469412 682.355984 463.149982 682.355984 472.2 
C 682.355984 481.250018 685.951595 489.930588 692.350923 496.329917 
C 698.750252 502.729246 707.430823 506.324856 716.48084 506.324856 
z
" style="fill:#80ffb4;stroke:#80ffb4;stroke-linejoin:miter;"/>
   </g>
   <g id="matplotlib.axis_1"/>
   <g id="matplotlib.axis_2"/>
   <g id="text_1">
    <!-- 1 -->
    <defs>
     <path d="M 11.71875 12.984375 
L 28.328125 12.984375 
L 28.328125 60.109375 
L 11.28125 56.59375 
L 11.28125 69.390625 
L 28.21875 72.90625 
L 46.09375 72.90625 
L 46.09375 12.984375 
L 62.703125 12.984375 
L 62.703125 0 
L 11.71875 0 
z
" id="BitstreamVeraSans-Bold-31"/>
    </defs>
    <g transform="translate(455.09772512455334 943.2706250000001)scale(0.22 -0.22)">
     <use xlink:href="#BitstreamVeraSans-Bold-31"/>
    </g>
   </g>
   <g id="text_2">
    <!-- 4 -->
    <defs>
     <path d="M 36.8125 57.421875 
L 16.21875 26.90625 
L 36.8125 26.90625 
z
M 33.6875 72.90625 
L 54.59375 72.90625 
L 54.59375 26.90625 
L 64.984375 26.90625 
L 64.984375 13.28125 
L 54.59375 13.28125 
L 54.59375 0 
L 36.8125 0 
L 36.8125 13.28125 
L 4.5 13.28125 
L 4.5 29.390625 
z
" id="BitstreamVeraSans-Bold-34"/>
    </defs>
    <g transform="translate(767.9012369512575 750.5186649137778)scale(0.22 -0.22)">
     <use xlink:href="#BitstreamVeraSans-Bold-34"/>
    </g>
   </g>
   <g id="text_3">
    <!-- 2 -->
    <defs>
     <path d="M 28.8125 13.8125 
L 60.890625 13.8125 
L 60.890625 0 
L 7.90625 0 
L 7.90625 13.8125 
L 34.515625 37.3125 
Q 38.09375 40.53125 39.796875 43.609375 
Q 41.5 46.6875 41.5 50 
Q 41.5 55.125 38.0625 58.25 
Q 34.625 61.375 28.90625 61.375 
Q 24.515625 61.375 19.28125 59.5 
Q 14.0625 57.625 8.109375 53.90625 
L 8.109375 69.921875 
Q 14.453125 72.015625 20.65625 73.109375 
Q 26.859375 74.21875 32.8125 74.21875 
Q 45.90625 74.21875 53.15625 68.453125 
Q 60.40625 62.703125 60.40625 52.390625 
Q 60.40625 46.4375 57.328125 41.28125 
Q 54.25 36.140625 44.390625 27.484375 
z
" id="BitstreamVeraSans-Bold-32"/>
    </defs>
    <g transform="translate(383.72382160062875 605.6579509536291)scale(0.22 -0.22)">
     <use xlink:href="#BitstreamVeraSans-Bold-32"/>
    </g>
   </g>
   <g id="text_4">
    <!-- 3 -->
    <defs>
     <path d="M 46.578125 39.3125 
Q 53.953125 37.40625 57.78125 32.6875 
Q 61.625 27.984375 61.625 20.703125 
Q 61.625 9.859375 53.3125 4.21875 
Q 45.015625 -1.421875 29.109375 -1.421875 
Q 23.484375 -1.421875 17.84375 -0.515625 
Q 12.203125 0.390625 6.6875 2.203125 
L 6.6875 16.703125 
Q 11.96875 14.0625 17.15625 12.71875 
Q 22.359375 11.375 27.390625 11.375 
Q 34.859375 11.375 38.84375 13.953125 
Q 42.828125 16.546875 42.828125 21.390625 
Q 42.828125 26.375 38.75 28.9375 
Q 34.671875 31.5 26.703125 31.5 
L 19.1875 31.5 
L 19.1875 43.609375 
L 27.09375 43.609375 
Q 34.1875 43.609375 37.640625 45.828125 
Q 41.109375 48.046875 41.109375 52.59375 
Q 41.109375 56.78125 37.734375 59.078125 
Q 34.375 61.375 28.21875 61.375 
Q 23.6875 61.375 19.046875 60.34375 
Q 14.40625 59.328125 9.8125 57.328125 
L 9.8125 71.09375 
Q 15.375 72.65625 20.84375 73.4375 
Q 26.3125 74.21875 31.59375 74.21875 
Q 45.796875 74.21875 52.84375 69.546875 
Q 59.90625 64.890625 59.90625 55.515625 
Q 59.90625 49.125 56.53125 45.046875 
Q 53.171875 40.96875 46.578125 39.3125 
" id="BitstreamVeraSans-Bold-33"/>
    </defs>
    <g transform="translate(708.8272464693038 478.2706250000001)scale(0.22 -0.22)">
     <use xlink:href="#BitstreamVeraSans-Bold-33"/>
    </g>
   </g>
  </g>
 </g>
 <defs>
  <clipPath id="p994e0a8811">
   <rect height="1395.0" width="1152.532246051886" x="7.200000000000017" y="7.2000000000000455"/>
  </clipPath>
 </defs>
</svg>
