<?xml version="1.0" encoding="utf-8" standalone="no"?>
<!DOCTYPE svg PUBLIC "-//W3C//DTD SVG 1.1//EN"
  "http://www.w3.org/Graphics/SVG/1.1/DTD/svg11.dtd">
<!-- Created with matplotlib (http://matplotlib.org/) -->
<svg height="1130pt" version="1.1" viewBox="0 0 936 1130" width="936pt" xmlns="http://www.w3.org/2000/svg" xmlns:xlink="http://www.w3.org/1999/xlink">
 <defs>
  <style type="text/css">
*{stroke-linecap:butt;stroke-linejoin:round;stroke-miterlimit:100000;}
  </style>
 </defs>
 <g id="figure_1">
  <g id="patch_1">
   <path d="M 0 1130.4 
L 936.425797 1130.4 
L 936.425797 0 
L 0 0 
z
" style="fill:#ffffff;"/>
  </g>
  <g id="axes_1">
   <g id="patch_2">
    <path d="M 392.366673 727.665435 
Q 468.555978 647.997128 571.394269 611.574153 
L 570.663147 609.509872 
Q 573.445861 609.85042 576.217979 610.222251 
Q 574.255944 612.215606 572.332427 614.222993 
L 571.601306 612.158712 
Q 468.902146 648.53241 392.814855 728.094045 
L 392.366673 727.665435 
z
" style="fill:#959595;stroke:#959595;stroke-linecap:round;"/>
   </g>
   <g id="patch_3">
    <path d="M 587.437979 634.040572 
Q 508.944542 709.879098 403.815257 742.491786 
L 404.523805 744.775839 
Q 401.758247 744.324958 399.003174 743.844428 
Q 401.041707 741.929778 403.042374 740.000343 
L 403.750921 742.284396 
Q 508.830838 709.687023 587.287101 633.884412 
L 587.437979 634.040572 
z
" style="fill:#959595;stroke:#959595;stroke-linecap:round;"/>
   </g>
   <g id="patch_4">
    <path d="M 355.176644 724.596081 
Q 304.828043 635.29525 308.727914 534.525529 
L 306.305647 534.431785 
Q 307.651914 531.969895 309.03003 529.533888 
Q 310.148662 532.099482 311.301907 534.625144 
L 308.87964 534.531401 
Q 304.981432 635.258143 355.30891 724.521508 
L 355.176644 724.596081 
z
" style="fill:#959595;stroke:#959595;stroke-linecap:round;"/>
   </g>
   <g id="patch_5">
    <path d="M 340.565095 525.86601 
Q 385.426079 616.290775 376.070368 718.177268 
L 378.534711 718.403556 
Q 377.060193 720.790808 375.556378 723.153524 
Q 374.573646 720.530847 373.555658 717.946355 
L 376.02 718.172643 
Q 385.374401 616.300418 340.519785 525.888489 
L 340.565095 525.86601 
z
" style="fill:#959595;stroke:#959595;stroke-linecap:round;"/>
   </g>
   <g id="patch_6">
    <path d="M 379.222972 720.761977 
Q 425.649248 564.287706 524.854488 436.610848 
L 523.552286 435.599034 
Q 526.077054 434.386975 528.605721 433.192995 
Q 528.042454 435.932065 527.50053 438.666829 
L 526.198328 437.655015 
Q 427.189645 565.078905 380.854494 721.246053 
L 379.222972 720.761977 
z
" style="fill:#939393;stroke:#939393;stroke-linecap:round;"/>
   </g>
   <g id="patch_7">
    <path d="M 553.268168 449.981454 
Q 499.95455 602.560274 393.899135 726.360034 
L 395.696785 727.900025 
Q 393.117409 728.989596 390.534639 730.061929 
Q 391.227822 727.352661 391.899613 724.647105 
L 393.697262 726.187096 
Q 499.720117 602.425344 553.017226 449.893771 
L 553.268168 449.981454 
z
" style="fill:#959595;stroke:#959595;stroke-linecap:round;"/>
   </g>
   <g id="patch_8">
    <path d="M 571.629236 591.326002 
Q 457.241327 572.578329 358.734987 511.711722 
L 357.66679 513.440488 
Q 356.190087 511.058643 354.738263 508.668034 
Q 357.521684 508.942736 360.295019 509.18697 
L 359.226823 510.915736 
Q 457.575525 571.684938 571.780571 590.402642 
L 571.629236 591.326002 
z
" style="fill:#949494;stroke:#949494;stroke-linecap:round;"/>
   </g>
   <g id="patch_9">
    <path d="M 365.973675 486.999571 
Q 480.271881 505.963455 578.68998 567.042194 
L 579.773614 565.2961 
Q 581.246399 567.681297 582.69434 570.075232 
Q 579.910675 569.794601 577.137061 569.544463 
L 578.220695 567.798369 
Q 479.952346 506.812565 365.828007 487.877529 
L 365.973675 486.999571 
z
" style="fill:#949494;stroke:#949494;stroke-linecap:round;"/>
   </g>
   <g id="patch_10">
    <path d="M 593.493326 555.136919 
Q 567.902165 507.4454 565.797235 454.654992 
L 563.786722 454.735158 
Q 564.935388 452.16534 566.1384 449.637017 
Q 567.435232 452.118626 568.782752 454.535949 
L 566.77224 454.616115 
Q 568.868218 507.182012 594.35314 554.675545 
L 593.493326 555.136919 
z
" style="fill:#949494;stroke:#949494;stroke-linecap:round;"/>
   </g>
   <g id="patch_11">
    <path d="M 612.932599 442.500641 
Q 633.304014 491.253462 630.225575 545.09355 
L 632.504203 545.223836 
Q 631.112413 547.6658 629.673544 550.069289 
Q 628.619557 547.473733 627.512356 544.938415 
L 629.790984 545.068701 
Q 632.863698 491.328747 612.530953 442.66847 
L 612.932599 442.500641 
z
" style="fill:#959595;stroke:#959595;stroke-linecap:round;"/>
   </g>
   <g id="patch_12">
    <path d="M 355.339283 449.126736 
Q 421.861992 404.878855 499.10135 387.974984 
L 498.801774 386.606122 
Q 501.520697 387.290711 504.221983 388.008721 
Q 502.026837 389.739026 499.870727 391.490519 
L 499.571151 390.121657 
Q 422.735189 406.937245 356.556309 450.956426 
L 355.339283 449.126736 
z
" style="fill:#939393;stroke:#939393;stroke-linecap:round;"/>
   </g>
   <g id="patch_13">
    <path d="M 514.653054 422.558668 
Q 446.706764 462.922653 368.057295 475.968925 
L 368.382071 477.926841 
Q 365.699794 477.104652 363.034827 476.251088 
Q 365.318514 474.633818 367.563858 472.994242 
L 367.888635 474.952158 
Q 446.346955 461.937594 514.126661 421.67257 
L 514.653054 422.558668 
z
" style="fill:#949494;stroke:#949494;stroke-linecap:round;"/>
   </g>
   <g id="patch_14">
    <path clip-path="url(#p3dbd871032)" d="M 371.641055 779.058544 
C 379.029227 779.058544 386.115794 776.123192 391.34002 770.898965 
C 396.564247 765.674739 399.499599 758.588172 399.499599 751.2 
C 399.499599 743.811828 396.564247 736.725261 391.34002 731.501035 
C 386.115794 726.276808 379.029227 723.341456 371.641055 723.341456 
C 364.252883 723.341456 357.166317 726.276808 351.94209 731.501035 
C 346.717863 736.725261 343.782511 743.811828 343.782511 751.2 
C 343.782511 758.588172 346.717863 765.674739 351.94209 770.898965 
C 357.166317 776.123192 364.252883 779.058544 371.641055 779.058544 
z
" style="fill:#8000ff;stroke:#8000ff;stroke-linejoin:miter;"/>
   </g>
   <g id="patch_15">
    <path clip-path="url(#p3dbd871032)" d="M 621.883865 644.077762 
C 634.369449 644.077762 646.345337 639.117187 655.173978 630.288545 
C 664.002619 621.459904 668.963194 609.484016 668.963194 596.998432 
C 668.963194 584.512848 664.002619 572.53696 655.173978 563.708319 
C 646.345337 554.879677 634.369449 549.919102 621.883865 549.919102 
C 609.39828 549.919102 597.422392 554.879677 588.593751 563.708319 
C 579.76511 572.53696 574.804535 584.512848 574.804535 596.998432 
C 574.804535 609.484016 579.76511 621.459904 588.593751 630.288545 
C 597.422392 639.117187 609.39828 644.077762 621.883865 644.077762 
z
" style="fill:#feb562;stroke:#feb562;stroke-linejoin:miter;"/>
   </g>
   <g id="patch_16">
    <path clip-path="url(#p3dbd871032)" d="M 314.541932 529.383407 
C 327.344226 529.383407 339.623895 524.297001 348.676484 515.244413 
C 357.729073 506.191824 362.815478 493.912155 362.815478 481.109861 
C 362.815478 468.307567 357.729073 456.027898 348.676484 446.975309 
C 339.623895 437.92272 327.344226 432.836315 314.541932 432.836315 
C 301.739638 432.836315 289.459969 437.92272 280.407381 446.975309 
C 271.354792 456.027898 266.268386 468.307567 266.268386 481.109861 
C 266.268386 493.912155 271.354792 506.191824 280.407381 515.244413 
C 289.459969 524.297001 301.739638 529.383407 314.541932 529.383407 
z
" style="fill:#00b5eb;stroke:#00b5eb;stroke-linejoin:miter;"/>
   </g>
   <g id="patch_17">
    <path clip-path="url(#p3dbd871032)" d="M 574.624672 449.687999 
C 593.318308 449.687999 611.248818 442.260939 624.467214 429.042542 
C 637.685611 415.824145 645.112671 397.893636 645.112671 379.2 
C 645.112671 360.506364 637.685611 342.575855 624.467214 329.357458 
C 611.248818 316.139061 593.318308 308.712001 574.624672 308.712001 
C 555.931036 308.712001 538.000527 316.139061 524.78213 329.357458 
C 511.563733 342.575855 504.136673 360.506364 504.136673 379.2 
C 504.136673 397.893636 511.563733 415.824145 524.78213 429.042542 
C 538.000527 442.260939 555.931036 449.687999 574.624672 449.687999 
z
" style="fill:#80ffb4;stroke:#80ffb4;stroke-linejoin:miter;"/>
   </g>
   <g id="matplotlib.axis_1"/>
   <g id="matplotlib.axis_2"/>
   <g id="text_1">
    <!-- 1 -->
    <defs>
     <path d="M 11.71875 12.984375 
L 28.328125 12.984375 
L 28.328125 60.109375 
L 11.28125 56.59375 
L 11.28125 69.390625 
L 28.21875 72.90625 
L 46.09375 72.90625 
L 46.09375 12.984375 
L 62.703125 12.984375 
L 62.703125 0 
L 11.71875 0 
z
" id="BitstreamVeraSans-Bold-31"/>
    </defs>
    <g transform="translate(363.9874613496428 757.2706250000001)scale(0.22 -0.22)">
     <use xlink:href="#BitstreamVeraSans-Bold-31"/>
    </g>
   </g>
   <g id="text_2">
    <!-- 4 -->
    <defs>
     <path d="M 36.8125 57.421875 
L 16.21875 26.90625 
L 36.8125 26.90625 
z
M 33.6875 72.90625 
L 54.59375 72.90625 
L 54.59375 26.90625 
L 64.984375 26.90625 
L 64.984375 13.28125 
L 54.59375 13.28125 
L 54.59375 0 
L 36.8125 0 
L 36.8125 13.28125 
L 4.5 13.28125 
L 4.5 29.390625 
z
" id="BitstreamVeraSans-Bold-34"/>
    </defs>
    <g transform="translate(614.2302708110061 603.0690569310224)scale(0.22 -0.22)">
     <use xlink:href="#BitstreamVeraSans-Bold-34"/>
    </g>
   </g>
   <g id="text_3">
    <!-- 2 -->
    <defs>
     <path d="M 28.8125 13.8125 
L 60.890625 13.8125 
L 60.890625 0 
L 7.90625 0 
L 7.90625 13.8125 
L 34.515625 37.3125 
Q 38.09375 40.53125 39.796875 43.609375 
Q 41.5 46.6875 41.5 50 
Q 41.5 55.125 38.0625 58.25 
Q 34.625 61.375 28.90625 61.375 
Q 24.515625 61.375 19.28125 59.5 
Q 14.0625 57.625 8.109375 53.90625 
L 8.109375 69.921875 
Q 14.453125 72.015625 20.65625 73.109375 
Q 26.859375 74.21875 32.8125 74.21875 
Q 45.90625 74.21875 53.15625 68.453125 
Q 60.40625 62.703125 60.40625 52.390625 
Q 60.40625 46.4375 57.328125 41.28125 
Q 54.25 36.140625 44.390625 27.484375 
z
" id="BitstreamVeraSans-Bold-32"/>
    </defs>
    <g transform="translate(306.88833853050306 487.18048576290334)scale(0.22 -0.22)">
     <use xlink:href="#BitstreamVeraSans-Bold-32"/>
    </g>
   </g>
   <g id="text_4">
    <!-- 3 -->
    <defs>
     <path d="M 46.578125 39.3125 
Q 53.953125 37.40625 57.78125 32.6875 
Q 61.625 27.984375 61.625 20.703125 
Q 61.625 9.859375 53.3125 4.21875 
Q 45.015625 -1.421875 29.109375 -1.421875 
Q 23.484375 -1.421875 17.84375 -0.515625 
Q 12.203125 0.390625 6.6875 2.203125 
L 6.6875 16.703125 
Q 11.96875 14.0625 17.15625 12.71875 
Q 22.359375 11.375 27.390625 11.375 
Q 34.859375 11.375 38.84375 13.953125 
Q 42.828125 16.546875 42.828125 21.390625 
Q 42.828125 26.375 38.75 28.9375 
Q 34.671875 31.5 26.703125 31.5 
L 19.1875 31.5 
L 19.1875 43.609375 
L 27.09375 43.609375 
Q 34.1875 43.609375 37.640625 45.828125 
Q 41.109375 48.046875 41.109375 52.59375 
Q 41.109375 56.78125 37.734375 59.078125 
Q 34.375 61.375 28.21875 61.375 
Q 23.6875 61.375 19.046875 60.34375 
Q 14.40625 59.328125 9.8125 57.328125 
L 9.8125 71.09375 
Q 15.375 72.65625 20.84375 73.4375 
Q 26.3125 74.21875 31.59375 74.21875 
Q 45.796875 74.21875 52.84375 69.546875 
Q 59.90625 64.890625 59.90625 55.515625 
Q 59.90625 49.125 56.53125 45.046875 
Q 53.171875 40.96875 46.578125 39.3125 
" id="BitstreamVeraSans-Bold-33"/>
    </defs>
    <g transform="translate(566.9710784254431 385.2706250000001)scale(0.22 -0.22)">
     <use xlink:href="#BitstreamVeraSans-Bold-33"/>
    </g>
   </g>
  </g>
 </g>
 <defs>
  <clipPath id="p3dbd871032">
   <rect height="1116.0" width="922.025796841509" x="7.200000000000017" y="7.2000000000000455"/>
  </clipPath>
 </defs>
</svg>
