<?xml version="1.0" encoding="utf-8" standalone="no"?>
<!DOCTYPE svg PUBLIC "-//W3C//DTD SVG 1.1//EN"
  "http://www.w3.org/Graphics/SVG/1.1/DTD/svg11.dtd">
<!-- Created with matplotlib (http://matplotlib.org/) -->
<svg height="1130pt" version="1.1" viewBox="0 0 936 1130" width="936pt" xmlns="http://www.w3.org/2000/svg" xmlns:xlink="http://www.w3.org/1999/xlink">
 <defs>
  <style type="text/css">
*{stroke-linecap:butt;stroke-linejoin:round;stroke-miterlimit:100000;}
  </style>
 </defs>
 <g id="figure_1">
  <g id="patch_1">
   <path d="M 0 1130.4 
L 936.425797 1130.4 
L 936.425797 0 
L 0 0 
z
" style="fill:#ffffff;"/>
  </g>
  <g id="axes_1">
   <g id="patch_2">
    <path d="M 392.590692 727.879671 
Q 468.729006 648.264683 571.497754 611.866338 
L 570.663147 609.509872 
Q 573.445861 609.85042 576.217979 610.222251 
Q 574.255944 612.215606 572.332427 614.222993 
L 571.497821 611.866527 
Q 468.729118 648.264855 392.590836 727.879809 
L 392.590692 727.879671 
z
" style="fill:#6c6c6c;stroke:#6c6c6c;stroke-linecap:round;"/>
   </g>
   <g id="patch_3">
    <path d="M 587.36261 633.962564 
Q 508.887743 709.783149 403.783119 742.388186 
L 404.523805 744.775839 
Q 401.758247 744.324958 399.003174 743.844428 
Q 401.041707 741.929778 403.042374 740.000343 
L 403.78306 742.387995 
Q 508.887638 709.782972 587.362471 633.96242 
L 587.36261 633.962564 
z
" style="fill:#6d6d6d;stroke:#6d6d6d;stroke-linecap:round;"/>
   </g>
   <g id="patch_4">
    <path d="M 355.242638 724.558873 
Q 304.904576 635.276735 308.803617 534.528459 
L 306.305647 534.431785 
Q 307.651914 531.969895 309.03003 529.533888 
Q 310.148662 532.099482 311.301907 534.625144 
L 308.803937 534.528471 
Q 304.904899 635.276657 355.242916 724.558716 
L 355.242638 724.558873 
z
" style="fill:#545454;stroke:#545454;stroke-linecap:round;"/>
   </g>
   <g id="patch_5">
    <path d="M 340.542628 525.877157 
Q 385.400455 616.295556 376.045394 718.174975 
L 378.534711 718.403556 
Q 377.060193 720.790808 375.556378 723.153524 
Q 374.573646 720.530847 373.555658 717.946355 
L 376.044975 718.174936 
Q 385.400026 616.295636 340.542252 525.877343 
L 340.542628 525.877157 
z
" style="fill:#363636;stroke:#363636;stroke-linecap:round;"/>
   </g>
   <g id="patch_6">
    <path d="M 380.038637 721.003986 
Q 426.419356 564.683259 525.526329 437.13287 
L 523.552286 435.599034 
Q 526.077054 434.386975 528.605721 433.192995 
Q 528.042454 435.932065 527.50053 438.666829 
L 525.526487 437.132993 
Q 426.419537 564.683352 380.038829 721.004043 
L 380.038637 721.003986 
z
" style="fill:#6b6b6b;stroke:#6b6b6b;stroke-linecap:round;"/>
   </g>
   <g id="patch_7">
    <path d="M 553.142858 449.937669 
Q 499.837484 602.492895 393.798328 726.273676 
L 395.696785 727.900025 
Q 393.117409 728.989596 390.534639 730.061929 
Q 391.227822 727.352661 391.899613 724.647105 
L 393.79807 726.273454 
Q 499.837184 602.492723 553.142537 449.937557 
L 553.142858 449.937669 
z
" style="fill:#4e4e4e;stroke:#4e4e4e;stroke-linecap:round;"/>
   </g>
   <g id="patch_8">
    <path d="M 571.704879 590.86447 
Q 457.408373 572.131777 358.980826 511.313857 
L 357.66679 513.440488 
Q 356.190087 511.058643 354.738263 508.668034 
Q 357.521684 508.942736 360.295019 509.18697 
L 358.980984 511.313601 
Q 457.40848 572.13149 571.704928 590.864174 
L 571.704879 590.86447 
z
" style="fill:#545454;stroke:#545454;stroke-linecap:round;"/>
   </g>
   <g id="patch_9">
    <path d="M 365.900882 487.438304 
Q 480.112204 506.387772 578.455469 567.420069 
L 579.773614 565.2961 
Q 581.246399 567.681297 582.69434 570.075232 
Q 579.910675 569.794601 577.137061 569.544463 
L 578.455206 567.420494 
Q 480.112024 506.388249 365.9008 487.438797 
L 365.900882 487.438304 
z
" style="fill:#222222;stroke:#222222;stroke-linecap:round;"/>
   </g>
   <g id="patch_10">
    <path d="M 593.92311 554.906299 
Q 568.385053 507.313744 566.284597 454.635559 
L 563.786722 454.735158 
Q 564.935388 452.16534 566.1384 449.637017 
Q 567.435232 452.118626 568.782752 454.535949 
L 566.284877 454.635548 
Q 568.38533 507.313668 593.923356 554.906166 
L 593.92311 554.906299 
z
" style="fill:#5a5a5a;stroke:#5a5a5a;stroke-linecap:round;"/>
   </g>
   <g id="patch_11">
    <path d="M 612.731961 442.584478 
Q 633.084058 491.29107 630.008479 545.081137 
L 632.504203 545.223836 
Q 631.112413 547.6658 629.673544 550.069289 
Q 628.619557 547.473733 627.512356 544.938415 
L 630.00808 545.081114 
Q 633.083654 491.291139 612.731592 442.584633 
L 612.731961 442.584478 
z
" style="fill:#393939;stroke:#393939;stroke-linecap:round;"/>
   </g>
   <g id="patch_12">
    <path d="M 355.947619 450.041315 
Q 422.298463 405.90775 499.336182 389.048008 
L 498.801774 386.606122 
Q 501.520697 387.290711 504.221983 388.008721 
Q 502.026837 389.739026 499.870727 391.490519 
L 499.336319 389.048633 
Q 422.298718 405.90835 355.947973 450.041848 
L 355.947619 450.041315 
z
" style="stroke:#000000;stroke-linecap:round;"/>
   </g>
   <g id="patch_13">
    <path d="M 514.389996 422.115851 
Q 446.526954 462.430382 367.973009 475.460808 
L 368.382071 477.926841 
Q 365.699794 477.104652 363.034827 476.251088 
Q 365.318514 474.633818 367.563858 472.994242 
L 367.972921 475.460275 
Q 446.526765 462.429866 514.38972 422.115387 
L 514.389996 422.115851 
z
" style="fill:#171717;stroke:#171717;stroke-linecap:round;"/>
   </g>
   <g id="text_1">
    <!-- 2e-06 -->
    <defs>
     <path d="M 19.1875 8.296875 
L 53.609375 8.296875 
L 53.609375 0 
L 7.328125 0 
L 7.328125 8.296875 
Q 12.9375 14.109375 22.625 23.890625 
Q 32.328125 33.6875 34.8125 36.53125 
Q 39.546875 41.84375 41.421875 45.53125 
Q 43.3125 49.21875 43.3125 52.78125 
Q 43.3125 58.59375 39.234375 62.25 
Q 35.15625 65.921875 28.609375 65.921875 
Q 23.96875 65.921875 18.8125 64.3125 
Q 13.671875 62.703125 7.8125 59.421875 
L 7.8125 69.390625 
Q 13.765625 71.78125 18.9375 73 
Q 24.125 74.21875 28.421875 74.21875 
Q 39.75 74.21875 46.484375 68.546875 
Q 53.21875 62.890625 53.21875 53.421875 
Q 53.21875 48.921875 51.53125 44.890625 
Q 49.859375 40.875 45.40625 35.40625 
Q 44.1875 33.984375 37.640625 27.21875 
Q 31.109375 20.453125 19.1875 8.296875 
" id="BitstreamVeraSans-Roman-32"/>
     <path d="M 56.203125 29.59375 
L 56.203125 25.203125 
L 14.890625 25.203125 
Q 15.484375 15.921875 20.484375 11.0625 
Q 25.484375 6.203125 34.421875 6.203125 
Q 39.59375 6.203125 44.453125 7.46875 
Q 49.3125 8.734375 54.109375 11.28125 
L 54.109375 2.78125 
Q 49.265625 0.734375 44.1875 -0.34375 
Q 39.109375 -1.421875 33.890625 -1.421875 
Q 20.796875 -1.421875 13.15625 6.1875 
Q 5.515625 13.8125 5.515625 26.8125 
Q 5.515625 40.234375 12.765625 48.109375 
Q 20.015625 56 32.328125 56 
Q 43.359375 56 49.78125 48.890625 
Q 56.203125 41.796875 56.203125 29.59375 
M 47.21875 32.234375 
Q 47.125 39.59375 43.09375 43.984375 
Q 39.0625 48.390625 32.421875 48.390625 
Q 24.90625 48.390625 20.390625 44.140625 
Q 15.875 39.890625 15.1875 32.171875 
z
" id="BitstreamVeraSans-Roman-65"/>
     <path d="M 31.78125 66.40625 
Q 24.171875 66.40625 20.328125 58.90625 
Q 16.5 51.421875 16.5 36.375 
Q 16.5 21.390625 20.328125 13.890625 
Q 24.171875 6.390625 31.78125 6.390625 
Q 39.453125 6.390625 43.28125 13.890625 
Q 47.125 21.390625 47.125 36.375 
Q 47.125 51.421875 43.28125 58.90625 
Q 39.453125 66.40625 31.78125 66.40625 
M 31.78125 74.21875 
Q 44.046875 74.21875 50.515625 64.515625 
Q 56.984375 54.828125 56.984375 36.375 
Q 56.984375 17.96875 50.515625 8.265625 
Q 44.046875 -1.421875 31.78125 -1.421875 
Q 19.53125 -1.421875 13.0625 8.265625 
Q 6.59375 17.96875 6.59375 36.375 
Q 6.59375 54.828125 13.0625 64.515625 
Q 19.53125 74.21875 31.78125 74.21875 
" id="BitstreamVeraSans-Roman-30"/>
     <path d="M 33.015625 40.375 
Q 26.375 40.375 22.484375 35.828125 
Q 18.609375 31.296875 18.609375 23.390625 
Q 18.609375 15.53125 22.484375 10.953125 
Q 26.375 6.390625 33.015625 6.390625 
Q 39.65625 6.390625 43.53125 10.953125 
Q 47.40625 15.53125 47.40625 23.390625 
Q 47.40625 31.296875 43.53125 35.828125 
Q 39.65625 40.375 33.015625 40.375 
M 52.59375 71.296875 
L 52.59375 62.3125 
Q 48.875 64.0625 45.09375 64.984375 
Q 41.3125 65.921875 37.59375 65.921875 
Q 27.828125 65.921875 22.671875 59.328125 
Q 17.53125 52.734375 16.796875 39.40625 
Q 19.671875 43.65625 24.015625 45.921875 
Q 28.375 48.1875 33.59375 48.1875 
Q 44.578125 48.1875 50.953125 41.515625 
Q 57.328125 34.859375 57.328125 23.390625 
Q 57.328125 12.15625 50.6875 5.359375 
Q 44.046875 -1.421875 33.015625 -1.421875 
Q 20.359375 -1.421875 13.671875 8.265625 
Q 6.984375 17.96875 6.984375 36.375 
Q 6.984375 53.65625 15.1875 63.9375 
Q 23.390625 74.21875 37.203125 74.21875 
Q 40.921875 74.21875 44.703125 73.484375 
Q 48.484375 72.75 52.59375 71.296875 
" id="BitstreamVeraSans-Roman-36"/>
     <path d="M 4.890625 31.390625 
L 31.203125 31.390625 
L 31.203125 23.390625 
L 4.890625 23.390625 
z
" id="BitstreamVeraSans-Roman-2d"/>
    </defs>
    <g transform="translate(450.99397015654375 664.4743053461968)scale(0.14 -0.14)">
     <use xlink:href="#BitstreamVeraSans-Roman-32"/>
     <use x="63.623046875" xlink:href="#BitstreamVeraSans-Roman-65"/>
     <use x="125.146484375" xlink:href="#BitstreamVeraSans-Roman-2d"/>
     <use x="161.23046875" xlink:href="#BitstreamVeraSans-Roman-30"/>
     <use x="224.853515625" xlink:href="#BitstreamVeraSans-Roman-36"/>
    </g>
   </g>
   <g id="text_2">
    <!-- 2e-06 -->
    <g transform="translate(502.1431370041052 691.4503765848258)scale(0.14 -0.14)">
     <use xlink:href="#BitstreamVeraSans-Roman-32"/>
     <use x="63.623046875" xlink:href="#BitstreamVeraSans-Roman-65"/>
     <use x="125.146484375" xlink:href="#BitstreamVeraSans-Roman-2d"/>
     <use x="161.23046875" xlink:href="#BitstreamVeraSans-Roman-30"/>
     <use x="224.853515625" xlink:href="#BitstreamVeraSans-Roman-36"/>
    </g>
   </g>
   <g id="text_3">
    <!-- 3e-06 -->
    <defs>
     <path d="M 40.578125 39.3125 
Q 47.65625 37.796875 51.625 33 
Q 55.609375 28.21875 55.609375 21.1875 
Q 55.609375 10.40625 48.1875 4.484375 
Q 40.765625 -1.421875 27.09375 -1.421875 
Q 22.515625 -1.421875 17.65625 -0.515625 
Q 12.796875 0.390625 7.625 2.203125 
L 7.625 11.71875 
Q 11.71875 9.328125 16.59375 8.109375 
Q 21.484375 6.890625 26.8125 6.890625 
Q 36.078125 6.890625 40.9375 10.546875 
Q 45.796875 14.203125 45.796875 21.1875 
Q 45.796875 27.640625 41.28125 31.265625 
Q 36.765625 34.90625 28.71875 34.90625 
L 20.21875 34.90625 
L 20.21875 43.015625 
L 29.109375 43.015625 
Q 36.375 43.015625 40.234375 45.921875 
Q 44.09375 48.828125 44.09375 54.296875 
Q 44.09375 59.90625 40.109375 62.90625 
Q 36.140625 65.921875 28.71875 65.921875 
Q 24.65625 65.921875 20.015625 65.03125 
Q 15.375 64.15625 9.8125 62.3125 
L 9.8125 71.09375 
Q 15.4375 72.65625 20.34375 73.4375 
Q 25.25 74.21875 29.59375 74.21875 
Q 40.828125 74.21875 47.359375 69.109375 
Q 53.90625 64.015625 53.90625 55.328125 
Q 53.90625 49.265625 50.4375 45.09375 
Q 46.96875 40.921875 40.578125 39.3125 
" id="BitstreamVeraSans-Roman-33"/>
    </defs>
    <g transform="translate(299.2838443960358 639.118247953658)scale(0.14 -0.14)">
     <use xlink:href="#BitstreamVeraSans-Roman-33"/>
     <use x="63.623046875" xlink:href="#BitstreamVeraSans-Roman-65"/>
     <use x="125.146484375" xlink:href="#BitstreamVeraSans-Roman-2d"/>
     <use x="161.23046875" xlink:href="#BitstreamVeraSans-Roman-30"/>
     <use x="224.853515625" xlink:href="#BitstreamVeraSans-Roman-36"/>
    </g>
   </g>
   <g id="text_4">
    <!-- 4e-06 -->
    <defs>
     <path d="M 37.796875 64.3125 
L 12.890625 25.390625 
L 37.796875 25.390625 
z
M 35.203125 72.90625 
L 47.609375 72.90625 
L 47.609375 25.390625 
L 58.015625 25.390625 
L 58.015625 17.1875 
L 47.609375 17.1875 
L 47.609375 0 
L 37.796875 0 
L 37.796875 17.1875 
L 4.890625 17.1875 
L 4.890625 26.703125 
z
" id="BitstreamVeraSans-Roman-34"/>
    </defs>
    <g transform="translate(346.51133048411003 600.9178628092454)scale(0.14 -0.14)">
     <use xlink:href="#BitstreamVeraSans-Roman-34"/>
     <use x="63.623046875" xlink:href="#BitstreamVeraSans-Roman-65"/>
     <use x="125.146484375" xlink:href="#BitstreamVeraSans-Roman-2d"/>
     <use x="161.23046875" xlink:href="#BitstreamVeraSans-Roman-30"/>
     <use x="224.853515625" xlink:href="#BitstreamVeraSans-Roman-36"/>
    </g>
   </g>
   <g id="text_5">
    <!-- 2e-06 -->
    <g transform="translate(419.8013342643454 575.1193691860685)scale(0.14 -0.14)">
     <use xlink:href="#BitstreamVeraSans-Roman-32"/>
     <use x="63.623046875" xlink:href="#BitstreamVeraSans-Roman-65"/>
     <use x="125.146484375" xlink:href="#BitstreamVeraSans-Roman-2d"/>
     <use x="161.23046875" xlink:href="#BitstreamVeraSans-Roman-30"/>
     <use x="224.853515625" xlink:href="#BitstreamVeraSans-Roman-36"/>
    </g>
   </g>
   <g id="text_6">
    <!-- 3e-06 -->
    <g transform="translate(486.0765805107405 563.0068808139317)scale(0.14 -0.14)">
     <use xlink:href="#BitstreamVeraSans-Roman-33"/>
     <use x="63.623046875" xlink:href="#BitstreamVeraSans-Roman-65"/>
     <use x="125.146484375" xlink:href="#BitstreamVeraSans-Roman-2d"/>
     <use x="161.23046875" xlink:href="#BitstreamVeraSans-Roman-30"/>
     <use x="224.853515625" xlink:href="#BitstreamVeraSans-Roman-36"/>
    </g>
   </g>
   <g id="text_7">
    <!-- 3e-06 -->
    <g transform="translate(454.7849018358826 571.5224515621907)scale(0.14 -0.14)">
     <use xlink:href="#BitstreamVeraSans-Roman-33"/>
     <use x="63.623046875" xlink:href="#BitstreamVeraSans-Roman-65"/>
     <use x="125.146484375" xlink:href="#BitstreamVeraSans-Roman-2d"/>
     <use x="161.23046875" xlink:href="#BitstreamVeraSans-Roman-30"/>
     <use x="224.853515625" xlink:href="#BitstreamVeraSans-Roman-36"/>
    </g>
   </g>
   <g id="text_8">
    <!-- 5e-06 -->
    <defs>
     <path d="M 10.796875 72.90625 
L 49.515625 72.90625 
L 49.515625 64.59375 
L 19.828125 64.59375 
L 19.828125 46.734375 
Q 21.96875 47.46875 24.109375 47.828125 
Q 26.265625 48.1875 28.421875 48.1875 
Q 40.625 48.1875 47.75 41.5 
Q 54.890625 34.8125 54.890625 23.390625 
Q 54.890625 11.625 47.5625 5.09375 
Q 40.234375 -1.421875 26.90625 -1.421875 
Q 22.3125 -1.421875 17.546875 -0.640625 
Q 12.796875 0.140625 7.71875 1.703125 
L 7.71875 11.625 
Q 12.109375 9.234375 16.796875 8.0625 
Q 21.484375 6.890625 26.703125 6.890625 
Q 35.15625 6.890625 40.078125 11.328125 
Q 45.015625 15.765625 45.015625 23.390625 
Q 45.015625 31 40.078125 35.4375 
Q 35.15625 39.890625 26.703125 39.890625 
Q 22.75 39.890625 18.8125 39.015625 
Q 14.890625 38.140625 10.796875 36.28125 
z
" id="BitstreamVeraSans-Roman-35"/>
    </defs>
    <g transform="translate(441.2530825056266 514.312091131735)scale(0.14 -0.14)">
     <use xlink:href="#BitstreamVeraSans-Roman-35"/>
     <use x="63.623046875" xlink:href="#BitstreamVeraSans-Roman-65"/>
     <use x="125.146484375" xlink:href="#BitstreamVeraSans-Roman-2d"/>
     <use x="161.23046875" xlink:href="#BitstreamVeraSans-Roman-30"/>
     <use x="224.853515625" xlink:href="#BitstreamVeraSans-Roman-36"/>
    </g>
   </g>
   <g id="text_9">
    <!-- 3e-06 -->
    <g transform="translate(554.0027752274046 508.58514906350365)scale(0.14 -0.14)">
     <use xlink:href="#BitstreamVeraSans-Roman-33"/>
     <use x="63.623046875" xlink:href="#BitstreamVeraSans-Roman-65"/>
     <use x="125.146484375" xlink:href="#BitstreamVeraSans-Roman-2d"/>
     <use x="161.23046875" xlink:href="#BitstreamVeraSans-Roman-30"/>
     <use x="224.853515625" xlink:href="#BitstreamVeraSans-Roman-36"/>
    </g>
   </g>
   <g id="text_10">
    <!-- 4e-06 -->
    <g transform="translate(602.1179490090447 475.33953286751876)scale(0.14 -0.14)">
     <use xlink:href="#BitstreamVeraSans-Roman-34"/>
     <use x="63.623046875" xlink:href="#BitstreamVeraSans-Roman-65"/>
     <use x="125.146484375" xlink:href="#BitstreamVeraSans-Roman-2d"/>
     <use x="161.23046875" xlink:href="#BitstreamVeraSans-Roman-30"/>
     <use x="224.853515625" xlink:href="#BitstreamVeraSans-Roman-36"/>
    </g>
   </g>
   <g id="text_11">
    <!-- 6e-06 -->
    <g transform="translate(402.47764985128396 416.3805629007704)scale(0.14 -0.14)">
     <use xlink:href="#BitstreamVeraSans-Roman-36"/>
     <use x="63.623046875" xlink:href="#BitstreamVeraSans-Roman-65"/>
     <use x="125.146484375" xlink:href="#BitstreamVeraSans-Roman-2d"/>
     <use x="161.23046875" xlink:href="#BitstreamVeraSans-Roman-30"/>
     <use x="224.853515625" xlink:href="#BitstreamVeraSans-Roman-36"/>
    </g>
   </g>
   <g id="text_12">
    <!-- 5e-06 -->
    <g transform="translate(446.3011421046623 451.65554786213295)scale(0.14 -0.14)">
     <use xlink:href="#BitstreamVeraSans-Roman-35"/>
     <use x="63.623046875" xlink:href="#BitstreamVeraSans-Roman-65"/>
     <use x="125.146484375" xlink:href="#BitstreamVeraSans-Roman-2d"/>
     <use x="161.23046875" xlink:href="#BitstreamVeraSans-Roman-30"/>
     <use x="224.853515625" xlink:href="#BitstreamVeraSans-Roman-36"/>
    </g>
   </g>
   <g id="patch_14">
    <path clip-path="url(#pe12ec9bb33)" d="M 371.641055 779.058544 
C 379.029227 779.058544 386.115794 776.123192 391.34002 770.898965 
C 396.564247 765.674739 399.499599 758.588172 399.499599 751.2 
C 399.499599 743.811828 396.564247 736.725261 391.34002 731.501035 
C 386.115794 726.276808 379.029227 723.341456 371.641055 723.341456 
C 364.252883 723.341456 357.166317 726.276808 351.94209 731.501035 
C 346.717863 736.725261 343.782511 743.811828 343.782511 751.2 
C 343.782511 758.588172 346.717863 765.674739 351.94209 770.898965 
C 357.166317 776.123192 364.252883 779.058544 371.641055 779.058544 
z
" style="fill:#8000ff;stroke:#8000ff;stroke-linejoin:miter;"/>
   </g>
   <g id="patch_15">
    <path clip-path="url(#pe12ec9bb33)" d="M 621.883865 644.077762 
C 634.369449 644.077762 646.345337 639.117187 655.173978 630.288545 
C 664.002619 621.459904 668.963194 609.484016 668.963194 596.998432 
C 668.963194 584.512848 664.002619 572.53696 655.173978 563.708319 
C 646.345337 554.879677 634.369449 549.919102 621.883865 549.919102 
C 609.39828 549.919102 597.422392 554.879677 588.593751 563.708319 
C 579.76511 572.53696 574.804535 584.512848 574.804535 596.998432 
C 574.804535 609.484016 579.76511 621.459904 588.593751 630.288545 
C 597.422392 639.117187 609.39828 644.077762 621.883865 644.077762 
z
" style="fill:#feb562;stroke:#feb562;stroke-linejoin:miter;"/>
   </g>
   <g id="patch_16">
    <path clip-path="url(#pe12ec9bb33)" d="M 314.541932 529.383407 
C 327.344226 529.383407 339.623895 524.297001 348.676484 515.244413 
C 357.729073 506.191824 362.815478 493.912155 362.815478 481.109861 
C 362.815478 468.307567 357.729073 456.027898 348.676484 446.975309 
C 339.623895 437.92272 327.344226 432.836315 314.541932 432.836315 
C 301.739638 432.836315 289.459969 437.92272 280.407381 446.975309 
C 271.354792 456.027898 266.268386 468.307567 266.268386 481.109861 
C 266.268386 493.912155 271.354792 506.191824 280.407381 515.244413 
C 289.459969 524.297001 301.739638 529.383407 314.541932 529.383407 
z
" style="fill:#00b5eb;stroke:#00b5eb;stroke-linejoin:miter;"/>
   </g>
   <g id="patch_17">
    <path clip-path="url(#pe12ec9bb33)" d="M 574.624672 449.687999 
C 593.318308 449.687999 611.248818 442.260939 624.467214 429.042542 
C 637.685611 415.824145 645.112671 397.893636 645.112671 379.2 
C 645.112671 360.506364 637.685611 342.575855 624.467214 329.357458 
C 611.248818 316.139061 593.318308 308.712001 574.624672 308.712001 
C 555.931036 308.712001 538.000527 316.139061 524.78213 329.357458 
C 511.563733 342.575855 504.136673 360.506364 504.136673 379.2 
C 504.136673 397.893636 511.563733 415.824145 524.78213 429.042542 
C 538.000527 442.260939 555.931036 449.687999 574.624672 449.687999 
z
" style="fill:#80ffb4;stroke:#80ffb4;stroke-linejoin:miter;"/>
   </g>
   <g id="matplotlib.axis_1"/>
   <g id="matplotlib.axis_2"/>
   <g id="text_13">
    <!-- 1 -->
    <defs>
     <path d="M 11.71875 12.984375 
L 28.328125 12.984375 
L 28.328125 60.109375 
L 11.28125 56.59375 
L 11.28125 69.390625 
L 28.21875 72.90625 
L 46.09375 72.90625 
L 46.09375 12.984375 
L 62.703125 12.984375 
L 62.703125 0 
L 11.71875 0 
z
" id="BitstreamVeraSans-Bold-31"/>
    </defs>
    <g transform="translate(363.9874613496428 757.2706250000001)scale(0.22 -0.22)">
     <use xlink:href="#BitstreamVeraSans-Bold-31"/>
    </g>
   </g>
   <g id="text_14">
    <!-- 4 -->
    <defs>
     <path d="M 36.8125 57.421875 
L 16.21875 26.90625 
L 36.8125 26.90625 
z
M 33.6875 72.90625 
L 54.59375 72.90625 
L 54.59375 26.90625 
L 64.984375 26.90625 
L 64.984375 13.28125 
L 54.59375 13.28125 
L 54.59375 0 
L 36.8125 0 
L 36.8125 13.28125 
L 4.5 13.28125 
L 4.5 29.390625 
z
" id="BitstreamVeraSans-Bold-34"/>
    </defs>
    <g transform="translate(614.2302708110061 603.0690569310224)scale(0.22 -0.22)">
     <use xlink:href="#BitstreamVeraSans-Bold-34"/>
    </g>
   </g>
   <g id="text_15">
    <!-- 2 -->
    <defs>
     <path d="M 28.8125 13.8125 
L 60.890625 13.8125 
L 60.890625 0 
L 7.90625 0 
L 7.90625 13.8125 
L 34.515625 37.3125 
Q 38.09375 40.53125 39.796875 43.609375 
Q 41.5 46.6875 41.5 50 
Q 41.5 55.125 38.0625 58.25 
Q 34.625 61.375 28.90625 61.375 
Q 24.515625 61.375 19.28125 59.5 
Q 14.0625 57.625 8.109375 53.90625 
L 8.109375 69.921875 
Q 14.453125 72.015625 20.65625 73.109375 
Q 26.859375 74.21875 32.8125 74.21875 
Q 45.90625 74.21875 53.15625 68.453125 
Q 60.40625 62.703125 60.40625 52.390625 
Q 60.40625 46.4375 57.328125 41.28125 
Q 54.25 36.140625 44.390625 27.484375 
z
" id="BitstreamVeraSans-Bold-32"/>
    </defs>
    <g transform="translate(306.88833853050306 487.18048576290334)scale(0.22 -0.22)">
     <use xlink:href="#BitstreamVeraSans-Bold-32"/>
    </g>
   </g>
   <g id="text_16">
    <!-- 3 -->
    <defs>
     <path d="M 46.578125 39.3125 
Q 53.953125 37.40625 57.78125 32.6875 
Q 61.625 27.984375 61.625 20.703125 
Q 61.625 9.859375 53.3125 4.21875 
Q 45.015625 -1.421875 29.109375 -1.421875 
Q 23.484375 -1.421875 17.84375 -0.515625 
Q 12.203125 0.390625 6.6875 2.203125 
L 6.6875 16.703125 
Q 11.96875 14.0625 17.15625 12.71875 
Q 22.359375 11.375 27.390625 11.375 
Q 34.859375 11.375 38.84375 13.953125 
Q 42.828125 16.546875 42.828125 21.390625 
Q 42.828125 26.375 38.75 28.9375 
Q 34.671875 31.5 26.703125 31.5 
L 19.1875 31.5 
L 19.1875 43.609375 
L 27.09375 43.609375 
Q 34.1875 43.609375 37.640625 45.828125 
Q 41.109375 48.046875 41.109375 52.59375 
Q 41.109375 56.78125 37.734375 59.078125 
Q 34.375 61.375 28.21875 61.375 
Q 23.6875 61.375 19.046875 60.34375 
Q 14.40625 59.328125 9.8125 57.328125 
L 9.8125 71.09375 
Q 15.375 72.65625 20.84375 73.4375 
Q 26.3125 74.21875 31.59375 74.21875 
Q 45.796875 74.21875 52.84375 69.546875 
Q 59.90625 64.890625 59.90625 55.515625 
Q 59.90625 49.125 56.53125 45.046875 
Q 53.171875 40.96875 46.578125 39.3125 
" id="BitstreamVeraSans-Bold-33"/>
    </defs>
    <g transform="translate(566.9710784254431 385.2706250000001)scale(0.22 -0.22)">
     <use xlink:href="#BitstreamVeraSans-Bold-33"/>
    </g>
   </g>
  </g>
 </g>
 <defs>
  <clipPath id="pe12ec9bb33">
   <rect height="1116.0" width="922.025796841509" x="7.200000000000017" y="7.2000000000000455"/>
  </clipPath>
 </defs>
</svg>
