<?xml version="1.0" encoding="utf-8" standalone="no"?>
<!DOCTYPE svg PUBLIC "-//W3C//DTD SVG 1.1//EN"
  "http://www.w3.org/Graphics/SVG/1.1/DTD/svg11.dtd">
<!-- Created with matplotlib (http://matplotlib.org/) -->
<svg height="981pt" version="1.1" viewBox="0 0 1409 981" width="1409pt" xmlns="http://www.w3.org/2000/svg" xmlns:xlink="http://www.w3.org/1999/xlink">
 <defs>
  <style type="text/css">
*{stroke-linecap:butt;stroke-linejoin:round;stroke-miterlimit:100000;}
  </style>
 </defs>
 <g id="figure_1">
  <g id="patch_1">
   <path d="M 0 981.937003 
L 1409.4 981.937003 
L 1409.4 0 
L 0 0 
z
" style="fill:#ffffff;"/>
  </g>
  <g id="axes_1">
   <g id="patch_2">
    <path d="M 498.741646 619.602347 
Q 655.887609 462.328923 853.821763 363.858259 
L 852.191067 360.580426 
Q 860.405797 360.582864 868.595592 360.684306 
Q 863.597476 367.17297 858.713842 373.691741 
L 857.083146 370.413908 
Q 660.220949 468.351282 503.921251 624.777754 
L 498.741646 619.602347 
z
" style="fill:#8a8aff;stroke:#8a8aff;stroke-linecap:round;"/>
   </g>
   <g id="patch_3">
    <path d="M 882.143959 385.384151 
Q 718.508057 540.78423 512.374972 634.911332 
L 513.305887 636.949985 
Q 510.507704 636.853567 507.712473 636.745982 
Q 509.477394 634.575739 511.229008 632.401735 
L 512.159923 634.440388 
Q 718.214291 540.349231 881.787445 385.008743 
L 882.143959 385.384151 
z
" style="fill:#fff6f6;stroke:#fff6f6;stroke-linecap:round;"/>
   </g>
   <g id="patch_4">
    <path clip-path="url(#p0e0e5f9af8)" d="M 472.2 690.57788 
C 482.37139 690.57788 492.127556 686.536743 499.319816 679.344484 
C 506.512075 672.152225 510.553211 662.396059 510.553211 652.224669 
C 510.553211 642.053278 506.512075 632.297112 499.319816 625.104853 
C 492.127556 617.912594 482.37139 613.871458 472.2 613.871458 
C 462.02861 613.871458 452.272444 617.912594 445.080184 625.104853 
C 437.887925 632.297112 433.846789 642.053278 433.846789 652.224669 
C 433.846789 662.396059 437.887925 672.152225 445.080184 679.344484 
C 452.272444 686.536743 462.02861 690.57788 472.2 690.57788 
z
" style="fill:#8000ff;stroke:#8000ff;stroke-linejoin:miter;"/>
   </g>
   <g id="patch_5">
    <path clip-path="url(#p0e0e5f9af8)" d="M 937.2 404.50611 
C 957.035541 404.50611 976.06134 396.625366 990.087186 382.59952 
C 1004.113032 368.573675 1011.993776 349.547876 1011.993776 329.712334 
C 1011.993776 309.876793 1004.113032 290.850994 990.087186 276.825149 
C 976.06134 262.799303 957.035541 254.918559 937.2 254.918559 
C 917.364459 254.918559 898.33866 262.799303 884.312814 276.825149 
C 870.286968 290.850994 862.406224 309.876793 862.406224 329.712334 
C 862.406224 349.547876 870.286968 368.573675 884.312814 382.59952 
C 898.33866 396.625366 917.364459 404.50611 937.2 404.50611 
z
" style="fill:#80ffb4;stroke:#80ffb4;stroke-linejoin:miter;"/>
   </g>
   <g id="matplotlib.axis_1"/>
   <g id="matplotlib.axis_2"/>
   <g id="text_1">
    <!-- 1 -->
    <defs>
     <path d="M 11.71875 12.984375 
L 28.328125 12.984375 
L 28.328125 60.109375 
L 11.28125 56.59375 
L 11.28125 69.390625 
L 28.21875 72.90625 
L 46.09375 72.90625 
L 46.09375 12.984375 
L 62.703125 12.984375 
L 62.703125 0 
L 11.71875 0 
z
" id="BitstreamVeraSans-Bold-31"/>
    </defs>
    <g transform="translate(464.54640625 658.2952937845916)scale(0.22 -0.22)">
     <use xlink:href="#BitstreamVeraSans-Bold-31"/>
    </g>
   </g>
   <g id="text_2">
    <!-- 2 -->
    <defs>
     <path d="M 28.8125 13.8125 
L 60.890625 13.8125 
L 60.890625 0 
L 7.90625 0 
L 7.90625 13.8125 
L 34.515625 37.3125 
Q 38.09375 40.53125 39.796875 43.609375 
Q 41.5 46.6875 41.5 50 
Q 41.5 55.125 38.0625 58.25 
Q 34.625 61.375 28.90625 61.375 
Q 24.515625 61.375 19.28125 59.5 
Q 14.0625 57.625 8.109375 53.90625 
L 8.109375 69.921875 
Q 14.453125 72.015625 20.65625 73.109375 
Q 26.859375 74.21875 32.8125 74.21875 
Q 45.90625 74.21875 53.15625 68.453125 
Q 60.40625 62.703125 60.40625 52.390625 
Q 60.40625 46.4375 57.328125 41.28125 
Q 54.25 36.140625 44.390625 27.484375 
z
" id="BitstreamVeraSans-Bold-32"/>
    </defs>
    <g transform="translate(929.54640625 335.78295939229565)scale(0.22 -0.22)">
     <use xlink:href="#BitstreamVeraSans-Bold-32"/>
    </g>
   </g>
  </g>
 </g>
 <defs>
  <clipPath id="p0e0e5f9af8">
   <rect height="967.5370031768875" width="1395.0" x="7.200000000000017" y="7.199999999999932"/>
  </clipPath>
 </defs>
</svg>
