<?xml version="1.0" encoding="utf-8" standalone="no"?>
<!DOCTYPE svg PUBLIC "-//W3C//DTD SVG 1.1//EN"
  "http://www.w3.org/Graphics/SVG/1.1/DTD/svg11.dtd">
<!-- Created with matplotlib (http://matplotlib.org/) -->
<svg height="502pt" version="1.1" viewBox="0 0 1130 502" width="1130pt" xmlns="http://www.w3.org/2000/svg" xmlns:xlink="http://www.w3.org/1999/xlink">
 <defs>
  <style type="text/css">
*{stroke-linecap:butt;stroke-linejoin:round;stroke-miterlimit:100000;}
  </style>
 </defs>
 <g id="figure_1">
  <g id="patch_1">
   <path d="M 0 502.936826 
L 1130.4 502.936826 
L 1130.4 0 
L 0 0 
z
" style="fill:#ffffff;"/>
  </g>
  <g id="axes_1">
   <g id="patch_2">
    <path d="M 415.566993 177.075633 
Q 570.627458 215.051238 704.98586 300.319545 
L 705.712758 299.174162 
Q 707.159423 301.57275 708.590336 303.97626 
Q 705.809201 303.676789 703.033582 303.395775 
L 703.76048 302.250393 
Q 569.718945 217.18318 415.022999 179.296849 
L 415.566993 177.075633 
z
" style="fill:#5a5a5a;stroke:#5a5a5a;stroke-linecap:round;"/>
   </g>
   <g id="patch_3">
    <path d="M 697.472578 322.91262 
Q 545.871567 282.946909 414.32477 197.171605 
L 412.92469 199.318797 
Q 410.012886 194.359959 407.166456 189.381119 
Q 412.857032 190.094428 418.525 190.730044 
L 417.12492 192.877236 
Q 547.97857 278.200573 698.779436 317.955347 
L 697.472578 322.91262 
z
" style="stroke:#000000;stroke-linecap:round;"/>
   </g>
   <g id="patch_4">
    <path clip-path="url(#p21661ed239)" d="M 379.2 203.649953 
C 388.111976 203.649953 396.660141 200.109187 402.96186 193.807468 
C 409.263578 187.50575 412.804344 178.957585 412.804344 170.045609 
C 412.804344 161.133633 409.263578 152.585468 402.96186 146.283749 
C 396.660141 139.98203 388.111976 136.441265 379.2 136.441265 
C 370.288024 136.441265 361.739859 139.98203 355.43814 146.283749 
C 349.136422 152.585468 345.595656 161.133633 345.595656 170.045609 
C 345.595656 178.957585 349.136422 187.50575 355.43814 193.807468 
C 361.739859 200.109187 370.288024 203.649953 379.2 203.649953 
z
" style="fill:#8000ff;stroke:#8000ff;stroke-linejoin:miter;"/>
   </g>
   <g id="patch_5">
    <path clip-path="url(#p21661ed239)" d="M 751.2 383.924948 
C 764.734304 383.924948 777.716099 378.547712 787.286297 368.977515 
C 796.856495 359.407317 802.233731 346.425521 802.233731 332.891218 
C 802.233731 319.356914 796.856495 306.375118 787.286297 296.804921 
C 777.716099 287.234723 764.734304 281.857487 751.2 281.857487 
C 737.665696 281.857487 724.683901 287.234723 715.113703 296.804921 
C 705.543505 306.375118 700.166269 319.356914 700.166269 332.891218 
C 700.166269 346.425521 705.543505 359.407317 715.113703 368.977515 
C 724.683901 378.547712 737.665696 383.924948 751.2 383.924948 
z
" style="fill:#80ffb4;stroke:#80ffb4;stroke-linejoin:miter;"/>
   </g>
   <g id="matplotlib.axis_1"/>
   <g id="matplotlib.axis_2"/>
   <g id="text_1">
    <!-- 1 -->
    <defs>
     <path d="M 11.71875 12.984375 
L 28.328125 12.984375 
L 28.328125 60.109375 
L 11.28125 56.59375 
L 11.28125 69.390625 
L 28.21875 72.90625 
L 46.09375 72.90625 
L 46.09375 12.984375 
L 62.703125 12.984375 
L 62.703125 0 
L 11.71875 0 
z
" id="BitstreamVeraSans-Bold-31"/>
    </defs>
    <g transform="translate(371.54640625 176.1162337999085)scale(0.22 -0.22)">
     <use xlink:href="#BitstreamVeraSans-Bold-31"/>
    </g>
   </g>
   <g id="text_2">
    <!-- 2 -->
    <defs>
     <path d="M 28.8125 13.8125 
L 60.890625 13.8125 
L 60.890625 0 
L 7.90625 0 
L 7.90625 13.8125 
L 34.515625 37.3125 
Q 38.09375 40.53125 39.796875 43.609375 
Q 41.5 46.6875 41.5 50 
Q 41.5 55.125 38.0625 58.25 
Q 34.625 61.375 28.90625 61.375 
Q 24.515625 61.375 19.28125 59.5 
Q 14.0625 57.625 8.109375 53.90625 
L 8.109375 69.921875 
Q 14.453125 72.015625 20.65625 73.109375 
Q 26.859375 74.21875 32.8125 74.21875 
Q 45.90625 74.21875 53.15625 68.453125 
Q 60.40625 62.703125 60.40625 52.390625 
Q 60.40625 46.4375 57.328125 41.28125 
Q 54.25 36.140625 44.390625 27.484375 
z
" id="BitstreamVeraSans-Bold-32"/>
    </defs>
    <g transform="translate(743.54640625 338.9618425998171)scale(0.22 -0.22)">
     <use xlink:href="#BitstreamVeraSans-Bold-32"/>
    </g>
   </g>
  </g>
 </g>
 <defs>
  <clipPath id="p21661ed239">
   <rect height="488.5368263997257" width="1116.0" x="7.200000000000017" y="7.199999999999932"/>
  </clipPath>
 </defs>
</svg>
